<svg id="fi-rr-clock" xmlns="http://www.w3.org/2000/svg" width="15.354" height="15.354" viewBox="0 0 15.354 15.354">
  <path id="Path_323" data-name="Path 323" d="M7.677,0a7.677,7.677,0,1,0,7.677,7.677A7.677,7.677,0,0,0,7.677,0Zm0,14.074a6.4,6.4,0,1,1,6.4-6.4A6.4,6.4,0,0,1,7.677,14.074Z" fill="#989898"/>
  <path id="Path_324" data-name="Path 324" d="M10.255,6a.64.64,0,0,0-.64.64V9.407L7.459,10.758a.641.641,0,0,0,.679,1.088L10.6,10.31a.64.64,0,0,0,.3-.549V6.64A.64.64,0,0,0,10.255,6Z" transform="translate(-2.579 -2.162)" fill="#989898"/>
</svg>
