<svg xmlns="http://www.w3.org/2000/svg" xmlns:xlink="http://www.w3.org/1999/xlink" viewBox="0 0 3695.34 2404.98"><defs><style>.cls-1,.cls-38,.cls-40{fill:none;}.cls-2{fill:#ffe3c2;}.cls-3{clip-path:url(#clip-path);}.cls-4{fill:#ffc68d;}.cls-5,.cls-6,.cls-7,.cls-8,.cls-9{fill:#fccfac;}.cls-5{opacity:0.48;}.cls-6{opacity:0.71;}.cls-7{opacity:0.59;}.cls-8{opacity:0.55;}.cls-9{opacity:0.73;}.cls-10,.cls-17,.cls-19,.cls-20{fill:#fff;}.cls-11{fill:#13a497;}.cls-12,.cls-13{fill:#ffc280;}.cls-12{opacity:0.44;}.cls-14{fill:#dd8f79;}.cls-15{fill:#fe677a;}.cls-16{fill:#452964;}.cls-17,.cls-18{opacity:0.37;}.cls-19,.cls-38{stroke:#56cbb8;stroke-width:8.31px;}.cls-19,.cls-20,.cls-33,.cls-38,.cls-40{stroke-miterlimit:10;}.cls-20{stroke:#000;stroke-width:3.11px;}.cls-21{fill:#fcf4e7;}.cls-22{fill:#56cbb8;}.cls-23{fill:#011b7a;opacity:0.43;}.cls-24,.cls-34{fill:#180530;}.cls-25,.cls-33{fill:#fdbfa6;}.cls-26,.cls-27,.cls-36,.cls-37{fill:#b8697c;}.cls-27{opacity:0.41;}.cls-28{fill:#e5ddec;}.cls-29{fill:#541d10;}.cls-30{fill:#ffb957;}.cls-31,.cls-35{fill:#d04719;}.cls-31{opacity:0.49;}.cls-32{fill:#db3a55;}.cls-33{stroke:#b8697c;stroke-width:1.04px;}.cls-34{opacity:0.35;}.cls-36{opacity:0.34;}.cls-37{opacity:0.18;}.cls-39{fill:#ffe8d4;}.cls-40{stroke:#fff;stroke-width:7.64px;}</style><clipPath id="clip-path" transform="translate(452.45)"><path class="cls-1" d="M110.61,1060.32c63.35-116.12,174-200.44,239.8-315.19C450,571.46,443.06,346,620.55,222.39c162-112.82,400.52-150.6,592.62-168.52,247.94-23.14,500.51,1.7,740.43,67.65,223.25,61.36,476.92,158.8,647.11,320.92,288.9,275.18,355.21,708.13,192.54,1068.64-21.84,48.4-47.76,95.31-81.47,136.32-94.55,115-241.2,173.53-385.59,209.87-512.35,128.94-1085.46,59.84-1601.37-17-100.18-14.91-200.69-32.62-295.44-68.4C154.36,1668.06-43.52,1342.87,110.61,1060.32Z"/></clipPath></defs><g id="Layer_2" data-name="Layer 2"><g id="_04" data-name="04"><path class="cls-2" d="M110.61,1060.32c63.35-116.12,174-200.44,239.8-315.19C450,571.46,443.06,346,620.55,222.39c162-112.82,400.52-150.6,592.62-168.52,247.94-23.14,500.51,1.7,740.43,67.65,223.25,61.36,476.92,158.8,647.11,320.92,288.9,275.18,355.21,708.13,192.54,1068.64-21.84,48.4-47.76,95.31-81.47,136.32-94.55,115-241.2,173.53-385.59,209.87-512.35,128.94-1085.46,59.84-1601.37-17-100.18-14.91-200.69-32.62-295.44-68.4C154.36,1668.06-43.52,1342.87,110.61,1060.32Z" transform="translate(452.45)"/><g class="cls-3"><rect class="cls-4" x="-83.2" y="1073.9" width="510.2" height="136.7" rx="28.22" transform="translate(533.3 -9.27) rotate(4.04)"/><rect class="cls-5" x="442.67" y="1111.02" width="510.2" height="136.7" rx="28.22" transform="translate(537.21 -46.2) rotate(4.04)"/><rect class="cls-4" x="968.55" y="1148.14" width="510.2" height="136.7" rx="28.22" transform="translate(541.13 -83.13) rotate(4.04)"/><rect class="cls-4" x="1494.42" y="1185.25" width="510.2" height="136.7" rx="28.22" transform="translate(545.05 -120.07) rotate(4.04)"/><rect class="cls-6" x="2020.29" y="1222.37" width="510.2" height="136.7" rx="28.22" transform="translate(548.97 -157) rotate(4.04)"/><rect class="cls-4" x="2546.16" y="1259.48" width="510.2" height="136.7" rx="28.22" transform="translate(552.89 -193.93) rotate(4.04)"/><rect class="cls-4" x="-127.88" y="1707.04" width="510.2" height="136.7" rx="28.22" transform="translate(577.76 -4.55) rotate(4.04)"/><rect class="cls-4" x="397.99" y="1744.15" width="510.2" height="136.7" rx="28.22" transform="translate(581.68 -41.48) rotate(4.04)"/><rect class="cls-4" x="923.86" y="1781.27" width="510.2" height="136.7" rx="28.22" transform="translate(585.6 -78.42) rotate(4.04)"/><rect class="cls-4" x="1449.73" y="1818.39" width="510.2" height="136.7" rx="28.22" transform="translate(589.52 -115.35) rotate(4.04)"/><rect class="cls-4" x="1975.6" y="1855.5" width="510.2" height="136.7" rx="28.22" transform="translate(593.43 -152.28) rotate(4.04)"/><rect class="cls-4" x="2501.47" y="1892.62" width="510.2" height="136.7" rx="28.22" transform="translate(597.35 -189.21) rotate(4.04)"/><rect class="cls-4" x="-105.26" y="1386.45" width="510.2" height="136.7" rx="28.22" transform="translate(555.25 -6.94) rotate(4.04)"/><rect class="cls-4" x="420.61" y="1423.57" width="510.2" height="136.7" rx="28.22" transform="translate(559.16 -43.87) rotate(4.04)"/><rect class="cls-7" x="946.49" y="1460.68" width="510.2" height="136.7" rx="28.22" transform="translate(563.08 -80.8) rotate(4.04)"/><rect class="cls-4" x="1472.36" y="1497.8" width="510.2" height="136.7" rx="28.22" transform="translate(567 -117.74) rotate(4.04)"/><rect class="cls-4" x="1998.23" y="1534.92" width="510.2" height="136.7" rx="28.22" transform="translate(570.92 -154.67) rotate(4.04)"/><rect class="cls-4" x="2524.1" y="1572.03" width="510.2" height="136.7" rx="28.22" transform="translate(574.84 -191.6) rotate(4.04)"/><rect class="cls-8" x="101.07" y="1241.41" width="510.2" height="136.7" rx="28.22" transform="translate(545.55 -21.83) rotate(4.04)"/><rect class="cls-4" x="-427.65" y="1204.09" width="510.2" height="136.7" rx="28.22" transform="translate(541.61 15.31) rotate(4.04)"/><rect class="cls-4" x="626.94" y="1278.52" width="510.2" height="136.7" rx="28.22" transform="translate(549.46 -58.76) rotate(4.04)"/><rect class="cls-9" x="1152.81" y="1315.64" width="510.2" height="136.7" rx="28.22" transform="translate(553.38 -95.69) rotate(4.04)"/><rect class="cls-4" x="1678.68" y="1352.76" width="510.2" height="136.7" rx="28.22" transform="translate(557.3 -132.62) rotate(4.04)"/><rect class="cls-4" x="2204.55" y="1389.87" width="510.2" height="136.7" rx="28.22" transform="translate(561.22 -169.56) rotate(4.04)"/><rect class="cls-4" x="2730.42" y="1426.99" width="510.2" height="136.7" rx="28.22" transform="translate(565.14 -206.49) rotate(4.04)"/><rect class="cls-4" x="78.53" y="1560.73" width="510.2" height="136.7" rx="28.22" transform="translate(567.97 -19.45) rotate(4.04)"/><rect class="cls-4" x="-450.18" y="1523.41" width="510.2" height="136.7" rx="28.22" transform="translate(564.03 17.69) rotate(4.04)"/><rect class="cls-4" x="604.4" y="1597.84" width="510.2" height="136.7" rx="28.22" transform="translate(571.89 -56.38) rotate(4.04)"/><rect class="cls-4" x="1130.27" y="1634.96" width="510.2" height="136.7" rx="28.22" transform="translate(575.81 -93.31) rotate(4.04)"/><rect class="cls-4" x="1656.14" y="1672.08" width="510.2" height="136.7" rx="28.22" transform="translate(579.73 -130.24) rotate(4.04)"/><rect class="cls-4" x="2182.01" y="1709.19" width="510.2" height="136.7" rx="28.22" transform="translate(583.65 -167.18) rotate(4.04)"/><rect class="cls-4" x="2707.88" y="1746.31" width="510.2" height="136.7" rx="28.22" transform="translate(587.56 -204.11) rotate(4.04)"/></g><path class="cls-2" d="M129.16,372.53C98.89,390.08,77.8,419.7,59,449.21c-55.41,86.86-67,188.92-8.21,278,14.79,22.41,34.49,43.16,60.1,51.28C219.15,812.8,344.58,649.16,361.74,559c10.13-53.22-7.34-110.93-45.27-149.6C272.41,364.48,186.81,339.1,129.16,372.53Z" transform="translate(452.45)"/><path class="cls-10" d="M2599.88,61.56V705.64a56.58,56.58,0,0,1-56.59,56.57H1590a56.58,56.58,0,0,1-56.58-56.57V61.56A56.58,56.58,0,0,1,1590,5h953.33A56.59,56.59,0,0,1,2599.88,61.56Z" transform="translate(452.45)"/><path class="cls-11" d="M2600.34,61.56q-.06,111,.73,221.89l1.78,221.89.73,111,.28,55.47.09,27.74v5.2c0,.57,0,1.15,0,1.78l-.18,3.72c0,.61,0,1.23-.11,1.85l-.27,1.84-.56,3.68c-.25,1.21-.59,2.41-.88,3.61a55.07,55.07,0,0,1-2.31,7.07,32.25,32.25,0,0,1-1.51,3.4c-.55,1.11-1,2.26-1.66,3.33l-1.92,3.19c-.33.52-.63,1.07-1,1.58l-1.11,1.49-2.23,3-2.49,2.76-1.25,1.38c-.42.46-.91.85-1.36,1.28l-2.75,2.5a61.55,61.55,0,0,1-26.5,13c-1.22.26-2.45.4-3.68.6l-1.84.28c-.31,0-.61.1-.92.13l-.93,0c-2.44.1-5,.31-7.28.25h-13.87l-27.74,0c-37,0-74-.17-110.94-.27-147.93-.59-295.85-2.11-443.78-2.37q-110.94-.21-221.89.07l-110.94.39-13.87.07-6.93,0c-1.14,0-2.35,0-3.55-.1l-3.59-.17a58.95,58.95,0,0,1-53.29-58.39l-1.19-221.89L1529,261.85l-.26-110.94-.1-55.47,0-27.74V61.63l0-.93.18-3.76c0-.62,0-1.25.11-1.87l.28-1.86.57-3.73c.25-1.22.6-2.43.89-3.65a56,56,0,0,1,2.34-7.16,31.05,31.05,0,0,1,1.53-3.44c.55-1.13,1-2.29,1.67-3.38l1.95-3.22c.33-.53.64-1.08,1-1.6l1.12-1.51,2.26-3,2.52-2.8,1.26-1.39c.43-.47.92-.86,1.37-1.3l2.79-2.53a62.43,62.43,0,0,1,26.83-13.13c1.23-.26,2.48-.41,3.72-.61l1.86-.28c.31,0,.62-.1.94-.13l.94,0,3.76-.2c.61,0,1.28-.07,1.85-.07h154.28l111,.19,110.94.29L2022,.7l55.48.35,110.94.86,221.89,1.8c37,.3,74,.39,110.94.58l13.87.06H2542c1.15,0,2.32.06,3.48.12l3.5.19a57.23,57.23,0,0,1,44.65,30A58.8,58.8,0,0,1,2600.34,61.56Zm-.93,0a58,58,0,0,0-6.64-26.4,55.91,55.91,0,0,0-43.9-29.29l-3.42-.17c-1.14,0-2.28-.13-3.44-.1l-6.94,0-13.87.06c-37,.19-74,.28-110.94.58l-221.89,1.8-110.94.86L2022,9.27l-55.47.21-110.94.29-111,.2H1590.31c-.59,0-1.07.05-1.61.07l-3.16.16-.79,0c-.27,0-.53.08-.79.12l-1.56.24c-1,.17-2.09.29-3.12.5a53,53,0,0,0-22.52,11l-2.35,2.13c-.38.36-.8.68-1.16,1.07l-1.06,1.18-2.14,2.34-1.89,2.53-1,1.27c-.3.43-.55.89-.83,1.34l-1.66,2.7c-.52.92-.93,1.89-1.41,2.84a24.79,24.79,0,0,0-1.29,2.88,45.44,45.44,0,0,0-2,6c-.25,1-.56,2-.78,3.07l-.48,3.13-.24,1.56c-.07.53-.07,1.06-.1,1.59l-.17,3.17,0,.79V67.7l0,27.74-.11,55.47-.26,110.94-.66,221.89-1.19,221.89a54.24,54.24,0,0,0,48.59,54.2l3.33.19c1.11.06,2.21.14,3.39.12l6.93,0,13.87.06,110.94.4q111,.3,221.89.07c147.93-.27,295.85-1.79,443.78-2.38,37-.1,74-.29,110.94-.27l27.74,0h15.6c.59,0,1.09,0,1.63-.07l3.21-.16.8,0c.27,0,.53-.08.8-.12l1.58-.24c1.06-.18,2.12-.29,3.17-.51A54,54,0,0,0,2577,745.74l2.38-2.16c.39-.36.81-.69,1.17-1.09l1.08-1.19,2.17-2.38,1.92-2.57,1-1.28c.3-.44.56-.91.85-1.37l1.67-2.74c.54-.92.95-1.92,1.43-2.87a24,24,0,0,0,1.31-2.93,46.67,46.67,0,0,0,2-6.09c.25-1,.57-2.07.79-3.11l.49-3.18.25-1.59c.07-.53.06-1.07.1-1.6l.18-3.22c0-.52,0-1.09,0-1.67v-5.2l.09-27.74.28-55.47.73-110.95,1.78-221.89Q2599.39,172.51,2599.41,61.56Z" transform="translate(452.45)"/><path class="cls-11" d="M2599.88,61.56v72H1533.38v-72A56.58,56.58,0,0,1,1590,5h953.33A56.59,56.59,0,0,1,2599.88,61.56Z" transform="translate(452.45)"/><rect class="cls-12" x="2075.75" y="255.45" width="98.37" height="74.86"/><rect class="cls-12" x="2189.47" y="255.45" width="98.37" height="74.86"/><rect class="cls-12" x="2303.19" y="255.45" width="98.37" height="74.86"/><rect class="cls-13" x="2416.9" y="255.45" width="98.37" height="74.86"/><rect class="cls-13" x="2530.62" y="255.45" width="98.37" height="74.86"/><rect class="cls-13" x="2644.34" y="255.45" width="98.37" height="74.86"/><rect class="cls-13" x="2758.06" y="255.45" width="98.37" height="74.86"/><rect class="cls-13" x="2871.77" y="255.45" width="98.37" height="74.86"/><rect class="cls-14" x="2075.75" y="343.79" width="98.37" height="74.86"/><rect class="cls-13" x="2189.47" y="343.79" width="98.37" height="74.86"/><rect class="cls-13" x="2303.19" y="343.79" width="98.37" height="74.86"/><rect class="cls-13" x="2416.9" y="343.79" width="98.37" height="74.86"/><rect class="cls-13" x="2530.62" y="343.79" width="98.37" height="74.86"/><rect class="cls-13" x="2644.34" y="343.79" width="98.37" height="74.86"/><rect class="cls-13" x="2758.06" y="343.79" width="98.37" height="74.86"/><rect class="cls-13" x="2871.77" y="343.79" width="98.37" height="74.86"/><rect class="cls-14" x="2075.75" y="432.14" width="98.37" height="74.86"/><rect class="cls-13" x="2189.47" y="432.14" width="98.37" height="74.86"/><rect class="cls-15" x="2303.19" y="432.14" width="98.37" height="74.86"/><rect class="cls-13" x="2416.9" y="432.14" width="98.37" height="74.86"/><rect class="cls-13" x="2530.62" y="432.14" width="98.37" height="74.86"/><rect class="cls-13" x="2644.34" y="432.14" width="98.37" height="74.86"/><rect class="cls-13" x="2758.06" y="432.14" width="98.37" height="74.86"/><rect class="cls-13" x="2871.77" y="432.14" width="98.37" height="74.86"/><rect class="cls-14" x="2075.75" y="520.48" width="98.37" height="74.86"/><rect class="cls-13" x="2189.47" y="520.48" width="98.37" height="74.86"/><rect class="cls-13" x="2303.19" y="520.48" width="98.37" height="74.86"/><rect class="cls-13" x="2416.9" y="520.48" width="98.37" height="74.86"/><rect class="cls-13" x="2530.62" y="520.48" width="98.37" height="74.86"/><rect class="cls-13" x="2644.34" y="520.48" width="98.37" height="74.86"/><rect class="cls-13" x="2758.06" y="520.48" width="98.37" height="74.86"/><rect class="cls-13" x="2871.77" y="520.48" width="98.37" height="74.86"/><rect class="cls-14" x="2075.75" y="608.82" width="98.37" height="74.86"/><rect class="cls-13" x="2189.47" y="608.82" width="98.37" height="74.86"/><rect class="cls-13" x="2303.19" y="608.82" width="98.37" height="74.86"/><rect class="cls-13" x="2416.9" y="608.82" width="98.37" height="74.86"/><rect class="cls-13" x="2530.62" y="608.82" width="98.37" height="74.86"/><rect class="cls-13" x="2644.34" y="608.82" width="98.37" height="74.86"/><rect class="cls-12" x="2758.06" y="608.82" width="98.37" height="74.86"/><rect class="cls-12" x="2871.77" y="608.82" width="98.37" height="74.86"/><rect class="cls-16" x="2083.8" y="176.25" width="82.28" height="30" rx="15"/><rect class="cls-16" x="2197.51" y="176.25" width="82.28" height="30" rx="15"/><rect class="cls-16" x="2311.23" y="176.25" width="82.28" height="30" rx="15"/><rect class="cls-16" x="2424.95" y="176.25" width="82.28" height="30" rx="15"/><rect class="cls-16" x="2538.66" y="176.25" width="82.28" height="30" rx="15"/><rect class="cls-16" x="2652.38" y="176.25" width="82.28" height="30" rx="15"/><rect class="cls-16" x="2766.1" y="176.25" width="82.28" height="30" rx="15"/><rect class="cls-16" x="2879.82" y="176.25" width="82.28" height="30" rx="15"/><path class="cls-10" d="M1811.49,76.41c8.7.76,17.21,1.61,26,1.68l25,.2c17.3.14,34.6.42,51.9.39l101.81-.19c68.23-.13,136.41-.14,204.62,1,19.3.33,38.6.79,57.89.91l28,.16c9.93.06,20.32,1.22,29.91-1.6,7-2.06,7-12.17,0-14.24-8.44-2.48-17.19-1.68-25.91-1.62l-25,.14c-17.3.11-34.6.44-51.9.73-33.94.58-67.87,1.4-101.81,1.37q-102.32-.09-204.62-.28c-38.49-.07-77.45-1.09-115.79,2.24a4.54,4.54,0,0,0,0,9.08Z" transform="translate(452.45)"/><path class="cls-17" d="M2599.88,176.87V705.64a56.58,56.58,0,0,1-56.59,56.57H1903.88Z" transform="translate(452.45)"/><g class="cls-18"><path class="cls-10" d="M1877.29,629.07c25.29-21.81,51.1-43,76.07-65.16l73.29-65.14q73.24-65.08,145.56-131.27c13.77-12.59,27.63-25.08,41-38.09,6.68-6.5,13.41-13,20.12-19.43,6.95-6.71,12-15.09,16.43-23.68,3.3-6.48-2.4-17.22-10.65-13.85-7.72,3.16-16.45,6.59-22.95,11.89-6.71,5.48-13.1,11.39-19.63,17.09-12.57,11-24.93,22.11-37.2,33.42q-36,33.19-71.68,66.74-72.25,67.57-144,135.66c-27.07,25.68-53.2,52.23-79.88,78.31-8.9,8.7,4.3,21.46,13.52,13.51Z" transform="translate(452.45)"/></g><g class="cls-18"><path class="cls-10" d="M1837.73,373.65c32.77-26.94,65.86-53.39,98.18-80.9s64.13-55.34,95.45-83.88c8.43-7.69,18.17-15.07,25.44-23.87,7.63-9.21,19.18-17.79,23.12-29.34,2.12-6.2-4.45-12-10.36-10.36-10.38,2.83-17.86,12.24-26.41,18.33-8.9,6.34-16.57,14.05-24.57,21.5-15.37,14.3-31,28.37-46.31,42.7q-46.35,43.3-93.52,85.71c-17.73,16-35.21,32.18-53.28,47.85-3.55,3.07-3.15,9.12,0,12.26,3.58,3.59,8.63,3,12.26,0Z" transform="translate(452.45)"/></g><g class="cls-18"><path class="cls-10" d="M1581.16,288.24q103.38-103.92,213.26-201.13,15.38-13.6,30.9-27.06c10.62-9.19,21.39-18,31-28.25,6.18-6.6-1.94-18.53-10.06-13-20.55,13.91-38.69,31.65-57.2,48.15Q1762,91.06,1735.35,115.7c-36,33.29-70.95,67.64-105.39,102.51q-29.54,29.89-58.22,60.61c-5.86,6.24,3.35,15.52,9.42,9.42Z" transform="translate(452.45)"/></g><path class="cls-2" d="M474.71,1956.44S273,1977.87,270.46,2054.78s207,160.88,430.07,151,297.42-16.13,386.94,65.82,197.94,180.29,474.06,108.43,311.71-103.39,505.1-93.3,432.94-25.22,420.33-134.91-590.06-141.21-848.52-148.77-960.74-78.17-964.52-78.17S474.71,1956.44,474.71,1956.44Z" transform="translate(452.45)"/><path class="cls-19" d="M427.81,1906.33s-86.08-293.82-326.6-308.46c-140.66-8.56-129.77,152.79,41.4,158.69s241.08,130.18,266.16,221.24C420.55,2020.58,427.81,1906.33,427.81,1906.33Z" transform="translate(452.45)"/><path class="cls-11" d="M418.84,1986.75s-7.09-152.28-62.57-329.35-128.67-325.81-9.44-351.78,133.39,180.8,141.65,274.55-13,406.58-13,406.58Z" transform="translate(452.45)"/><path d="M1319.78,2371c-43.41-4.31-66.22-19.18-71.11-49.38v0c-.07-.42-.14-.85-.2-1.28a85.56,85.56,0,0,1-.81-11.74c0-15.24,16.56-29.69,39.37-43.4h0q3.53-2.13,7.22-4.21c35-19.81,80.92-38.13,105.33-55.29,42.88-30.15,59.85-54.73,59.85-54.73,47.86,41.67,82.15,41.6,82.15,41.6-5.84,4.32-12.95,25.23-17.68,45.82-1.64,7.15-3,14.28-3.91,20.63-1.47,10.25-1.8,18.54-.34,21.9,4.56,10.5-126,81.69-185.65,89.61A62.85,62.85,0,0,1,1319.78,2371Z" transform="translate(452.45)"/><path class="cls-20" d="M1319.78,2371c-43.41-4.31-66.22-19.18-71.11-49.38v0c-.07-.42-.14-.85-.2-1.28a85.56,85.56,0,0,1-.81-11.74c0-15.24,16.56-29.69,39.37-43.4h0s55.81,17.31,55.22,69.29c-.11,10.54-2.56,22.5-8.25,36A62.85,62.85,0,0,1,1319.78,2371Z" transform="translate(452.45)"/><path class="cls-20" d="M1319.78,2371c-43.41-4.31-66.22-19.18-71.11-49.38,1.31,6.32,10.82,32.91,77.68,17.08,5.1-1.2,10.43-2.62,15.92-4.23,65.59-19.12,154.92-63.82,177.74-75.47-1.47,10.25-1.8,18.54-.34,21.9,4.56,10.5-126,81.69-185.65,89.61A62.85,62.85,0,0,1,1319.78,2371Z" transform="translate(452.45)"/><path class="cls-21" d="M1334.82,2240.26c6.93,3.45,13.38,8.27,17.76,14.74,2.37,3.5,2.28,5.78,2.76,9.68.41,3.34,2.68,6.63,6.42,6.42a6.58,6.58,0,0,0,6.19-4.71c2.22-9-3.21-17.66-9.81-23.33s-13.36-10.32-22.52-8.94c-2.85.43-3.26,4.92-.8,6.14Z" transform="translate(452.45)"/><path class="cls-21" d="M1367.41,2224.27c6.63,1.34,12.33,7.6,16.49,12.62a20.92,20.92,0,0,1,4.8,9c.7,3.41-.1,7,1,10.3a4.48,4.48,0,0,0,6.5,2.65c10.84-6.44,3.11-23.05-3.14-29.94-5.76-6.35-18.62-17.08-26.84-9.13a2.74,2.74,0,0,0,1.2,4.55Z" transform="translate(452.45)"/><path class="cls-21" d="M1400.25,2207.21c8.26-.13,14.84,6.5,18.12,13.63a28.88,28.88,0,0,1,2.66,11.66c0,4-1.24,7.93.9,11.53a5,5,0,0,0,6.73,1.77c5.45-3,5.52-10.89,4.94-16.35a39,39,0,0,0-6.19-17.46c-6.29-9.45-17.69-16.37-28.93-11.31-3.26,1.47-1.51,6.58,1.77,6.53Z" transform="translate(452.45)"/><path class="cls-21" d="M1428.69,2185.47c10.42-1.08,17.31,7.67,23.5,14.73,2.92,3.33,5.38,6.7,5.18,11.3-.16,3.83-1.73,7.21-2.09,11-.23,2.39,2.58,4.3,4.74,3.61,5.77-1.83,8.82-8.07,9-13.9.27-6.64-2.46-12.32-6.65-17.31-8.35-10-20.86-19.53-34.52-15.26-3,.94-2.69,6.19.79,5.83Z" transform="translate(452.45)"/><polygon class="cls-11" points="1316.53 1380.79 1316.53 1938.57 989.43 2054.91 989.43 1454 1316.53 1380.79"/><polygon class="cls-10" points="912.51 2029.43 912.51 1445.05 985.28 1457.5 985.28 2049.46 912.51 2029.43"/><path class="cls-22" d="M464.21,1450l64.47,11v583l-64.47-17.75V1450m-8.3-9.84v592.46L537,2054.91V1454l-81.08-13.87Z" transform="translate(452.45)"/><polygon class="cls-10" points="929.81 1439.58 1221.47 1374.39 1291.36 1382.16 989.33 1449.76 929.81 1439.58"/><path class="cls-22" d="M769.25,1378.59l44.49,5-277,62L498.83,1439l270.42-60.45m-.46-8.41-312.88,70L537,1454l327.09-73.22-95.29-10.6Z" transform="translate(452.45)"/><polygon class="cls-19" points="2519.07 1688.83 2468.91 1839.06 1856.96 1785.89 1013.59 1712.63 989.44 1647.21 1316.53 1580.18 1878.27 1630.93 2519.07 1688.83"/><polygon class="cls-22" points="2468.91 1781.28 2468.91 1889.71 1897.78 1833.41 989.44 1743.87 989.44 1647.21 1814.4 1721.96 2468.91 1781.28"/><path class="cls-23" d="M2066.63,1688.83l-50.17,150.23v50.65l-549.73-54.19c-4.16-.41-10.89-9.42-14.4-12.13-38.5-29.73-79.24-58.34-114.61-91.8-2.29-2.17-10.77-8.13-11.25-11.16-.75-4.74,14.08-13.72,17.69-16.74q19.38-16.18,38.31-32.9,11.05-9.76,21.93-19.73c3.17-2.9,17.8-20.45,21.42-20.13Z" transform="translate(452.45)"/><path class="cls-16" d="M2039.7,1708.2c-18.47,28.66-62.67,41.72-109.7,54.45-67.54,18.26-140.89,35.83-152.19,97.92h0c-.44,2.34-.77,4.75-1,7.23-2.55,25.77-14.13,58.2-30.51,92.93-55.89,118.47-167.6,263.86-167.6,263.86-68.54-14.08-152.1-74.17-152.1-74.17,12.65-52.73,89-227.58,126.56-312.11,12.42-27.93,20.59-46,20.84-46.55h0s-211.26-134.26-262-205.62-47.89-114.55,20.65-144.6c56.51-24.77,246.41,18.75,311.34,34.78h0c13.83,3.42,22,5.59,22,5.59s183.08,12.21,216.89,29.11S2085.7,1636.84,2039.7,1708.2Z" transform="translate(452.45)"/><path class="cls-24" d="M2039.7,1708.2c-18.47,28.66-62.67,41.72-109.7,54.45-.33-69.21-71.2-201.62-133.77-224.28-64.38-23.29-53.65-3-85.84,15.5-23.81,13.71-52.85-45.69-66.37-77.54,13.83,3.42,22,5.59,22,5.59s183.08,12.21,216.89,29.11S2085.7,1636.84,2039.7,1708.2Z" transform="translate(452.45)"/><path class="cls-11" d="M2372.3,1415.31V2062l-255.51,148.43s-41.35-385.92-41.35-503.6,12.56-208.63,34.83-222.42S2372.3,1415.31,2372.3,1415.31Z" transform="translate(452.45)"/><polygon class="cls-10" points="2473.07 1488.25 2473.06 1475.41 2700.38 1409.37 2805.16 1417.88 2568.81 1502.15 2473.07 1488.25"/><path class="cls-22" d="M2248.36,1413.57l84.76,6.89-217.18,77.43-91.17-13.24v-6.12l223.59-65m-.85-8.4-231.05,67.13v19.54l100.32,14.57,255.51-91.1-124.79-10.14Z" transform="translate(452.45)"/><polygon class="cls-10" points="2473.07 2189.16 2473.07 1496.64 2565.08 1510 2565.08 2205.43 2473.07 2189.16"/><path class="cls-22" d="M2024.77,1501.44l83.71,12.16v686.88l-83.71-14.81V1501.44m-8.3-9.6v700.8l100.32,17.75v-704l-100.32-14.57Z" transform="translate(452.45)"/><path class="cls-25" d="M1917.4,1051.56c-34.41,33.75-78.74,0-78.74,0s5.29-23.81,0-53.59a119.84,119.84,0,0,0-9.7-29.68,137.77,137.77,0,0,0-14.12-23.91l63.52-101.89s-1.13,23.78,10.23,62.44q1.38,4.68,3,9.67c14.55,44.34,56.89,78.74,56.89,78.74S1951.8,1017.82,1917.4,1051.56Z" transform="translate(452.45)"/><path class="cls-26" d="M1888.59,904.93c-4.16,13.46-10.29,26.45-18.83,36.8-15.1,18.32-29.74,24.77-40.8,26.56a137.77,137.77,0,0,0-14.12-23.91l63.52-101.89S1877.23,866.27,1888.59,904.93Z" transform="translate(452.45)"/><path class="cls-25" d="M1869.76,900.05C1840.65,945.7,1799,974.16,1741.4,957s-76.74-91.31-82-129.68c-2.14-15.51-1-30.81,1-43.53a171,171,0,0,1,8.22-31.89c16.51-31.15,61.77-41,107.73-38,51.67,3.38,104.23,23.1,117.89,47.26C1920,806.76,1898.87,854.4,1869.76,900.05Z" transform="translate(452.45)"/><path class="cls-27" d="M1857.61,819.13c-7.32-11.86-30.06-14-46.25-28.61s-50.48-9.24-93.64-1.54c-31.28,5.59-49.61-1.12-57.32-5.24a171,171,0,0,1,8.22-31.89c16.51-31.15,61.77-41,107.73-38a205,205,0,0,1,21.91,10.39c43.94,24.27,70.53,84,71.5,94.89S1864.94,831,1857.61,819.13Z" transform="translate(452.45)"/><path class="cls-21" d="M1976.33,1357.77c-19,110-37.8,204.34-43.71,210.51-14.56,15.22-157.47-57.55-227.61-68.14,0,0,51.61-172,48.31-240.17-1.37-28.15,4.15-66.25,11.76-102.71,10.8-51.78,25.81-100.28,31.24-112.32,9.26-20.5,43.29-37.16,44.26-31.58a43.9,43.9,0,0,1,.49,6.14,17.51,17.51,0,0,0,12.79,16.29c9.66,2.74,24.19,3.52,41.7-6.1,32.43-17.83,35-44.13,35-53.48s10-.74,21.88,5.22,50.28,18.53,68.8,20.51C2032.27,1003.11,2004.1,1197.12,1976.33,1357.77Z" transform="translate(452.45)"/><path class="cls-28" d="M1976.33,1357.77c-19,110-37.8,204.34-43.71,210.51-14.56,15.22-157.47-57.55-227.61-68.14,0,0,51.61-172,48.31-240.17-1.37-28.15,4.15-66.25,11.76-102.71l28.76-90.7s15.15,257.38,149.38,281.75A175.44,175.44,0,0,1,1976.33,1357.77Z" transform="translate(452.45)"/><path class="cls-29" d="M1722.88,665.84s-25.8,4-45.65-12.58-55.58-11.24-43.67,22.5,24.65,35.07,24.65,35.07-33.25-20.16-40.53,2.49,17.2,61,74.1,45.14c0,0-16.54,24.48,35.73,19.19s79.4-13.89,79.4-13.89,5.95,29.11,31.09,35.72,25.81,30.44,31.1,21.18-7.28-37.06,17.86-37.72,11.16,62.35,11.16,62.35l-16,34.15,9.43,35.17s7.28,9.92,19.85-5.3c0,0-20.42-12.57-5.58-47s30.72-97.26-15.59-156.15S1784.41,644.66,1722.88,665.84Z" transform="translate(452.45)"/><path class="cls-30" d="M1814.84,1014.14S1800,1142,1794.71,1194.65s-21.45,276.79-89.7,343.72c0,0-48.69-39.1-52.45-63.17,0,0,23.32-6,36.86-39.11,0,0-74.46,0-83.49-57.92,0,0,69.19-41.36,70-72.21.3-12.44,10.41-48.75,23.85-89.68,19.84-60.46,46.93-131,60.39-149.72C1782.68,1035.19,1815.52,1008.3,1814.84,1014.14Z" transform="translate(452.45)"/><path class="cls-31" d="M1706.85,1363.49c-7,45.36-17.43,72.6-17.43,72.6s-74.46,0-83.49-57.92c0,0,69.19-41.36,70-72.21.3-12.44,10.41-48.75,23.85-89.68,5.74-7.79,11.19-14,14.79-15.61C1725.74,1195.81,1713.83,1318.12,1706.85,1363.49Z" transform="translate(452.45)"/><polygon class="cls-32" points="2018.17 1304.96 2036.62 1289.89 2076.33 1279.3 2172.53 1364.42 2177.01 1386.82 2018.17 1304.96"/><polygon class="cls-15" points="2018.17 1304.96 2127.32 1403.92 2177.01 1386.82 2071.45 1292.69 2018.17 1304.96"/><path class="cls-33" d="M1661.89,1386.48c-.72-3.17-2.65-5.41-4.93-5.91a8.77,8.77,0,0,0-6.27.91,13.34,13.34,0,0,0-.36-4.84c-1-4.15-3.87-7.06-7.2-7.72a14.13,14.13,0,0,0-8.22.77,8.75,8.75,0,0,0,1.34-3,10.29,10.29,0,0,0-.42-5.25,11.54,11.54,0,0,0-9.32-7.72,23.55,23.55,0,0,0-14.09,2.17c3.3-2.45,5.86-5.36,6.41-8a10.25,10.25,0,0,0-.41-5.24,11.57,11.57,0,0,0-9.32-7.72c-5.09-.78-12.81-.34-20.26,6.41-12.63,11.44,3.55,20.91,10.85,20.12a24.62,24.62,0,0,0,8.41-2.84c-.61.47-1.23,1-1.84,1.53-12.63,11.44,3.55,20.91,10.85,20.12a25.32,25.32,0,0,0,9-3.15c-7,10.6,4.43,19,9.76,18.29a17.9,17.9,0,0,0,7.94-3.89c-.31,5.77,5.27,9.79,8.18,9.34,3.86-.61,9.49-6,10.12-10.4A11.09,11.09,0,0,0,1661.89,1386.48Z" transform="translate(452.45)"/><path class="cls-26" d="M1606.35,1360.4l4.24-2.57c.64-.38,1.29-.75,1.9-1.16s1.45-1,1.56-1.74a.75.75,0,0,0-1.09-.84,4.13,4.13,0,0,0-.78.67c-.23.19-.46.37-.7.54-.61.44-1.25.85-1.87,1.28l-3.95,2.65c-.72.48-.07,1.63.69,1.17Z" transform="translate(452.45)"/><path class="cls-26" d="M1625.81,1378.12a66.49,66.49,0,0,0,5.68-4.24,30.4,30.4,0,0,0,2.4-2,6.88,6.88,0,0,0,1.9-2.58.86.86,0,0,0-1.42-.83c-.33.34-.58.74-.88,1.11a13.4,13.4,0,0,1-1,1.1c-.74.71-1.51,1.36-2.28,2-1.71,1.48-3.5,2.88-5.09,4.48-.47.48.14,1.31.72.94Z" transform="translate(452.45)"/><path class="cls-26" d="M1644.66,1391.68a33.9,33.9,0,0,0,4.36-5,21.41,21.41,0,0,0,1.41-2.63c.23-.47.45-.94.7-1.41s.55-.9.78-1.37a1,1,0,0,0-.24-1.21.93.93,0,0,0-1.23.08,11.6,11.6,0,0,0-1.51,2.71,28.08,28.08,0,0,1-1.38,2.74,24.17,24.17,0,0,1-1.77,2.51c-.72.92-1.34,1.92-2,2.89-.36.53.44,1.12.88.68Z" transform="translate(452.45)"/><path class="cls-25" d="M1825.21,1429.58c-.44,1.34-54.82-18.72-66.41-19.15-10.31-.4-41.43.61-62.61-7a54.9,54.9,0,0,1-7.35-3.25c-20.51-11.14-17.84-21.83-27.64-30.75s-28.52-22.28-20.5-24.07c4.23-.94,19.37-.52,34.84-.1,13.88.37,28,.74,34.85.1,14.43-1.34,14.17-8.65,14.17-8.65-8.47-20.5.3-32.41,7.43-38.2s4.08,10.75,14.8,29.92,12,25.85,16.48,35.2,54.37,11.14,54.37,11.14C1821.2,1395.27,1825.66,1428.25,1825.21,1429.58Z" transform="translate(452.45)"/><path class="cls-30" d="M2102.9,1459.65c-23.58,36.67-86.44,31.42-86.44,31.42v165s-115.89-36.66-124.41-51.73,15.07-132.92,15.07-132.92-24.23-5.23-49.76-7.86-22.93-24.87-22.93-24.87c-7.19.65-25.53-3.28-25.53-3.28,3.93-7.85,5.94-66.13,5.94-66.13s22.87,8.51,32.7-2.62,74,2.62,74,2.62,29.47-176.14,37.32-231.14,32.09-149.29,32.09-149.29c-5.71-7.87,44.25,14.46,90,44.08,49.28,31.9,74.35,69.85,75.66,165.46S2126.47,1423,2102.9,1459.65Z" transform="translate(452.45)"/><path class="cls-24" d="M1444.1,1487.39c-5.56.37-5.82,8.41-.29,9.1,27.83,3.49,70.59,12.1,106.71,33.31,59.15,34.74,136.14,100.47,136.14,100.47s36.62-32.87,28.17-47C1707.29,1570.75,1536.78,1481.19,1444.1,1487.39Z" transform="translate(452.45)"/><path class="cls-34" d="M1777.81,1860.57h0c-.44,2.34-.77,4.75-1,7.23-2.55,25.77-14.13,58.2-30.51,92.93-6.42-19-17.57-46.57-41.27-80.36-37.19-53-110.55-49.29-151.87-42.06,12.42-27.93,20.59-46,20.84-46.55h0s16.76,11.53,25.32,17c0,0,44.71-22.64,71.08-50.25C1695.6,1732.11,1777.81,1860.57,1777.81,1860.57Z" transform="translate(452.45)"/><path class="cls-35" d="M1921.52,1369.29s73.7,8.17,91.24,11.06,31.28-57.9,39.67-109.12,1-87.08-4.86-73.35-12.48,152.53-37.86,165.61-86.15-6.43-86.15-6.43Z" transform="translate(452.45)"/><path class="cls-35" d="M1992,1020l-8.43,34.51-4,16.3c-1.34,5.46-3.66,11.42-3.6,17.06,0,2.29,3.31,3.35,4.44,1.2,2.5-4.7,3.19-10.62,4.44-15.78l4.19-17.26,8.39-34.53c.85-3.53-4.59-5-5.45-1.5Z" transform="translate(452.45)"/><path class="cls-35" d="M2057.47,1157.93a103.78,103.78,0,0,1,13-42.7,189.7,189.7,0,0,1,11.52-17.62c3.83-5.35,9.43-11,11.66-17.17.77-2.16-1.95-4-3.79-2.91-6,3.62-10.81,11.33-14.82,17a143.22,143.22,0,0,0-11.63,19.6c-6.63,13.55-11.29,28.57-10.1,43.78a2.1,2.1,0,0,0,4.19,0Z" transform="translate(452.45)"/><path class="cls-36" d="M1696.19,1403.42a54.9,54.9,0,0,1-7.35-3.25c-20.51-11.14-17.84-21.83-27.64-30.75s-28.52-22.28-20.5-24.07c4.23-.94,19.37-.52,34.84-.1C1679.62,1359.49,1688.23,1387.91,1696.19,1403.42Z" transform="translate(452.45)"/><path class="cls-26" d="M1880.3,802.89c-3,5.41-2.6,11.49-1.79,17.45.59,4.34,6.39,7.09,10.28,5.83a8.54,8.54,0,0,0,5.84-10.27c-1-4.47-1.89-9.11-4.33-13-2.25-3.59-7.83-3.91-10,0Z" transform="translate(452.45)"/><path class="cls-29" d="M1849.86,689.1c9.74.69,19.17-7.18,24.62-14.46,5.86-7.83,12.41-23.32,2.74-30.54a6,6,0,0,0-6.29,0c-6.63,4.66-5.88,15-9.9,21.68-3.77,6.31-9.84,9.39-14.88,14.35-3.44,3.37-.67,8.66,3.71,9Z" transform="translate(452.45)"/><path class="cls-29" d="M1866.41,694.23c5.07,2.3,10.37,3.91,15.91,2.25,4.88-1.46,8.78-5.07,8.32-10.45-.22-2.49-2.35-4.53-5-3.78-5.37,1.51-9.34,3.51-15.12,2.2-5.6-1.27-9.92,7.16-4.13,9.78Z" transform="translate(452.45)"/><path class="cls-14" d="M1834.89,1436.47c2.18-6.72,3-14.18,3.77-21.17.7-6.11,1.83-14.32-2-19.63a2.22,2.22,0,0,0-4,.52c-1.71,5.91-.64,13-1.12,19.11-.52,6.78-1.55,13.78-1,20.59a2.21,2.21,0,0,0,4.31.58Z" transform="translate(452.45)"/><path class="cls-31" d="M2016.46,1491.07v165s-115.89-36.66-124.41-51.73,15.07-132.92,15.07-132.92Z" transform="translate(452.45)"/><path class="cls-35" d="M2011.42,1381.3c5.45,1.84,11.32,2.69,16.58,5.09,4.09,1.87,8.38,7,13,6.47a4.31,4.31,0,0,0,4.14-4.13c.71-6.18-7.56-10-12.32-11.79a42.2,42.2,0,0,0-20.47-2.62c-3.86.48-5,5.62-.94,7Z" transform="translate(452.45)"/><path class="cls-28" d="M1886.85,1047.34a79.05,79.05,0,0,0,40.45-21.51,70.2,70.2,0,0,0,13-17.31c2.49-4.77,8-14.59,4.23-19.62-1-1.36-3-2.39-4.66-1.22-4.59,3.28-4.35,10.85-6.54,15.84a60.41,60.41,0,0,1-11.45,16.87c-9.91,10.49-22.74,17.59-36.33,22.16a2.49,2.49,0,0,0,1.32,4.79Z" transform="translate(452.45)"/><path d="M1877.39,1916.87c-8.09,42.87-24.89,64.28-55.4,66.52h0l-1.29.08a85.23,85.23,0,0,1-11.77-.22c-15.18-1.29-28.12-19.09-39.79-43v0q-1.8-3.69-3.56-7.56c-16.67-36.59-30.91-83.94-45.87-109.76-26.29-45.35-49.29-64.41-49.29-64.41,45.7-44,48.63-78.19,48.63-78.19,3.79,6.19,24,15.1,44.09,21.61,7,2.26,14,4.24,20.21,5.7,10.08,2.37,18.32,3.42,21.78,2.25,10.86-3.62,70.37,132.67,73,192.78A63.08,63.08,0,0,1,1877.39,1916.87Z" transform="translate(452.45)"/><path class="cls-20" d="M1877.39,1916.87c-8.09,42.87-24.89,64.28-55.4,66.52h0l-1.29.08a85.23,85.23,0,0,1-11.77-.22c-15.18-1.29-28.12-19.09-39.79-43v0s22.12-54.08,73.86-49c10.48,1,22.18,4.51,35.17,11.37A63.08,63.08,0,0,1,1877.39,1916.87Z" transform="translate(452.45)"/><path class="cls-20" d="M1877.39,1916.87c-8.09,42.87-24.89,64.28-55.4,66.52,6.4-.75,33.73-7.9,23.8-75.89-.76-5.19-1.7-10.62-2.82-16.23-13.32-67-50-159.91-59.65-183.66,10.08,2.37,18.32,3.42,21.78,2.25,10.86-3.62,70.37,132.67,73,192.78A63.08,63.08,0,0,1,1877.39,1916.87Z" transform="translate(452.45)"/><path class="cls-21" d="M1748.61,1890.21c4.12-6.7,9.61-12.63,16.57-16.42,3.75-2,6-1.32,10-1.61a6.43,6.43,0,0,0,1.71-12.62c-8.37-2.85-17.49,2-23.4,7.73-6.13,5.92-11.66,12.29-11.1,21.23a3.39,3.39,0,0,0,6.26,1.69Z" transform="translate(452.45)"/><path class="cls-21" d="M1735.45,1856.37c1.91-6.45,9-11.84,14.4-15.39a20.47,20.47,0,0,1,9.33-3.77c3.48-.33,6.84.7,10.27-.11,3-.7,3.84-4,2.65-6.51-5.48-11.3-23.25-4.4-30.32,1.22-6.88,5.48-18.14,16.75-10.89,25.76,1.35,1.67,4,.59,4.56-1.2Z" transform="translate(452.45)"/><path class="cls-21" d="M1721.27,1822.08c.55-7.8,7.56-13.64,14.45-16.3a29.62,29.62,0,0,1,11-2c4,.07,8.45,2.1,12.3.48,3-1.27,4.49-4.09,2.94-7.22-2.7-5.45-10.61-6.13-16-6a39.78,39.78,0,0,0-17.86,4.83c-9.41,5.08-17.55,16-13.68,27.09a3.53,3.53,0,0,0,6.89-.93Z" transform="translate(452.45)"/><path class="cls-21" d="M1702.09,1791.89c-.15-10.18,9.21-16.52,16.65-21.83,3.57-2.55,7-4.74,11.59-4.27,3.67.38,6.72,2.34,10.29,3a3.8,3.8,0,0,0,4.61-4.61c-1.33-6-7.8-9.33-13.49-9.94-6.69-.71-12.66,1.67-18,5.63-10.46,7.81-20.61,18.74-17.53,32.81.72,3.29,5.88,2.54,5.83-.79Z" transform="translate(452.45)"/><path class="cls-24" d="M1682,1624.38c6.24,7.28,13.08,14,19.4,21.23q4.88,5.58,9.3,11.53c2.67,3.61,4.9,8.15,8.29,11.09,2.06,1.79,5.67.12,4.8-2.79-1.35-4.54-5-8.64-7.77-12.41-3-4-6-7.83-9.24-11.57-6.53-7.58-13.89-14.83-22.42-20.14-2-1.23-3.73,1.45-2.36,3.06Z" transform="translate(452.45)"/><path class="cls-24" d="M1719.93,1667.37c-2,2.35-1.94,5.79-2.25,8.78-.33,3.16-1.28,6.29.86,8.9,1,1.18,2.7.82,3.71,0,2.31-1.85,2-5.62,2.19-8.36s.84-6.36-.69-8.83c-.76-1.23-2.78-1.74-3.82-.49Z" transform="translate(452.45)"/><path d="M1677,847.64c-2,4.87-.8,10.45.6,15.37a6,6,0,0,0,7.29,4.14c2.8-.77,5.36-4.31,4.14-7.29-1.64-4-2.12-8.27-3.77-12.22s-6.61-4.09-8.26,0Z" transform="translate(452.45)"/><path d="M1764.68,836.29a31.78,31.78,0,0,0,.94,8.27c.72,2.63,1.26,6.17,2.88,8.39,1.51,2.06,3.81,3.33,6.43,2.61,2.28-.62,4.37-3,4.18-5.49-.43-5.67-4.72-10.75-6.91-15.82-1.65-3.82-7.55-1.7-7.52,2Z" transform="translate(452.45)"/><path d="M1665.52,828.87a32.32,32.32,0,0,1,7.72-2.75c2.36-.51,4.7-.55,6.91-1.55,1.49-.68.93-2.88-.43-3.29-5.11-1.56-11.73,1.92-16,4.56a1.75,1.75,0,0,0,1.76,3Z" transform="translate(452.45)"/><path d="M1759.47,815.12c4.35-1.06,8.77-.5,13.08.53,2.06.49,3.54-2.52,1.5-3.56-5-2.53-10.32-2.39-15.56-.54a1.85,1.85,0,0,0,1,3.57Z" transform="translate(452.45)"/><path d="M1718.44,868.21c-1,4.76-.65,9.83,2.41,13.81,2.23,2.91,7.67,7.36,11.43,4.69a2,2,0,0,0,.4-3.06c-2-2.25-5.4-2.24-7.49-4.67a14.81,14.81,0,0,1-3.21-10.29c.07-2-3.09-2.48-3.54-.48Z" transform="translate(452.45)"/><path d="M1730.88,919.61c14,2.59,28,.72,40.53-6.24a60.54,60.54,0,0,0,15-11.89c3.53-3.85,8.71-9.13,8.58-14.66a1.82,1.82,0,0,0-2.71-1.56c-4.32,2.73-6.55,8.37-10,12.13a59.88,59.88,0,0,1-13.07,10.83,62,62,0,0,1-38,8.43c-1.68-.17-2.07,2.65-.4,3Z" transform="translate(452.45)"/><path class="cls-37" d="M1780,851.29a16.19,16.19,0,0,0-4.33,16.83A15,15,0,0,0,1782,876a19.78,19.78,0,0,0,10.59,2.48,21,21,0,0,0,11.64-3.61,18.73,18.73,0,0,0,7.26-13.28C1813.27,846.34,1790.29,841.48,1780,851.29Z" transform="translate(452.45)"/><path class="cls-19" d="M397,1981.65c7.3,8.47-56.73-183.78-180.33-195.58s-69.31,78.61,8.6,103.64S365.71,1969,372.8,1991.47,397,1981.65,397,1981.65Z" transform="translate(452.45)"/><path class="cls-22" d="M351.59,1997.4a145.94,145.94,0,0,1-42.87-17.71c-5.74-3.56-39.12-25.81-29.05-34,5.91-4.81,17.4.75,22.66,4,7,4.36,13.26,10.12,19.4,15.64q9.5,8.54,18.44,17.67c5.4,5.51,10.84,13,18.37,15.61,1.89.65,3.44-1.32,3-3.05-1.67-7.56-8.72-13.44-14-18.68q-8.76-8.67-18.06-16.77c-10.91-9.53-23.31-21.46-38.15-24-5.95-1-13.32-.89-18,3.49s-5,11.47-2.48,17.15c2.89,6.42,8.9,11.52,14.14,16A143.1,143.1,0,0,0,303.1,1986a131.92,131.92,0,0,0,46.71,17.83c4.18.74,6.05-5.45,1.78-6.47Z" transform="translate(452.45)"/><path class="cls-11" d="M307,1637.22c-30.23-28.73-60.26-63.17-67.21-105.73-1.4-8.56-3.12-20.21.94-28.33,5.33-10.64,17.17.16,22.17,5.6,12.48,13.56,17.18,32.47,21.42,49.9,6.15,25.25,10.53,51.61,20.73,75.59,1.7,4,8.65,2,8.25-2.23-1.32-13.84-4.83-27-8.28-40.39q-4.83-18.8-10.08-37.47c-5.53-19.54-13-40.26-28.14-54.53-6.89-6.5-17.2-13.54-26.82-8.33-7.95,4.3-10.08,14.18-10.27,22.5-.55,23.1,7.39,46.4,19.19,66,14.23,23.66,34,42.81,54.18,61.33,2.62,2.41,6.52-1.45,3.92-3.92Z" transform="translate(452.45)"/><path class="cls-22" d="M419.91,1930.28c-.12-.29-12.14-29.6-36.84-69.36-22.79-36.68-61.34-90-115.58-135.81s-114.83-62.69-156.21-68.88c-44.83-6.71-77.22-2.55-77.54-2.51l-.41-3.09c.33,0,33.15-4.25,78.41,2.52,41.78,6.25,103.07,23.39,157.76,69.58s93.34,99.72,116.25,136.61c24.83,40,36.93,69.47,37.05,69.76Z" transform="translate(452.45)"/><path class="cls-19" d="M2333.5,2084.5s-8.62,50.18,38.8,125.89S2511.41,2289,2539.71,2251s-15.61-134.63-72.2-158-95.21-31-95.21-31Z" transform="translate(452.45)"/><path class="cls-19" d="M2333.5,2084.5s-35.74-179.87,65.72-295,226.34-134.63,248.78-70.24-248,134.63-275.7,254.63c0,0-11.25,33.83-10.21,94Z" transform="translate(452.45)"/><path class="cls-10" d="M2351.63,2074s20.27-126.4,164.66-116.64,95,93.23,46.25,116.64S2418.18,2035.08,2351.63,2074Z" transform="translate(452.45)"/><path class="cls-38" d="M2351.63,2074s20.27-126.4,164.66-116.64,95,93.23,46.25,116.64S2418.18,2035.08,2351.63,2074Z" transform="translate(452.45)"/><path class="cls-22" d="M2346.34,2079.89c5.4,5.93,12.55,10.57,18.72,15.68s12,10.17,17.83,15.45q18.15,16.42,35.16,34.06c22.31,23.14,43.57,47.56,63.46,72.81,11.45,14.53,22.55,29.31,33.87,43.93,3.16,4.09,8.93-1.66,5.71-5.71-20.22-25.42-40.76-50.69-61.83-75.42s-43.37-49.11-67.67-71q-10.08-9.06-20.59-17.63c-6.77-5.5-13.89-12.13-21.82-15.87a2.35,2.35,0,0,0-2.84,3.67Z" transform="translate(452.45)"/><path class="cls-22" d="M2357.68,2066.72c6.36-4.51,11.16-11,16.5-16.59a136.2,136.2,0,0,1,18.58-16.86c14.61-10.58,32.7-14.93,49.9-19.46,35.31-9.29,72.42-14.5,108.82-9.21,9.28,1.35,19,2.67,28.08,5a132.2,132.2,0,0,1,29.15,11.5c2.26,1.21,4.28-2.25,2-3.45-8-4.18-16.27-7.41-24.56-10.88a130.11,130.11,0,0,0-25.68-8.18,220.54,220.54,0,0,0-55.79-3,331.89,331.89,0,0,0-56.73,9.06c-17.68,4.31-36.93,8.58-52.59,18.23a115.2,115.2,0,0,0-21.9,18.17c-6.63,6.82-14.33,14.15-18.86,22.59-1,1.82,1.13,4.43,3.07,3.06Z" transform="translate(452.45)"/><path class="cls-22" d="M2344.72,2074.28a144.72,144.72,0,0,1-4.58-28,229.65,229.65,0,0,1-.27-28.5,279.47,279.47,0,0,1,3-28.39c1.48-9.41,3.56-18.72,5.93-27.95.62-2.3,1.19-4.61,1.86-6.9l2-6.86c.67-2.29,1.48-4.53,2.21-6.8s1.5-4.52,2.34-6.75l2.45-6.72,2.63-6.64,1.32-3.33,1.41-3.28,2.83-6.57c4-8.67,8.15-17.23,12.71-25.59l3.42-6.28c1.18-2.07,2.42-4.12,3.62-6.18s2.39-4.15,3.7-6.15l3.89-6a310.45,310.45,0,0,1,35.91-44.57c3.26-3.48,6.77-6.72,10.18-10.06,1.72-1.65,3.51-3.23,5.27-4.84s3.51-3.23,5.34-4.76c7.14-6.31,14.68-12.16,22.32-17.83s15.58-10.94,23.66-16,16.38-9.65,24.81-14,17-8.37,25.8-12a248,248,0,0,1,26.74-9.54c-4.43,1.63-8.78,3.49-13.09,5.4s-8.59,3.9-12.82,6c-8.46,4.16-16.79,8.57-24.92,13.3a412,412,0,0,0-46.76,31.37,365.25,365.25,0,0,0-41.56,37.71l-4.79,5.13-4.63,5.26-2.32,2.63c-.76.88-1.48,1.8-2.23,2.7l-4.44,5.42c-1.48,1.8-2.85,3.7-4.28,5.55s-2.86,3.68-4.2,5.6l-4,5.73-2,2.87-1.91,2.93a384.62,384.62,0,0,0-27.15,49.08,373.78,373.78,0,0,0-19.86,52.5,302.54,302.54,0,0,0-10.88,55.1,244.74,244.74,0,0,0-1.27,28.14c.07,4.7.28,9.41.69,14.1A116.28,116.28,0,0,0,2344.72,2074.28Z" transform="translate(452.45)"/><path class="cls-22" d="M2550.94,1872.16c-2.77-3.85-8.29-4.22-13-3.94-43.87,2.63-85,32.21-101.48,73l8-2.61a634.19,634.19,0,0,1,68.32-28.23c15.42-5.34,33-11.9,38.62-27.22C2552.74,1879.53,2553.16,1875.24,2550.94,1872.16Z" transform="translate(452.45)"/><path class="cls-22" d="M2460.32,1658.83c-.87-3.7-2.87-7.52-6.42-8.88-4.43-1.69-9.25,1-13.05,3.87-35.2,26.3-53.33,73.61-44.71,116.7l5.29-6.6A635,635,0,0,1,2443,1702.8C2453,1689.86,2464.06,1674.72,2460.32,1658.83Z" transform="translate(452.45)"/><rect class="cls-10" x="948.89" y="4.98" width="953.92" height="332.25" rx="56.09"/><path class="cls-15" d="M1394.27,337.7q-77.37,0-154.74.73l-77.38.85-77.37.93c-25.79.26-51.58.59-77.37.74l-38.69.27-38.69.16q-38.68.12-77.37,0c-25.79,0-51.58-.17-77.37-.27q-77.38-.47-154.75-1.32l-38.69-.34-19.34-.16-9.67-.08c-1.65-.06-3.33-.18-5-.27l-1.25-.08-1.23-.2-2.47-.39a59.06,59.06,0,0,1-18.71-6.71,56.14,56.14,0,0,1-15.3-12.64A57.79,57.79,0,0,1,495,282.52c-.11-25.86.1-51.6,0-77.41l-.16-77.37-.16-38.69-.11-19.34,0-4.84,0-2.42c0-.8,0-1.61,0-2.45.08-1.66.13-3.33.24-5l.72-5a58.06,58.06,0,0,1,37.24-44,60.2,60.2,0,0,1,19.76-3.64L707.29,1.24,862,.57,1016.78.1l77.37-.1h77.38l77.37.2c25.79.06,51.58.11,77.37.29L1365,.7l19.34.18L1394,1c1.68.07,3.43.19,5.14.29l1.3.08,1.27.2,2.56.41a59.09,59.09,0,0,1,35.07,20.13,60.28,60.28,0,0,1,10.32,17.61,56.58,56.58,0,0,1,3.73,20l-1.73,154.82-.33,38.68-.12,19.35c0,3.22,0,6.43-.12,9.68-.1,1.63-.17,3.26-.29,4.89l-.77,4.84a58.25,58.25,0,0,1-7,18.14,56,56,0,0,1-29.58,24.28A58.15,58.15,0,0,1,1394.27,337.7Zm0-.93a57.41,57.41,0,0,0,18.78-3.35,55,55,0,0,0,35.6-41.76l.69-4.72c.09-1.59.14-3.18.22-4.77.08-3.19,0-6.44,0-9.65l-.13-19.35-.33-38.68-.86-77.38-.47-38.68-.23-19.35-.12-9.67-.06-4.84c0-1.58,0-3.28-.12-4.76a50.67,50.67,0,0,0-3.76-17.75A53.19,53.19,0,0,0,1434,26.71a52.26,52.26,0,0,0-31-17l-2.23-.31-1.11-.17-1.12,0L1394,9l-9.68.08L1365,9.27l-38.69.21c-25.79.18-51.58.23-77.37.29l-77.37.2h-77.38l-77.37-.1L862,9.4,707.29,8.73,552.54,7.54A55.5,55.5,0,0,0,534.4,10.6a54,54,0,0,0-35,40.2l-.73,4.61-.28,4.66c-.06.77-.07,1.57-.07,2.38v2.42l0,4.84-.12,19.34L498,127.74c-.17,51.56-.27,103.2,0,154.71.1,1.56.12,3.13.29,4.69l.72,4.65c.33,1.53.78,3,1.16,4.55.11.38.19.76.31,1.14l.41,1.1.82,2.2a55.27,55.27,0,0,0,9.71,16,53.75,53.75,0,0,0,32.08,17.78l2.31.33L547,335l1.16.05c1.56.06,3.1.14,4.68.18l9.67-.08,19.34-.15,38.69-.35q77.37-.75,154.75-1.31c25.79-.1,51.58-.29,77.37-.27s51.58-.07,77.37,0l38.69.15,38.69.28c25.79.15,51.58.47,77.37.73l77.37.93,77.38.85Q1316.9,336.75,1394.27,336.77Z" transform="translate(452.45)"/><circle class="cls-30" cx="1125.77" cy="183.7" r="96.73"/><circle class="cls-10" cx="1125.77" cy="183.7" r="75.25"/><path class="cls-30" d="M666.82,130.09c-1.94,4.67-1.44,10.49-1.57,15.48l-.41,15.84c-.25,9.62-2.94,21.77,4.21,29.4a5.25,5.25,0,0,0,7.35,0c7.15-7.63,4.45-19.78,4.2-29.4l-.41-15.84c-.12-5,.37-10.81-1.57-15.48-2.4-5.76-9.39-5.77-11.8,0Z" transform="translate(452.45)"/><path class="cls-30" d="M705.44,200.28a101,101,0,0,0-15.58-10.91c-2.6-1.53-5.26-3-7.78-4.73-3.51-2.35-5.45-4.43-10-4.4-5.27,0-8.87,6-6.08,10.59,3.42,5.68,12.06,7.54,18,10a63.71,63.71,0,0,0,19.12,4.92c2.73.25,4.3-3.72,2.27-5.49Z" transform="translate(452.45)"/><path class="cls-11" d="M825.9,142.87a56.75,56.75,0,0,0,9,5c1.08.51,8.25,4.24,4.66,2.27,1.5.82,2.94,1.79,4.46,2.59,9.09,4.8,21,4.43,31.12,4.86,15.94.69,31.87,1.38,47.82,1.86q47.84,1.42,95.63,1.4h189.27c17.93,0,35.86,0,53.79-.24,4.34-.07,8.62-.41,13-.8,5.66-.5,12.23-.37,17.68-1.87a37.84,37.84,0,0,0,9-4.27l3-1.72c-2,1.14-1.87,1.37.49.7,6.1.24,11.58-4.22,15.93-7.86,6.18-5.18,6.16-17.28,0-22.44-4.33-3.63-8.44-6.36-14-7.55-.44-.1-6.86-1-2.4.38-1.51-.47-3.08-1.82-4.47-2.57-9.45-5.15-21.49-5.13-32.17-5.9-15.83-1.16-32-.42-47.82-.42h-95.63c-63.08,0-126.21-.83-189.27,1q-26.91.8-53.79,2c-10,.43-20,.61-29.88,2.6a31.24,31.24,0,0,0-8.7,3.4c-1,.62-2,1.19-3,1.71q3.67-1.36-3.17,1.4a67.51,67.51,0,0,0-10.52,5.85c-6.91,4.9-6.91,13.74,0,18.63Z" transform="translate(452.45)"/><path class="cls-11" d="M851,243.86c4.23,1.45,8.36,3.29,12.62,4.6,5.36,1.64,11.17,1.78,16.74,2.3,9.25.86,18.51,1,27.78,1.32s18.49.59,27.78.19a54.47,54.47,0,0,0,9.6-.92c3.56-.79,6.59-2.79,10-3.8-3,.87,2.23-.21,2.7-.37,3.86-1.29,6.56-3.61,9.63-6.11,5.59-4.56,5.57-15.73,0-20.27-3.07-2.49-5.76-4.85-9.63-6.12-.3-.09-5.71-1-2.7-.37-3.47-.75-6.44-3.15-10-3.79a71.72,71.72,0,0,0-9.6-.93c-9.28-.39-18.49-.09-27.78.2s-18.53.46-27.78,1.32c-5.58.52-11.35.69-16.74,2.3-4.27,1.28-8.39,3.15-12.62,4.6a13.53,13.53,0,0,0,0,25.85Z" transform="translate(452.45)"/><rect class="cls-10" x="948.89" y="429.96" width="953.92" height="332.25" rx="56.09"/><path class="cls-13" d="M1394.27,762.68q-77.37-.06-154.74.73l-77.38.85-77.37.93c-25.79.26-51.58.58-77.37.73l-38.69.28-38.69.16q-38.68.12-77.37,0c-25.79,0-51.58-.17-77.37-.28q-77.38-.45-154.75-1.31l-38.69-.35-19.34-.15-9.67-.08c-1.65-.07-3.33-.18-5-.28l-1.25-.07-1.23-.2-2.47-.39a59.06,59.06,0,0,1-18.71-6.71,56.32,56.32,0,0,1-15.3-12.64A57.79,57.79,0,0,1,495,707.5c-.11-25.86.1-51.61,0-77.41l-.16-77.38L494.7,514l-.11-19.35,0-4.83,0-2.42c0-.8,0-1.61,0-2.45.08-1.67.13-3.33.24-5l.72-5a58.06,58.06,0,0,1,37.24-44,60.2,60.2,0,0,1,19.76-3.64l154.75-1.2L862,425.55l154.75-.47,77.37-.1h77.38l77.37.19q38.68.09,77.37.29l38.69.22,19.34.17,9.68.09c1.68.07,3.43.19,5.14.29l1.3.08,1.27.2,2.56.41A59.07,59.07,0,0,1,1439.32,447a60.33,60.33,0,0,1,10.32,17.62,56.58,56.58,0,0,1,3.73,20l-1.73,154.81-.33,38.69-.12,19.34c0,3.23,0,6.44-.12,9.69-.1,1.63-.17,3.26-.29,4.89l-.77,4.83a58.21,58.21,0,0,1-7,18.15,56,56,0,0,1-29.58,24.28A58.15,58.15,0,0,1,1394.27,762.68Zm0-.93a57.41,57.41,0,0,0,18.78-3.35,55,55,0,0,0,35.6-41.76l.69-4.72c.09-1.59.14-3.18.22-4.77.08-3.19,0-6.44,0-9.66l-.13-19.34-.33-38.69-.86-77.37-.47-38.69-.23-19.34-.12-9.67-.06-4.84c0-1.59,0-3.28-.12-4.76a50.67,50.67,0,0,0-3.76-17.75,53.19,53.19,0,0,0-9.51-15.35,52.21,52.21,0,0,0-31-17l-2.23-.32-1.11-.16-1.12,0L1394,434l-9.68.08-19.34.18-38.69.21c-25.79.18-51.58.23-77.37.29l-77.37.2h-77.38l-77.37-.1L862,434.38l-154.74-.67-154.75-1.19a55.5,55.5,0,0,0-18.14,3.06,53.94,53.94,0,0,0-35,40.2l-.73,4.61-.28,4.66c-.06.77-.07,1.57-.07,2.38v2.42l0,4.83L498.19,514,498,552.71c-.17,51.57-.27,103.21,0,154.71.1,1.57.12,3.14.29,4.7l.72,4.65c.33,1.53.78,3,1.16,4.55.11.38.19.76.31,1.13l.41,1.1.82,2.21a55.09,55.09,0,0,0,9.71,15.94,53.71,53.71,0,0,0,32.08,17.79l2.31.33L547,760l1.16,0c1.56.05,3.1.14,4.68.18l9.67-.08,19.34-.15,38.69-.35q77.37-.75,154.75-1.31c25.79-.11,51.58-.29,77.37-.28s51.58-.06,77.37,0l38.69.16,38.69.28c25.79.15,51.58.47,77.37.73l77.37.93,77.38.85Q1316.9,761.73,1394.27,761.75Z" transform="translate(452.45)"/><path class="cls-30" d="M673.31,699.72c-.27-.37-.47-.62-.65-.89q-31.75-48.45-63.48-96.89A52.09,52.09,0,0,1,604,590.73a73.46,73.46,0,0,1,65.52-98.18A71.33,71.33,0,0,1,712,503.47c17.88,11.26,29,27.34,33.42,48a69.53,69.53,0,0,1,1.41,17.27,72.71,72.71,0,0,1-8.65,31.91c-.52.95-1.13,1.85-1.72,2.76q-31.2,47.6-62.41,95.2C673.84,699,673.6,699.32,673.31,699.72Zm0-179.81a46,46,0,1,0,46,45.83A46,46,0,0,0,673.33,519.91Z" transform="translate(452.45)"/><path class="cls-11" d="M827,605.46c6.66,9.09,15.74,11,26.16,13.27A180.35,180.35,0,0,0,883,623.05c16.29.77,32.51,1.15,48.82,1.24l98.63.53q97.64.52,195.26.66c17.91,0,35.91.59,53.8-.34,10.66-.55,22-1.57,32.33-4.66,9-2.72,19.48-4.51,27.17-10.13,9.74-7.11,9.74-19.24,0-26.35-6.86-5-15.5-6.53-23.5-9a138.44,138.44,0,0,0-30-5.5c-16.23-1.2-32.56-.68-48.82-.66L1138,569c-65.09.07-130.18.69-195.26,1-18,.1-35.86.17-53.8,1a221.39,221.39,0,0,0-32.06,3.81c-4.38.85-8.84,1.74-13.15,2.89-7.3,1.95-12.28,5-16.78,11.18-3.11,4.25-3.11,12.31,0,16.56Z" transform="translate(452.45)"/><path class="cls-39" d="M2992.9,826.34c-.17-11.56-5.21-23.2-8.88-34-2.73-8-6-15.95-8.35-24.08-3.42-11.79-8.23-22.92-13.18-34.14-14-31.72-29.24-63-46.3-93.17-35.47-62.78-76.1-122.83-123.83-176.94q-9.6-10.87-19.45-21.51c-6.6-7.13-13.6-13.71-20.42-20.62-13.94-14.12-29.34-26.34-45-38.53-6.08-4.73-12.4-8.89-20.58-8.52a30,30,0,0,0-17.63,6.25c-10.58,8.17-16,25.69-7.5,37.54q8,11.22,15.81,22.64c6.64,9.75,13.64,19.1,20.85,28.43l-5.63-7.29c6.24,8.1,11.88,16.59,18.16,24.63q-3-3.83-5.92-7.66,21.11,28,40.58,57.2c12.69,19.05,25.69,37.91,38,57.2,25.05,39.22,47.4,79.93,68.26,121.51q16,31.82,30,64.54c2.58,6.36,5,12.79,8.48,18.74a136.64,136.64,0,0,1,6.35,12.48q4.71,10.46,9.19,21c.57,1.37,1.14,2.75,1.72,4.12,4.32,10.43,4.32,12.07,11.8,20.6,1.05,1.2,2.14,2.38,3.21,3.57,4.25,4.74,8.4,9.57,12.63,14.33,7.75,8.71,21.2,11.35,32.09,8.48a48.46,48.46,0,0,0,7.88-3.33c10.8-5.06,15.53-17.5,16.34-28.48C2992.22,843.08,2993,834.6,2992.9,826.34Z" transform="translate(452.45)"/><path class="cls-39" d="M2986.45,1020.07c-1.85-17.29-5.63-34-9.3-51-2.83-13.06-17-20.92-29.47-19.24-13.38,1.79-22.87,12.89-23.3,26.38-.49,15.33-1.36,30.56-.21,45.87a226.26,226.26,0,0,0,3.62,28.51c.74,3.58,2.29,7.06,3.54,10.51,2.47,6.83,4.64,13.16,10,18.46,12.13,12.09,30.33,8.08,39.4-5.07,3.19-4.64,4-9.89,4.87-15.29.86-5.17,2.06-10.5,2.31-15.72C2988.24,1035.8,2987.26,1027.72,2986.45,1020.07Z" transform="translate(452.45)"/><path class="cls-10" d="M517.2,847.48l3.69-5.53a24.62,24.62,0,0,0,2.43-12.41l-1.2-6.22a24.78,24.78,0,0,0-7.15-10.8A23.93,23.93,0,0,0,487.91,809a18.67,18.67,0,0,0-7.91,5.76l-3.68,5.53a24.75,24.75,0,0,0-2.44,12.41c.4,2.08.81,4.15,1.21,6.22a24.58,24.58,0,0,0,7.15,10.8,23.94,23.94,0,0,0,27.06,3.52A18.58,18.58,0,0,0,517.2,847.48Z" transform="translate(452.45)"/><path class="cls-10" d="M1492.83,400l3.69-5.53A24.76,24.76,0,0,0,1499,382l-1.2-6.22a24.6,24.6,0,0,0-7.16-10.8,25.46,25.46,0,0,0-35,2.24l-3.68,5.52a24.79,24.79,0,0,0-2.44,12.42c.4,2.07.8,4.15,1.21,6.22a24.69,24.69,0,0,0,7.15,10.8,25.46,25.46,0,0,0,35-2.24Z" transform="translate(452.45)"/><path class="cls-10" d="M1458.39,959l3.69-5.53a24.75,24.75,0,0,0,2.44-12.41q-.62-3.12-1.21-6.22a24.67,24.67,0,0,0-7.15-10.8,25.44,25.44,0,0,0-35,2.24l-3.69,5.53a24.73,24.73,0,0,0-2.44,12.41c.41,2.07.81,4.15,1.21,6.22a24.69,24.69,0,0,0,7.15,10.8,25.44,25.44,0,0,0,35-2.24Z" transform="translate(452.45)"/><path class="cls-10" d="M2701,1082.92l3.68-5.53a24.73,24.73,0,0,0,2.44-12.41c-.4-2.07-.81-4.15-1.21-6.22a24.64,24.64,0,0,0-7.15-10.8,25.44,25.44,0,0,0-35,2.24l-3.69,5.53a24.62,24.62,0,0,0-2.43,12.41l1.2,6.22a24.72,24.72,0,0,0,7.15,10.8,25.47,25.47,0,0,0,35-2.24Z" transform="translate(452.45)"/><path class="cls-40" d="M426,991.9l5.73-8.59A38.45,38.45,0,0,0,435.5,964q-.93-4.83-1.87-9.67a38.4,38.4,0,0,0-11.11-16.77,29,29,0,0,0-13.32-7.3,34.6,34.6,0,0,0-28.71,1.83,29,29,0,0,0-12.28,9l-5.73,8.58a38.51,38.51,0,0,0-3.78,19.29l1.87,9.66a38.37,38.37,0,0,0,11.11,16.78,29,29,0,0,0,13.32,7.3,34.55,34.55,0,0,0,28.71-1.84A29,29,0,0,0,426,991.9Z" transform="translate(452.45)"/><path class="cls-40" d="M2422.91,997.5l5.72-8.59a38.46,38.46,0,0,0,3.79-19.28c-.63-3.22-1.25-6.44-1.88-9.66a38.29,38.29,0,0,0-11.11-16.78,39.53,39.53,0,0,0-54.31,3.48l-5.72,8.59a38.35,38.35,0,0,0-3.79,19.28l1.87,9.66A38.39,38.39,0,0,0,2368.6,1001a39.53,39.53,0,0,0,54.31-3.48Z" transform="translate(452.45)"/><path class="cls-40" d="M2701.19,856.54l5.72-8.59a38.37,38.37,0,0,0,3.79-19.29c-.62-3.22-1.25-6.44-1.87-9.66a38.22,38.22,0,0,0-11.12-16.77,39.57,39.57,0,0,0-54.31,3.47q-2.85,4.31-5.72,8.59a38.48,38.48,0,0,0-3.79,19.29l1.88,9.66A38.2,38.2,0,0,0,2646.88,860a39.55,39.55,0,0,0,54.31-3.47Z" transform="translate(452.45)"/><path class="cls-10" d="M2115.11,912.24l5.72-8.59a38.37,38.37,0,0,0,3.79-19.29c-.62-3.22-1.25-6.44-1.87-9.66a38.22,38.22,0,0,0-11.12-16.77,39.57,39.57,0,0,0-54.31,3.47L2051.6,870a38.48,38.48,0,0,0-3.79,19.29l1.88,9.66a38.2,38.2,0,0,0,11.11,16.77,39.55,39.55,0,0,0,54.31-3.47Z" transform="translate(452.45)"/><path class="cls-10" d="M748.18,958.94l5.73-8.59a38.45,38.45,0,0,0,3.78-19.28c-.62-3.22-1.25-6.44-1.87-9.67a38.4,38.4,0,0,0-11.11-16.77,37.16,37.16,0,0,0-42-5.47,29,29,0,0,0-12.28,9l-5.73,8.58A38.49,38.49,0,0,0,680.89,936l1.87,9.66a38.37,38.37,0,0,0,11.11,16.78,37.13,37.13,0,0,0,42,5.46A29,29,0,0,0,748.18,958.94Z" transform="translate(452.45)"/></g></g></svg>