<svg xmlns="http://www.w3.org/2000/svg" viewBox="0 0 2559.08 2500"><defs><style>.cls-1{fill:#ffe3c2;}.cls-2{fill:#ffb957;}.cls-3{opacity:0.23;}.cls-4{fill:#fff;}.cls-5{opacity:0.34;}.cls-6{opacity:0.53;}.cls-7{opacity:0.22;}.cls-8{fill:#5e1212;}.cls-9{fill:#fd8b66;}.cls-10{fill:#d04719;}.cls-11{fill:#2a6684;}.cls-12{fill:#133852;}.cls-13{opacity:0.37;}.cls-14{fill:#376f92;}.cls-15{fill:#e6560f;}.cls-16{fill:#af2500;}.cls-17{fill:#78c1d0;}.cls-18{fill:#ce1b1b;}.cls-19{fill:#007264;}.cls-20{fill:#13a497;}.cls-21{opacity:0.32;}</style></defs><g id="Layer_2" data-name="Layer 2"><g id="_02" data-name="02"><path class="cls-1" d="M1622.21,1982.3c-196.34,59.82-407.17,85.84-605.23,76.85-196.93-8.94-395.06-61-563.47-165.23-178.1-110.27-307-288.53-384.09-481.59C8.61,1260.06-14.33,1091.71,8.91,929.09,31.32,772.34,120,627.12,227.46,512.35,392.79,335.72,625.33,200,859,138.82c249.16-65.24,512.39-49.67,761.05,10,240.1,57.59,473,157.4,636.13,349.69A786.47,786.47,0,0,1,2341,619.56c124.37,219.6,151,495.12,46.08,726.27-48.44,106.71-106,221.88-183.55,310.55-76.12,87-195.9,154.41-296.64,208.59C1818.13,1912.72,1722,1951.88,1622.21,1982.3Z"/><path class="cls-1" d="M919.86,19.31C907,11.66,892.11,10.37,877.37,10a250.52,250.52,0,0,0-35.28,1.57c-25.26,2.87-50.82,6.17-75.69,11.58-45.91,10-91.09,25.17-134.47,43.1a828.33,828.33,0,0,0-130.56,67.71c-40.81,26.13-80.44,55.39-115.92,88.46q-14.38,13.4-28.13,27.46c-2.15,2.21-4.35,4.39-6.44,6.66s-3.77,4.63-5.59,7l-.51.66c.55-.75.29-.53-.8.7-4.63,4.4-8.78,9.49-13,14.26s-8.58,9.63-12.72,14.58a70.91,70.91,0,0,0-5,6.56c-.4.6-3,4.62-2.1,3.53-1.64,2.07-3.4,4.06-5.06,6.11Q292.48,326.67,279.7,344c-5,6.77-1.7,17.14,4.35,21.81,6.27,4.84,16.63,5,22.2-1.32q13.2-15.07,27.12-29.49l3.22-3.32,1.62-1.65c.19-.19.67-.73,1-1.16a2.46,2.46,0,0,1,.27-.24l3.22-2.46a58.37,58.37,0,0,0,5.46-4.69q7.17-7,14.49-13.9,3.66-3.44,7.37-6.83l3.43-3.12,1.25-1.12a25.53,25.53,0,0,0,3.24-2.42c2.65-1.93,5.14-4,7.61-6.19s5.08-4.38,7.64-6.54q7.68-6.51,15.52-12.83,3.93-3.17,7.88-6.29l3.67-2.86.11-.09.2-.15c3.33-2.54,6.67-5.06,10-7.62.62-.47,1.25-.95,1.87-1.44l4-3.08q8-6,16.08-11.9,16.24-11.74,33-22.7,33.62-22,69.17-40.76c25.75-13.62,52.24-25.92,79-37.35a866.61,866.61,0,0,1,106.76-36.5,1104.08,1104.08,0,0,1,113-24.68c10.64-1.7,21-3.77,31.56-6.07,12.1-2.64,24.69-5.59,34.76-13.11,5.86-4.37,9.95-9.63,9.95-17.33A20.25,20.25,0,0,0,919.86,19.31Z"/><path class="cls-1" d="M1110.57,21.77c-.26-5.82-2.84-10.88-6.74-15.14C1098.58.92,1091,.44,1083.79.2c-6.88-.23-13.68-.27-20.56-.08-14.41.41-28.74,2.24-43.09,3.69-9.32.94-18.42,7.59-18,18,.47,10.54,7.92,17,18,18,14,1.41,28,3.27,42.11,3.66,6.88.19,13.68.21,20.56,0s13.15-.39,18.85-4.79C1106.57,34.78,1110.86,28.31,1110.57,21.77Z"/><path class="cls-1" d="M2555.18,1127.65c-.83-6.34-2-11.54-6.73-16.25-4-4-10.53-7-16.25-6.73-12.56.56-22.85,10.09-23,23a498.26,498.26,0,0,1-4.39,60.77l1-7.24c-1.08,7.88-1.93,15.79-2.92,23.68a557.37,557.37,0,0,1-36.19,132.7,506.93,506.93,0,0,1-38.92,73.25c-7.77,12.08-15.87,24-24.37,35.6-1.89,2.57-4,5-5.75,7.66-2.09,3-3.39,6.55-5.27,9.73s-3.9,6.24-5.9,9.32c-.86,1.32-1.76,2.61-2.59,3.94-3.15,5-3.87,9.43-4.43,15.22-.73,7.4,4,14.75,9.55,19,6.4,4.94,13.32,5.87,21.14,4.34,8.93-1.74,16.68-10.16,23.44-16.09.56-.49,1.59-1.46,2.19-2.06l.55-.41a66.71,66.71,0,0,0,12.32-11.73,440.79,440.79,0,0,0,27.57-37,501,501,0,0,0,37.59-68.74,559.53,559.53,0,0,0,29.16-79.39c7.55-27.12,11.85-55.19,14.56-83.17C2560.42,1187.21,2559.05,1157.39,2555.18,1127.65Z"/><rect class="cls-2" x="648.46" y="818.65" width="431.54" height="889.76"/><rect class="cls-2" x="1281.11" y="475.96" width="431.54" height="1340.76"/><rect class="cls-2" x="1913.75" y="107.89" width="431.54" height="1724.02"/><g class="cls-3"><path class="cls-4" d="M1063.21,1074.17q8.64-4,16.79-8.69V1708.4H648.46V1134.1q5.73-3.09,11.66-5.85C784.16,1070.52,939.26,1132.1,1063.21,1074.17Z"/></g><g class="cls-3"><path class="cls-4" d="M1712.65,681V1816.72H1281.11V830.42c20.85-26.8,43.51-51.7,69.92-72.37C1450.61,680.1,1583.32,675.06,1712.65,681Z"/></g><g class="cls-3"><path class="cls-4" d="M2345.29,406.75V1831.91H1913.75V688c117.91-3.94,234.28-30.53,308-118C2265.69,517.77,2292.66,445.68,2345.29,406.75Z"/></g><path class="cls-4" d="M2292.15,1592.82s-377.92,5-446.56-40.52c0,0-9.92,107.51,16.54,140.59h24v121.52h440V1689.58H2293Z"/><g class="cls-5"><path d="M1857,1601.82a1332.76,1332.76,0,0,0,297,22.71q21.4-.78,42.77-2.22c13.74-.93,27.85-1.64,41.38-4.32,2.68-.53,2-4.69-.64-4.69-12.25,0-24.63,1.4-36.86,2.28s-24.61,1.59-36.92,2.14q-37,1.63-74,1.37a1370.8,1370.8,0,0,1-147.59-8.82q-42.26-4.82-84.2-12.06c-2.35-.41-3.38,3.16-1,3.61Z"/></g><path d="M1938.35,1642.35a1574.5,1574.5,0,0,0,217.93,5.67c20.18-.87,40.81-1.21,60.8-4.19,3-.44,2.24-5.28-.71-5.24-18,.24-36.14,2.29-54.17,3.18s-36.17,1.48-54.27,1.76c-36.19.57-72.38-.13-108.54-1.8q-30.56-1.41-61-4c-3-.24-2.91,4.32,0,4.6Z"/><g class="cls-6"><path d="M1932.16,1703.28q140.41,5.94,280.94,3.67,19.92-.3,39.84-.75,9.46-.21,18.93-.46c6.54-.17,13.1.06,19.46-1.68,1.84-.51,2-3.47,0-3.89-11-2.3-23.23-.46-34.4-.17q-17.43.45-34.87.79-34.86.68-69.74.9c-46.83.3-93.66-.11-140.48-.78q-39.84-.59-79.68-1.75c-2.66-.08-2.64,4,0,4.12Z"/></g><path d="M1960.68,1727.6q29.27,2.75,58.65,3.69c18.87.59,38.55,1.81,57.28-.9,2.21-.32,1.48-3.54-.49-3.68-19.12-1.38-38.59.23-57.77-.11s-38.48-1.32-57.67-2.85c-2.47-.19-2.44,3.62,0,3.85Z"/><g class="cls-7"><path d="M1919.25,1759.35a1397.06,1397.06,0,0,0,269.32,23.26c25.32-.25,51.09-.53,76.26-3.51,3.37-.4,3.59-5.47,0-5.43-22.49.22-45,1.75-67.46,2.18s-45,.39-67.51-.2c-44.34-1.16-88.59-4.47-132.67-9.41q-38.58-4.34-76.92-10.6c-2.4-.39-3.47,3.25-1,3.71Z"/></g><rect class="cls-8" x="54.09" y="1814.41" width="2353.6" height="49.36"/><path class="cls-9" d="M1132.43,2386.59c-41.61,46.54-131.86,57.12-131.86,57.12s74-114.23,90.25-148.08c6.22-13,7.67-26.43,7.1-38.12a104.07,104.07,0,0,0-7.1-33.09s88.85-34.55,76.87,0c-3.27,9.42-4,19.56-3.29,29.51,1.91,26.53,14.31,51.58,17.39,57.22C1186,2318.91,1174,2340.06,1132.43,2386.59Z"/><path class="cls-9" d="M1363,2218.07c-26.79,12-43.72-16.22-76.15-54.29-17.78-20.88-46.58-40.89-69.42-54.73-18.83-11.4-33.61-18.6-34.84-18.6,0,0-5.74-95.19,13.3-80.38,4.6,3.58,11.82,5.91,20.28,7.4,26.6,4.67,65.47.89,73.49.35,10.59-.7,69.81,79,86,126.22S1389.79,2206.09,1363,2218.07Z"/><path class="cls-10" d="M1167.69,2224.42c-3.27,9.42-4,19.56-3.29,29.51-17.11,4.48-42.67,8.67-66.48,3.58a104.07,104.07,0,0,0-7.1-33.09S1179.67,2189.87,1167.69,2224.42Z"/><path class="cls-10" d="M1217.43,2109.05c-18.83-11.4-33.61-18.6-34.84-18.6,0,0-5.74-95.19,13.3-80.38,4.6,3.58,11.82,5.91,20.28,7.4C1217.94,2040.73,1219.32,2079.61,1217.43,2109.05Z"/><path class="cls-9" d="M1526.89,1094.09s-103.94,57.69-91,16.11c7.15-22.87,7.07-53.76,5.55-76.92-1.25-19-3.46-32.75-3.46-32.75s93-65.48,87.83-31.18c-2.22,14.69-2.35,39.69-1.77,63.46C1524.85,1064.54,1526.89,1094.09,1526.89,1094.09Z"/><path class="cls-10" d="M1525.85,969.35c-2.22,14.69-2.35,39.69-1.77,63.46-28,8.52-59.93,5.23-82.6.47-1.25-19-3.46-32.75-3.46-32.75S1531.06,935.05,1525.85,969.35Z"/><path class="cls-11" d="M1120.94,2075.5s-15.36-7.11-40.14-18.81c-24.33-11.49-57.74-27.4-94.62-45.38-63.59-31-137.48-68-192.88-99-120.25-67.19-235.28-215-132.45-263s281.22-51.06,281.22-51.06,168.41-60.29,222.43-33.41S1120.94,2075.5,1120.94,2075.5Z"/><path class="cls-12" d="M847.32,1718.42S999.08,1770.7,1069.55,1872s16.53-134.38,16.53-134.38S774.13,1685.79,847.32,1718.42Z"/><g class="cls-13"><path class="cls-12" d="M1080.8,2056.69c-24.33-11.49-127.65-61.93-164.53-79.91,30.44-30.85,22-83.21,13.06-141.17-9-58.13-51.88-105.16-51.88-105.16s207.56,2.38,246.39,72C1157.86,1863.5,1117,2010.12,1080.8,2056.69Z"/></g><path class="cls-14" d="M1583.29,1814.41H1210.87s-1.92,324.44-36.48,422.34h-94.06s-167-448.07-149.74-543.28c6.61-36.46,38.57-62.24,75.49-80.18,59.48-28.88,131.83-37.39,131.83-37.39s431-122.39,466,88.77C1603.92,1664.67,1681.2,1754.9,1583.29,1814.41Z"/><path d="M1038.31,2384.45s10.21,14.13,34.19,7.08,97-80.54,101-98.79,41.4,54.37,40,64.94-120.58,133.27-189.68,141-71.92-20.45-50.06-55S1030.93,2370.31,1038.31,2384.45Z"/><path d="M1242.41,2019.71s76.87,114.46,74,134.2-17.41,24.5-17.41,24.5-6.32,4.49,20.43,34.63c24.48,27.59,56.81,46.8,72.43-4,8.29-27-16.94-96-74.75-171.49,0,0-14.8-25.39-27.49-25.39S1233.79,2006.66,1242.41,2019.71Z"/><path class="cls-12" d="M1583.29,1814.41H1210.87s-2.68-31.83-5.44-42,234.8,24.86,329.64,15.66,85.62-58.93,75.5-70S1518.43,1690.26,1453,1638c-55.21-44.08-354.79-30.15-446.94-24.73,59.48-28.88,131.83-37.39,131.83-37.39s431-122.39,466,88.77C1603.92,1664.67,1681.2,1754.9,1583.29,1814.41Z"/><path class="cls-12" d="M1215,1793.39c-.94-12.27-3.17-23.55-8-34.93a109.11,109.11,0,0,0-8.5-16c-3.1-4.89-6-10.16-12-11.2a3.47,3.47,0,0,0-4.33,3.29c-.14,5.73,3.42,9.08,6.55,13.62a141.15,141.15,0,0,1,8.57,14.4,147.7,147.7,0,0,1,12.51,31.53c.72,2.8,5.39,2.31,5.16-.69Z"/><path class="cls-9" d="M1634,926.53c-.94,3.32-16.39,31.76-28.68,35.73-6.25,2-18.86-8-19.91-6.55a129.36,129.36,0,0,1-51.9,42.72c-34.33,15.64-76.81,17.79-124.16,9-52.49-9.78-83.15-50.68-86.77-100.81a150.38,150.38,0,0,1,2.59-39.79,173.86,173.86,0,0,1,8.68-29.63c13.66-35,33.6-54.95,51.42-66.36,21.77-13.94,40.36-15.06,40.36-15.06s89.56,7.4,131.75,36.27C1596,818.4,1649.11,873.35,1634,926.53Z"/><path class="cls-10" d="M1634,926.53c-.94,3.32-16.39,31.76-28.68,35.73-6.25,2-18.86-8-19.91-6.55a129.36,129.36,0,0,1-51.9,42.72c.15-.85.25-1.31.25-1.31,62.57-44.82,36-138.17-33.61-189.64-47.27-34.93-91.41-38.19-114.88-36.67,21.77-13.94,40.36-15.06,40.36-15.06s89.56,7.4,131.75,36.27C1596,818.4,1649.11,873.35,1634,926.53Z"/><path d="M1395.19,765.18s34-17.77,103.64,25.37,83.68,104.47,79,116.42,17.67-29.1,41.06,0-33.47,48.74-33.47,48.74-24.29,29.82-54.14,42.52c0,0,16.93,16.33,54.87,5.94s65-34.3,80.56-101.87-20.79-148.13-99.27-170.48S1358.07,750.72,1395.19,765.18Z"/><path d="M1639.16,796.79s2.6-44.7,46.26-33.79,24.43,115.39-27.54,85.24S1639.16,796.79,1639.16,796.79Z"/><path class="cls-15" d="M1441.87,1073.37s28.37,6.74,55.92,0,27.35-11,27.35-11,8.51-9.87,13.71,0-3.64,50.39,21.83,62.87,49.9,27.56,73.81,59.78,76.92,203.75,93,287.43,33.27,183,0,214.14-95.11,19.75-95.11,19.75-66-60.81-125.78-95.11-276.51-38-323.29-56.14-10.4-100.83-10.4-100.83,132-199.8,163.73-252.45,89.39-77.08,91.47-96.83S1427.86,1071.17,1441.87,1073.37Z"/><path class="cls-16" d="M1321.59,1317.06s-18.19,212.58-53.53,256.76-113.83-11.43-118-27.54,0-79.53,17.15-103.44,28.09-22.5,28.09-22.5l13.23-20.11s32,62.36,50.16,76.92,35.87-19.75,39.5-66.53S1314.32,1293.15,1321.59,1317.06Z"/><path class="cls-16" d="M1569,1337.85s45.22,217.41,32.74,252.68-57.17,0-57.17,0,32.22-29.7,19.23-117S1557,1312.39,1569,1337.85Z"/><rect class="cls-17" x="1272.28" y="1575.9" width="166.21" height="22.36"/><path class="cls-9" d="M1690.84,1667.18c-10.5,21.62-35,39.53-59.61,38.74-18.42-.58-36.8-8.31-53.87-14.67q-25.93-9.68-50.87-21.82a651.35,651.35,0,0,1-94-56.33c-9.34-6.69-18.56-13.62-28.25-19.79-4.6-2.92-10.86-7.7-16.64-7.53-17.47.52-42.1-21.83-45.74-27s-31.7,6.75-54,5.72c-7.55-.36-11.19-5.28-12.3-12.32-2.14-13.81,5.42-35.76,12.3-47.46,10.39-17.67,72.76-44.7,84.72-41.06s36.9,64.46,41.58,71.73c5.29,8.23,25.12,10.07,33.44,11.83,37.1,7.82,75.18,8.46,112.3,16.07,36.55,7.5,74.47,13,106.16,36.71,5.37,4,9.7,9.08,14.22,13.55a57,57,0,0,1,9.77,12.67h0C1696.71,1638.19,1698.07,1652.33,1690.84,1667.18Z"/><path class="cls-16" d="M1276.78,1541.64a319.35,319.35,0,0,0,33.32-4.23l16.71-2.82c5-.84,10.47-1.2,14.56-4.37,1.7-1.33.52-3.91-1.18-4.47-4.52-1.48-9.94.13-14.51,1l-16.62,3.17a290.55,290.55,0,0,0-32.79,8c-2,.62-1.74,3.92.51,3.77Z"/><path class="cls-16" d="M1281.48,1520.76c11.87-3,23.62-6.38,35.44-9.61,5.6-1.53,11.25-2.82,16.89-4.21,5.15-1.26,10.82-1.76,14.07-6.33a2.44,2.44,0,0,0-.88-3.33c-5.15-2.37-10.28.06-15.39,1.67-5.85,1.85-11.64,3.88-17.47,5.77-11.58,3.76-22.93,7.79-34.14,12.53-2.06.87-.56,4,1.48,3.51Z"/><path class="cls-16" d="M1310.05,1491.21c7.9-3.46,16.28-5.22,24.73-6.76,7.9-1.43,16.47-2.09,24-5,2.65-1,1.66-5.09-1.2-4.34-8.52,2.23-16.81,4.51-25.46,6.23-8.14,1.63-16.1,3.64-23.68,7.09-1.87.86-.24,3.57,1.61,2.75Z"/><path class="cls-10" d="M1690.84,1667.18c-10.5,21.62-35,39.53-59.61,38.74-18.42-.58-36.8-8.31-53.87-14.67q-25.93-9.68-50.87-21.82a651.35,651.35,0,0,1-94-56.33c-9.34-6.69-18.56-13.62-28.25-19.79-4.6-2.92-10.86-7.7-16.64-7.53-17.47.52-42.1-21.83-45.74-27s-31.7,6.75-54,5.72c-7.55-.36-11.19-5.28-12.3-12.32,6.59.85,18,.69,36.74-4,34.68-8.67,39.73-7.23,59.25,11.91s24.56,14.82,75.13,43.71,138.7,99.7,197.58,84.89c58.36-14.69,46-61.68,45.79-62.48C1696.71,1638.19,1698.07,1652.33,1690.84,1667.18Z"/><polygon class="cls-17" points="705.25 1294.6 743.21 1278.05 1128.34 1278.05 1311.59 1598.26 1291.15 1598.26 705.25 1294.6"/><path class="cls-16" d="M1573.12,1312.72a382.22,382.22,0,0,1,6.33-51.8,218.63,218.63,0,0,1,5.3-22.46c2.37-7.73,6.56-13.67,10.26-20.69,1.43-2.72-1.66-6.61-4.56-4.56-6.07,4.31-9.22,11.69-11.67,18.52-2.92,8.17-4.62,16.82-6.22,25.33a294.36,294.36,0,0,0-5.07,55.66c0,3.64,5.43,3.59,5.63,0Z"/><path class="cls-16" d="M1442.54,1089.63a101.49,101.49,0,0,0,36.35,1.78c11-1.48,24.69-4.45,33.84-11.17,2.61-1.92,1.19-7.13-2.42-5.74-5.33,2-10.22,5.06-15.62,7a97.94,97.94,0,0,1-15.71,4.23,95.92,95.92,0,0,1-35.31-.19c-2.64-.5-3.8,3.46-1.13,4.07Z"/><path class="cls-16" d="M1326.41,1294.13c.56-3.75,1-7.45,1.27-11.24.24-3.37,1.07-6.51-1.19-9.27a2.22,2.22,0,0,0-3.11,0c-2.38,2.23-2,5.52-2.12,8.57-.21,3.76-.28,7.46-.19,11.22.06,2.92,4.87,3.87,5.34.72Z"/><path d="M1603.42,1573.68c27.82,6.81,56.93,20.45,75.79,42.56,9.75,11.43,17.69,26.73,14,42.13-3.11,13.06-10.71,23.45-21.25,31.76-12.82,10.1-28,14.81-44.14,15.23-4,.1-3.88,5.8,0,6.09,14.87,1.12,30.26-4.8,42.68-12.61a73.87,73.87,0,0,0,28.41-32.54c14.11-30.73-16.76-63.28-41.16-77.46-16.14-9.37-35.08-15.32-53.37-18.69-2.29-.42-3.29,3-1,3.53Z"/><polygon class="cls-4" points="1291.15 1598.26 879.46 1598.26 705.25 1294.6 1116.94 1294.6 1291.15 1598.26"/><ellipse class="cls-14" cx="979.09" cy="1446.43" rx="40.79" ry="16.36"/><path class="cls-4" d="M1590.67,871.68a58.23,58.23,0,0,0,29.25-10.85c8.45-5.94,18.46-14.6,22.78-24.18a2.26,2.26,0,0,0-3.53-2.73c-3.76,3.13-6.58,7.3-9.89,10.9a94.19,94.19,0,0,1-11.76,10.91,59.7,59.7,0,0,1-27.37,12.08c-2.18.34-1.69,4,.52,3.87Z"/><path class="cls-4" d="M1648.69,826.23l1.26-6.08a2.74,2.74,0,0,0-.71-2.66l-.25-.21a2.41,2.41,0,0,0-2.79-.36l-.27.14a2.72,2.72,0,0,0-1.35,2.36l0,6.25c0,2.32,3.65,2.94,4.14.56Z"/><path class="cls-4" d="M1631.6,883.79a50.13,50.13,0,0,0,6.93-4.94c2-1.67,4.23-3.47,5-6,.3-.92-.75-1.53-1.51-1.16-2.15,1-3.67,3.1-5.48,4.62a44,44,0,0,1-6.68,4.55c-1.89,1.07-.17,4,1.71,2.92Z"/><path d="M1366.55,844.56a6.72,6.72,0,0,0-6.59-1.74c-7,2.51-9.16,10.53-11,17-1.42,5.09,1.75,11.23,7.06,12.44,4.94,1.12,11.43-1.5,12.44-7.06C1369.65,858.78,1371.73,849.81,1366.55,844.56Z"/><path d="M1456.83,881.15c-1.32-6.09-8.61-6.71-12.71-3.35s-5.92,9.84-7.7,14.6c-1.72,4.58,1.9,10.42,6.5,11.47a9.55,9.55,0,0,0,11.47-6.51C1456.1,892.11,1458,886.7,1456.83,881.15Z"/><path d="M1353.15,823.22a17.8,17.8,0,0,1,11.61-3c3.83.18,7.65,1.67,11.44,1.38a2,2,0,0,0,1-3.71c-7.68-4.66-19.52-3.13-26.24,2.48-1.56,1.3.49,4,2.18,2.82Z"/><path d="M1449.64,845.6c6.81,1.77,12.07,5.89,16.75,11s7.41,11,11.62,16.18c2.24,2.75,5.76-.76,4.54-3.5-5.69-12.8-17.47-25.58-31.81-27.66-2.56-.37-3.75,3.3-1.1,4Z"/><path class="cls-10" d="M1385.44,869.29c-9-.45-13.07,13.83-13.07,20.77,0,7.25,5.43,21.25,14.53,20.55a3.13,3.13,0,0,0,2.68-4.65c-1.29-2.32-3.45-3.21-5.21-5.12a18.38,18.38,0,0,1-4.24-8,19.67,19.67,0,0,1-.08-9.06c.63-3,2.27-9.59,6-10.12,2.62-.37,1.81-4.3-.6-4.42Z"/><path class="cls-10" d="M1357.56,931.54a63.1,63.1,0,0,0,58.61,13.54c6.06-1.64,14.79-4.16,18.58-9.42,1.49-2.06-1-4.19-3-3.85-2.86.48-5.1,2.22-7.69,3.47a59.72,59.72,0,0,1-9.63,3.63A64.27,64.27,0,0,1,1395,941.3,65.77,65.77,0,0,1,1359.55,929c-1.52-1.07-3.4,1.36-2,2.57Z"/><g class="cls-5"><path class="cls-18" d="M1491.08,922.48c-2.42-8.27-10.34-13.68-18.43-15.54-9.92-2.28-19.84,2.52-22,13a23.45,23.45,0,0,0,9.83,23.77c7.84,5.33,19.16,4.45,25.79-2.43a20.9,20.9,0,0,0,4.82-18.76Z"/></g><g class="cls-5"><path class="cls-18" d="M1346.87,895.71a18.09,18.09,0,0,1-3.75,5.94,20.44,20.44,0,0,1-20.53,4.94,150.38,150.38,0,0,1,2.59-39.79,20.36,20.36,0,0,1,4.33.54c8.09,1.86,16,7.27,18.43,15.54A17.85,17.85,0,0,1,1346.87,895.71Z"/></g><path class="cls-19" d="M424.42,1732.28a40.17,40.17,0,0,0-13.9-26.45,24.78,24.78,0,0,0-7.66-4.61,24.5,24.5,0,0,0-14.07-.19c-20.91,5.27-38.13,31.81-37.19,52.65.35,7.7,2.23,15.88,7.92,21.08,8,7.32,20.58,6.25,30.84,2.77,9.75-3.31,19.12-8.57,25.55-16.61A40.14,40.14,0,0,0,424.42,1732.28Zm-51.07,32.44c-18.9-6.48,0-31.86,0-31.86,0-1.08,13.23-23.22,26.19-3.51S392.25,1771.19,373.35,1764.72Z"/><path class="cls-20" d="M189.91,1683v80h.38c4.31,28.84,45.4,51.46,95.45,51.46s91.14-22.62,95.44-51.46h.39v-80Z"/><g class="cls-21"><path class="cls-4" d="M274.08,1655.65s-97.71-131-27-215.18,176.08,53,180.55-81.08,152.09-276.51,283.07-183S643.11,1293.9,587,1318.85s7.28,123.22-73.81,163-140.33-10.16-199.58,30.39S274.08,1655.65,274.08,1655.65Z"/></g><path class="cls-4" d="M959.77,464.37H165.12A48.66,48.66,0,0,0,116.47,513V959a48.65,48.65,0,0,0,48.65,48.65H782.36l37.75,163.57,26.41-163.57H959.77A48.65,48.65,0,0,0,1008.42,959V513A48.66,48.66,0,0,0,959.77,464.37Z"/><path class="cls-10" d="M820.45,1181.6l-39.68-172H165.12A50.71,50.71,0,0,1,114.47,959V513a50.71,50.71,0,0,1,50.65-50.66H959.77A50.71,50.71,0,0,1,1010.42,513V959a50.71,50.71,0,0,1-50.65,50.65H848.22ZM165.12,466.37A46.71,46.71,0,0,0,118.47,513V959a46.71,46.71,0,0,0,46.65,46.65H784l35.81,155.17,25-155.17h115A46.71,46.71,0,0,0,1006.42,959V513a46.71,46.71,0,0,0-46.65-46.66Z"/><path class="cls-4" d="M257.18,1601.68a246.43,246.43,0,0,1-15.68-73c-1.13-20.58.64-42.7,11-61,24.36-43,85.34-37.35,127.31-40.26,22.19-1.54,45.88-4.51,65.34-16.06,17.42-10.34,27.44-26.57,29.43-46.7,2.35-23.79-6.44-46.56-10.36-69.68-3.66-21.52-2.86-44.32,4.11-65.11,7.4-22.12,21.91-41.33,42.44-52.74,19.56-10.87,43.33-13.9,64.49-6,3.22,1.2,4.43-3.79,1.39-5.06-37.46-15.73-81.08,4.73-101.6,37.7-11.11,17.83-16.6,38.91-17.56,59.78-1.12,24,5.65,46.38,9.73,69.77,4,22.79,3.35,49.13-15.81,65.19-8.36,7-18.76,10.77-29.18,13.53a232.47,232.47,0,0,1-38.62,6.4c-25.34,2.31-51.08,2.58-76.09,7.66-20.66,4.2-41.33,12.64-54.43,29.88-14,18.36-17.4,42.55-16.7,65a248.94,248.94,0,0,0,17,81.68c.9,2.33,4.69,1.34,3.8-1Z"/><path class="cls-4" d="M278.1,1574.74a219.78,219.78,0,0,1,19.4-63.55c8-16.4,18.9-32.81,34.77-42.51,38.86-23.72,84.66,9.73,119.89,25.46,18.46,8.25,38.45,15.86,59,13.84,18.78-1.85,33-12.76,42.26-28.91,10.23-17.92,12.9-38.78,20.33-57.82,6.77-17.33,17.31-33.69,31.41-46,15.24-13.26,34.48-21.3,54.82-21,19.58.25,38.91,8.14,51.79,23.11,2.24,2.61,5.75-1.11,3.72-3.71-21.5-27.46-62.44-31.45-92.4-16.5-16.49,8.23-30.2,21.58-40.43,36.78-11.37,16.9-16.72,35.71-22.76,54.92-6.14,19.53-15.5,42.19-36.45,49.65-20.75,7.39-45.45-2.48-64.51-10.8-20-8.72-39.32-19-59.86-26.34-19.63-7-41.65-10.85-61.41-2.21-18.89,8.25-32.11,25.72-41.29,43.59a222.67,222.67,0,0,0-22.11,71c-.34,2.47,3.42,3.56,3.8,1Z"/></g></g></svg>