<svg xmlns="http://www.w3.org/2000/svg" viewBox="0 0 2804.06 2500"><defs><style>.cls-1{fill:#ffe3c2;}.cls-2{opacity:0.5;}.cls-3{fill:#ffc68d;}.cls-4{fill:#13a497;}.cls-5{fill:#fff;}.cls-6{opacity:0.55;}.cls-7{opacity:0.79;}.cls-8{fill:#035958;}.cls-9{fill:#56cbb8;}.cls-10{fill:#ffa840;}.cls-11{fill:#d04719;}.cls-12{fill:#ffb957;}.cls-13{fill:#f17c5b;}.cls-14{fill:#003347;}.cls-15{fill:#eb815a;}.cls-16{fill:#5e1212;}.cls-17{fill:#0095a4;}.cls-18{opacity:0.39;}.cls-19{fill:#cf4a27;}.cls-20{opacity:0.34;}.cls-21{fill:#ce1b1b;}.cls-22{opacity:0.36;}.cls-23{opacity:0.61;}.cls-24{fill:#ca5303;}.cls-25{opacity:0.47;}.cls-26{opacity:0.23;}</style></defs><g id="Layer_2" data-name="Layer 2"><g id="_01" data-name="01"><path class="cls-1" d="M2170.87,1704.93c-271.89,223.15-624.32,331.39-973.29,311.3a1420.55,1420.55,0,0,1-148.78-16.43C840.89,1965.61,652.53,1890.44,483,1764.66c-84.43-62.63-164.35-134.34-219.13-224.08-32.16-52.72-54.9-110.43-72.37-169.8-7.33-24.88-13.73-50-19.51-75.27C133.77,1129,121.66,953.32,156.33,785.1c34.82-169,127.13-314.57,235.5-446.5,167.4-203.8,401.94-315,664.29-335.19C1272.81-13.32,1475,34.84,1685.6,75.26c181.54,34.83,369.08,66.65,528.26,167.4,157.16,99.48,266.38,266.4,309.92,446a805.4,805.4,0,0,1,16.2,87.82C2583.09,1113.84,2433.83,1489.11,2170.87,1704.93Z"/><g class="cls-2"><path class="cls-3" d="M1197.58,2016.23a1420.55,1420.55,0,0,1-148.78-16.43C840.89,1965.61,652.53,1890.44,483,1764.66c-84.43-62.63-164.35-134.34-219.13-224.08-32.16-52.72-54.9-110.43-72.37-169.8L740.29,754.42S782,777,837.42,806.51s23.92,339.31,26.92,509,101,210.75,290.18,288.33,42,325,37.14,337.85C1190.47,1944.89,1195.07,1974.42,1197.58,2016.23Z"/></g><path class="cls-1" d="M191.65,1562.16c-3.48-9-6.67-18.15-10.52-27-.76-1.76-1.51-3.53-2.27-5.29h0c-.35-.83-.7-1.67-1-2.5q-2.53-6.11-5-12.23-3.09-7.77-6.43-15.43-1.14-2.62-2.27-5.27l-.43-1-.42-1q-4.91-11.85-9.53-23.81c-12.19-31.77-22-64.16-31.26-96.87A929.61,929.61,0,0,1,100,1271.3q-2-12.24-3.75-24.52c-.13-.88-.23-1.8-.36-2.7-.16-1.24-.32-2.48-.47-3.72q-.83-6.61-1.55-13.24-2.79-25.56-4.16-51.26-1.52-28.54-1.24-57.15c.09-9.55-1.37-19.08-2.18-28.59-.41-4.76-.75-9.53-1.11-14.29-.71-9.5-2.85-18-10.33-24.43-6.85-5.84-17.4-8.71-25.56-3.3-6.74,4.47-12.16,10-14.22,18.12-1.07,4.18-1.49,8.64-2.16,12.9-1.63,10.31-3.14,20.65-4.39,31-1.06,8.74-.32,17.89-.09,26.68q.33,12.87,1,25.72a994.44,994.44,0,0,0,12.13,109.14,931.24,931.24,0,0,0,22.39,100.39c9.86,35,22.91,68.88,37.21,102.24,15.44,36,32.7,70.86,56.24,102.31,5.66,7.56,14.15,11.58,23.41,7.67C188.68,1581,195,1570.91,191.65,1562.16Z"/><path class="cls-1" d="M87.21,839.65c-9.15-4.78-19.34-2.61-26.6,4.39-5.77,5.57-8.56,14.56-9.62,22.41-2.62,19.55-3.52,39.29-4.75,59q-1,15.51-1.94,31c-.34,5.41.32,10.65.86,16,.38,3.82.57,7.72,1.32,11.49.87,4.45,3.27,7.66,6,11.17,5.92,7.6,17.69,5.32,23.93,0,4.86-4.14,6.6-10.34,8.43-16.24,1.34-4.35,3-8.73,3.85-13.22,1.76-9.41,2.63-19.09,3.94-28.58,2.8-20.26,5.74-40.49,7.78-60.85C101.73,863.05,100.41,846.55,87.21,839.65Z"/><path class="cls-4" d="M399.92,2177.27s-80-78.39-83.94-210.64,78.39-224.1,124.32-152,42,309.63,12.67,357.93S399.92,2177.27,399.92,2177.27Z"/><path class="cls-5" d="M424.56,2197.79h-.48c-14.86-.34-24.67-16.38-26.17-19-2.51-2.51-21.23-21.78-40.65-56a338.38,338.38,0,0,1-43.78-156.07c-1.28-42.77,6.52-84.89,22-118.62,14.41-31.46,34.36-53.1,54.72-59.37,19.74-6.08,38.29,2.63,52.25,24.53,20.62,32.35,33.68,103.07,34.94,189.18,1.15,78.69-7.79,147.56-22.24,171.39C445.46,2189.73,435.18,2197.79,424.56,2197.79Zm-22.45-21.72c.09.17,9.16,16.44,22.1,16.72,8.88.2,17.83-7.06,26.62-21.57,13.79-22.73,22.64-92.11,21.52-168.72-1.25-85.22-14-155-34.16-186.56-12.82-20.11-28.91-27.88-46.55-22.44-19,5.85-37.84,26.51-51.65,56.67-15.13,33-22.77,74.38-21.51,116.39a333.4,333.4,0,0,0,43,153.59c20.09,35.46,40,55.14,40.16,55.34l.26.26Z"/><path class="cls-5" d="M426.05,2202a2.52,2.52,0,0,1-2.44-1.95c-.13-.56-13-56.92-21.77-135.32-8.12-72.4-14.37-179,2-275.54a2.5,2.5,0,1,1,4.93.83c-16.28,96-10.06,202-2,274.08,8.77,78.14,21.56,134.28,21.68,134.84a2.5,2.5,0,0,1-1.87,3A2.77,2.77,0,0,1,426.05,2202Z"/><g class="cls-6"><path class="cls-5" d="M396,1987.6a2.5,2.5,0,0,1-1.52-.52C345,1949.22,324,1890,323.78,1889.39a2.5,2.5,0,0,1,4.72-1.64c.2.58,20.72,58.44,69.05,95.36a2.5,2.5,0,0,1-1.52,4.49Z"/></g><path class="cls-5" d="M396.06,1933.31a2.5,2.5,0,0,1-1.52-4.49c.47-.36,47.1-36.2,60-75.3a2.5,2.5,0,0,1,4.75,1.57c-7,21.27-23.46,41.28-36,54.32a249.35,249.35,0,0,1-25.73,23.39A2.52,2.52,0,0,1,396.06,1933.31Z"/><g class="cls-7"><path class="cls-5" d="M403.69,2061.1a2.46,2.46,0,0,1-1.69-.66,2.5,2.5,0,0,1-.15-3.53c.48-.52,47.89-52.51,68.27-107.82a2.5,2.5,0,0,1,4.69,1.73c-20.73,56.25-68.8,109-69.28,109.48A2.51,2.51,0,0,1,403.69,2061.1Z"/></g><path class="cls-5" d="M410.64,2115.74a2.73,2.73,0,0,1-.5,0c-18.94-3.84-39.69-19.72-61.67-47.22a329.5,329.5,0,0,1-27.26-40,2.5,2.5,0,1,1,4.36-2.43c.43.76,42.95,76.08,85.56,84.71a2.5,2.5,0,0,1-.49,4.95Z"/><path class="cls-8" d="M215.57,2179.4s-76-126-37.3-294.73,174.23-257.62,208.94-151.05-49,406.07-102.39,457.46S215.57,2179.4,215.57,2179.4Z"/><path class="cls-5" d="M247.38,2214.25a28.09,28.09,0,0,1-7.71-1.07c-18.76-5.37-25.9-29-26.89-32.61-2.21-3.79-20-35.16-33.28-84.47-13-48.3-24.31-124.32-4.15-212.11,12.5-54.46,36.35-105.11,67.14-142.62,28.68-34.95,61.17-55.71,89.13-57,27.15-1.21,47.91,15.93,58.44,48.28,15.57,47.8,8.81,141.65-18.1,251.07-24.58,100-58.76,184.17-85.06,209.48C272.4,2207.21,259.14,2214.25,247.38,2214.25Zm-28.9-35.58c.1.38,6.32,24,22.86,28.75,11.36,3.24,25.29-3,41.4-18.5,25.15-24.21,59.44-109.17,83.4-206.59,26.64-108.38,33.46-201,18.22-247.78-9.77-30-27.91-45.25-52.47-44.15-26.26,1.17-57.16,21.14-84.77,54.77-30.21,36.81-53.62,86.59-65.92,140.17-19.86,86.48-8.77,161.38,4,209,13.88,51.63,32.72,83.21,32.91,83.52l.23.38Z"/><path class="cls-5" d="M241.56,2218.69h-.07a2.5,2.5,0,0,1-2.43-2.57c0-.75,2.31-76.36,17.05-178.54,13.61-94.34,40.93-231.29,93.77-348a2.5,2.5,0,0,1,4.55,2.07c-52.59,116.18-79.8,252.62-93.36,346.62-14.7,101.91-17,177.29-17,178A2.5,2.5,0,0,1,241.56,2218.69Z"/><g class="cls-6"><path class="cls-5" d="M274.27,1937.25a2.53,2.53,0,0,1-2-1c-50.52-64.29-57.63-146.07-57.7-146.89a2.5,2.5,0,1,1,5-.4c.07.8,7.09,81.12,56.65,144.2a2.49,2.49,0,0,1-.42,3.51A2.46,2.46,0,0,1,274.27,1937.25Z"/></g><path class="cls-5" d="M292.28,1868.52a2.5,2.5,0,0,1-.95-4.82c.72-.29,72.28-30.21,101.83-75.62a2.5,2.5,0,0,1,4.19,2.73c-8.79,13.51-27,34.28-63.66,56.54a332.21,332.21,0,0,1-40.46,21A2.44,2.44,0,0,1,292.28,1868.52Z"/><g class="cls-7"><path class="cls-5" d="M259.7,2032.89a2.5,2.5,0,0,1-1.35-4.61c.78-.5,78.6-50.59,123-114a2.5,2.5,0,0,1,4.1,2.87c-45,64.19-123.63,114.8-124.42,115.31A2.54,2.54,0,0,1,259.7,2032.89Z"/></g><path class="cls-5" d="M250.45,2104.39a2.48,2.48,0,0,1-1.09-.25c-22.72-11.1-43.8-38-62.65-80a432.28,432.28,0,0,1-21.49-59.57,2.5,2.5,0,0,1,4.83-1.27c.3,1.11,29.68,111,81.5,136.32a2.5,2.5,0,0,1-1.1,4.75Z"/><path class="cls-8" d="M506.06,2172.9s-10.09-92.75,57.29-179.46,169-101.6,160.51-31-136.68,220.43-181.1,235.72S506.06,2172.9,506.06,2172.9Z"/><path class="cls-5" d="M525.28,2204.57c-6.23,0-11.28-1.66-15.11-5-9.6-8.32-7.61-23.88-7.14-26.81-.32-3.43-2.09-25.67,3.45-57.62A280.36,280.36,0,0,1,561,1991.6c21.84-28.11,49.23-51,77.11-64.4,26.11-12.57,50.67-15.84,67.37-9,16.43,6.76,24,22.57,21.38,44.53-3.84,31.84-32.9,84.21-77.72,140.1-41,51.08-83.32,90.5-105.38,98.1Q533.26,2204.56,525.28,2204.57ZM509,2173.46c0,.15-2.69,14.88,5.11,21.61,5.35,4.62,14.65,4.69,27.66.22,20.76-7.15,63-46.7,102.66-96.18,44.15-55.05,72.73-106.3,76.44-137.07,2.33-19.31-3.79-32.54-17.71-38.26-15.12-6.22-37.9-3-62.48,8.82-27.06,13-53.69,35.29-75,62.68a274.31,274.31,0,0,0-53.33,120.92c-5.76,33.23-3.37,56.15-3.35,56.38l0,.44Z"/><path class="cls-5" d="M511.17,2203.51a2.45,2.45,0,0,1-1.11-.27,2.49,2.49,0,0,1-1.12-3.35c.21-.43,21.75-43.35,57.55-98.21,33.07-50.67,85.42-122.21,147.08-175.3a2.5,2.5,0,0,1,3.26,3.79c-61.2,52.69-113.23,123.8-146.11,174.18-35.66,54.64-57.1,97.35-57.31,97.77A2.5,2.5,0,0,1,511.17,2203.51Z"/><g class="cls-6"><path class="cls-5" d="M605.17,2050.39a2.49,2.49,0,0,1-2.43-1.93c-11.94-50.73,5.91-99.92,6.09-100.41a2.5,2.5,0,1,1,4.69,1.74c-.18.47-17.5,48.3-5.91,97.53a2.52,2.52,0,0,1-1.86,3A2.93,2.93,0,0,1,605.17,2050.39Z"/></g><path class="cls-5" d="M638.82,2015.76c-3,0-4.84-.08-5-.09a2.5,2.5,0,0,1,.21-5c.5,0,49.37,1.92,78.25-16.15a2.5,2.5,0,0,1,2.65,4.24c-12.72,8-30.25,13.22-52.1,15.64A221.86,221.86,0,0,1,638.82,2015.76Z"/><g class="cls-7"><path class="cls-5" d="M571.24,2101.5a2.5,2.5,0,0,1-.33-5c.58-.08,58.55-8.08,100.85-32.56a2.5,2.5,0,0,1,2.51,4.33c-43.18,25-102.11,33.11-102.7,33.18A1.84,1.84,0,0,1,571.24,2101.5Z"/></g><path class="cls-5" d="M546.82,2140.15a2.51,2.51,0,0,1-1.94-.93c-10.24-12.62-15.24-33.92-14.86-63.32a276.36,276.36,0,0,1,3.57-40.15,2.5,2.5,0,0,1,4.92.89c-.13.71-12.52,71.36,10.25,99.43a2.5,2.5,0,0,1-1.94,4.08Z"/><path class="cls-4" d="M160.49,2197.67s-95.06-69.56-119.1-206.62,47.86-245.09,106.52-177,90.32,316,67.1,370.67S160.49,2197.67,160.49,2197.67Z"/><path class="cls-5" d="M186.07,2215.42c-14.27,0-25.56-13.67-27.35-16-2.85-2.15-25.66-19.83-50.74-52.17a355.89,355.89,0,0,1-69.05-155.81c-7.77-44.3-6-89.31,5-126.73,10.25-34.88,27.72-60.38,47.95-70,19.57-9.27,40.14-3,57.92,17.64C176.12,1843,200.36,1914.6,214.63,2004c13.05,81.72,14.12,154.73,2.68,181.69-7.75,18.24-17.37,28.19-28.58,29.55A21.94,21.94,0,0,1,186.07,2215.42Zm-23.57-19.25c.19.25,12.09,15.78,25.64,14.12,9.31-1.14,17.57-10.07,24.57-26.54,10.93-25.75,9.7-99.34-3-178.94-14.14-88.54-37.95-159.25-63.68-189.12-16.42-19.06-34.4-24.72-52-16.38-18.94,9-35.45,33.34-45.3,66.85-10.77,36.7-12.5,80.89-4.86,124.46a350.71,350.71,0,0,0,68,153.45c26.26,33.91,49.92,51.41,50.15,51.58l.3.22Z"/><path class="cls-5" d="M191,2219.31a2.5,2.5,0,0,1-2.34-1.59c-.21-.57-22.07-57.3-43-137.58C126.31,2006,103.76,1896,106.26,1793.05a2.5,2.5,0,1,1,5,.12c-2.49,102.37,20,211.84,39.23,285.64,20.89,80,42.66,136.54,42.88,137.1a2.49,2.49,0,0,1-1.43,3.23A2.39,2.39,0,0,1,191,2219.31Z"/><g class="cls-6"><path class="cls-5" d="M127.5,2000.71a2.41,2.41,0,0,1-1.21-.32c-57.25-31.93-88-90.39-88.29-91a2.5,2.5,0,1,1,4.44-2.3c.29.57,30.38,57.74,86.28,88.91a2.5,2.5,0,0,1-1.22,4.69Z"/></g><path class="cls-5" d="M119.35,1944.19a2.49,2.49,0,0,1-1.78-4.25,260.52,260.52,0,0,0,22.8-27.68c10.76-15,24.42-37.58,28.36-59.81a2.5,2.5,0,0,1,4.92.87c-4.1,23.18-18.18,46.46-29.27,61.92a265.49,265.49,0,0,1-23.24,28.2A2.5,2.5,0,0,1,119.35,1944.19Z"/><g class="cls-7"><path class="cls-5" d="M146.55,2076.07a2.49,2.49,0,0,1-2.06-3.91c.41-.61,41.95-61.9,54.85-122.57a2.5,2.5,0,0,1,4.89,1C191.12,2012.29,149,2074.36,148.61,2075A2.47,2.47,0,0,1,146.55,2076.07Z"/></g><path class="cls-5" d="M162,2131.9h-.14c-20.27-1.13-44.23-14.54-71.23-39.83a346.65,346.65,0,0,1-34.38-37.47,2.5,2.5,0,1,1,4-3c.56.72,56.2,72.77,101.92,75.34a2.5,2.5,0,0,1-.14,5Z"/><path class="cls-9" d="M453.74,2158.75s-54.38-115.74-6-258.84,173.11-208.62,193.57-113.22S563,2134.75,512.41,2174.78,453.74,2158.75,453.74,2158.75Z"/><path class="cls-5" d="M480.68,2191.7a24.31,24.31,0,0,1-9.11-1.71c-15.69-6.24-19.72-27.34-20.25-30.52-1.53-3.4-14.1-32.13-21.19-76.08a386.08,386.08,0,0,1,15.27-184.28C461,1852.88,486.13,1811,516,1781.05c27.88-27.86,57.73-43,81.93-41.65,23.37,1.34,39.64,17.95,45.82,46.77,9.17,42.76-5,123.57-37.91,216.17-30.08,84.61-67,154.7-91.92,174.4C501.39,2186.7,490.24,2191.7,480.68,2191.7Zm-24.46-33.31c0,.33,3.32,21.44,17.21,27,9.54,3.79,22.13-.43,37.43-12.54,23.85-18.87,61-89.66,90.31-172.15,32.61-91.76,46.72-171.56,37.73-213.45-5.75-26.8-20-41.61-41.22-42.83-22.77-1.31-51.24,13.34-78.1,40.19-29.39,29.38-54.05,70.62-69.44,116.13a381,381,0,0,0-15.1,181.7c7.39,46,20.83,75,21,75.27l.16.34Z"/><path class="cls-5" d="M472.88,2195.38l-.32,0a2.51,2.51,0,0,1-2.16-2.81c.09-.65,8.78-66.05,30.57-153.45,20.12-80.69,55.86-197.19,111.81-294a2.5,2.5,0,1,1,4.33,2.5c-55.65,96.27-91.23,212.27-111.27,292.62-21.73,87.14-30.4,152.31-30.48,153A2.51,2.51,0,0,1,472.88,2195.38Z"/><g class="cls-6"><path class="cls-5" d="M526.09,1954a2.52,2.52,0,0,1-2.12-1.17c-37.9-60.15-36.76-131.79-36.75-132.51a2.5,2.5,0,0,1,5,.11c0,.71-1.09,70.89,36,129.73a2.51,2.51,0,0,1-2.11,3.84Z"/></g><path class="cls-5" d="M547.73,1896a2.5,2.5,0,0,1-.73-4.89c.65-.2,64.92-20,94.37-56.81a2.5,2.5,0,1,1,3.9,3.12c-8.8,11-26.35,27.5-60,43.7a289,289,0,0,1-36.8,14.77A2.57,2.57,0,0,1,547.73,1896Z"/><g class="cls-7"><path class="cls-5" d="M505,2035.75a2.5,2.5,0,0,1-1.14-4.72c.71-.37,72.21-37.17,116.1-88.3a2.5,2.5,0,0,1,3.79,3.25c-44.54,51.9-116.9,89.13-117.62,89.5A2.41,2.41,0,0,1,505,2035.75Z"/></g><path class="cls-5" d="M490.7,2097a2.55,2.55,0,0,1-1.32-.38c-18.67-11.6-34.5-36.8-47.05-74.9a378.09,378.09,0,0,1-13.25-53.55,2.5,2.5,0,0,1,4.94-.76c.15,1,15.7,98.68,58,125a2.5,2.5,0,0,1-1.32,4.63Z"/><path class="cls-10" d="M642.91,2178.54,639.26,2210l-8.11,69.91H77.79s-4.16-47.67-6.85-75.84c-1.09-11.22-1.93-19.35-2.19-20.13Z"/><path class="cls-11" d="M642.91,2178.54,639.26,2210l-568.32-5.93c-1.09-11.22-1.93-19.35-2.19-20.13Z"/><rect class="cls-12" x="56.09" y="2159.55" width="603.99" height="37.98" rx="11.35"/><polygon class="cls-13" points="1114.55 1446.47 1107.93 1416.77 1206.3 1416.77 1207.47 1434.8 1116.96 1456.84 1114.55 1446.47"/><rect x="794.49" y="1854.59" width="253.57" height="34.83" transform="translate(119.3 -54.13) rotate(3.6)"/><rect x="730.8" y="2098" width="383.79" height="34.83" transform="translate(-165.15 79.99) rotate(-4.56)"/><path class="cls-14" d="M796.66,1744.5c1.83.18-125.12,535.44-125.12,535.44H710l142.06-539.47Z"/><path class="cls-14" d="M1043.45,1744.5c-1.82.18,125.12,535.44,125.12,535.44h-38.46L988.05,1740.47Z"/><rect class="cls-11" x="710.01" y="1705.73" width="442.31" height="55.01" rx="25.59"/><rect x="2289.47" y="1854.59" width="253.57" height="34.83" transform="translate(122.25 -147.95) rotate(3.6)"/><rect x="2225.78" y="2098" width="383.79" height="34.83" transform="translate(-160.43 198.77) rotate(-4.56)"/><path class="cls-14" d="M2291.64,1744.5c1.82.18-125.12,535.44-125.12,535.44H2205L2347,1740.47Z"/><path class="cls-14" d="M2538.43,1744.5c-1.83.18,125.12,535.44,125.12,535.44h-38.47L2483,1740.47Z"/><rect class="cls-11" x="2204.98" y="1705.73" width="442.31" height="55.01" rx="25.59"/><polygon class="cls-15" points="1165.72 2061.07 1165.72 2189.15 1249.87 2189.15 1253.59 2033.51 1165.72 2061.07"/><path class="cls-15" d="M1363.81,1862.24c.74,2.23,26.06,102,26.06,102l72.23-46.92-32.85-102.76Z"/><path class="cls-16" d="M1327.32,2074.73c-94.58,19.62-217.45,3.46-217.45,3.46,3.72-105,20.85-373.08,20.85-373.08h-.07c-29.22,3-206.19-5.91-206.19-5.91s57.33-49.21,83.39-76.76c16-17,92.55-48.92,160.09-69.37,42.12-12.78,80.75-21.08,99-18.49,47.67,6.69,45.44,48.39,46.92,125.77S1327.32,2074.73,1327.32,2074.73Z"/><path d="M1286.45,1665.9c-8.83-26.54-41-38.24-99.88-27.81s-55.85,67-55.85,67h-.07c-29.22,3-206.19-5.91-206.19-5.91s57.33-49.21,83.39-76.76c16-17,92.55-48.92,160.09-69.37,54.78,2.71,100.18,24.44,118.51,44.79C1319.32,1634.37,1295.3,1692.46,1286.45,1665.9Z"/><path class="cls-16" d="M1453.91,1831.71c-35.74,39.47-133.29,68.5-133.29,68.5s-29-244.25-43.2-265.84-73-20.85-131.8,7.44S882,1718.52,808.28,1703.63c-42-8.5-61.56-52.36-70.58-88.48a270.62,270.62,0,0,1-7.61-50s165.7-111.64,241-138.68c9.47-3.39,17.5-5.46,23.6-5.79,54.57-3,83.66,37.23,83.66,37.23s68.79-14.15,123.16-23.08,82.66,1.48,128.65,66.28S1453.91,1831.71,1453.91,1831.71Z"/><path d="M1000.28,1481.09c-111.55,48.38-231.63,116.28-262.58,134.06a270.62,270.62,0,0,1-7.61-50s165.7-111.64,241-138.68C1022.09,1439.49,1046.11,1461.21,1000.28,1481.09Z"/><path class="cls-17" d="M1078.31,1352.84v105s-27.26,6.7-117.38,35.75c-19,6.1-42.17,14.52-67,24-93.2,35.59-209.26,86.2-209.26,86.2-10.43-80.42,5.21-204,5.21-204,.67-6.61,9.55-12.28,24.2-17.18,22-7.33,57.13-12.86,97-17C925.1,1353.64,1078.31,1352.84,1078.31,1352.84Z"/><path class="cls-13" d="M965.26,1036.72a62.48,62.48,0,0,1-32.71,31.62c-24.35,10.18-79.58-11.26-66.13-31.62,3-4.52,4.88-11.48,6-19.55h0l1-9.33a292.94,292.94,0,0,0-.19-37.44c-.83-13.47-2.07-23.42-2.07-23.42s92-47.25,88-26.53c-1.67,8.61-.89,30.16.6,52.4.47,7.11,1,14.28,1.58,21.13l.05.64c.58,7,1.17,13.71,1.72,19.58l.11,1.19C964.33,1028.06,965.26,1036.72,965.26,1036.72Z"/><path class="cls-11" d="M963.15,1015.38c-.3.91-.59,1.79-.88,2.65a63.54,63.54,0,0,1-8.32,16.61c-6.26,8.76-17,17.86-27.93,19.48-13,1.93-25.47-5.11-35.27-13-7.61-6.15-15-14.42-18.31-23.92h0l1-9.33a2.91,2.91,0,0,1,3.49.84c12.41,13.62,26.19,33.35,47.26,31.62,9.91-.8,17.08-6.7,22.26-15.08a91.31,91.31,0,0,0,7.25-15.28c1.78-4.66,2.76-9.71,5.22-14.07a3.87,3.87,0,0,1,2.39-1.89l.05.64,1.72,19.58Z"/><path class="cls-11" d="M959.69,972.84c-11.27,3.78-27.3,6.12-47.26,5-18.29-1-30.93-4.26-39.22-7.46-.83-13.47-2.07-23.42-2.07-23.42s92-47.25,88-26.53C957.42,929.05,958.2,950.6,959.69,972.84Z"/><path class="cls-17" d="M1210.2,1376.52c-.46,3.79-55.79,6-131.89,7-78,1.08-177.82,1-262.73.32-37.89-.3-72.82-.72-101.5-1.22-40.23-.68-68.19-1.5-74.91-2.32a7.6,7.6,0,0,1-1-.14c-10.2-2-24.37-13.66-36.3-26.55a159.89,159.89,0,0,1-17.46-22.29l0,0c-2.9-4.62-4.82-8.64-5.37-11.48-6.66-34.51,33.7-127.52,77.32-170.41s82.13-64.33,78.86-68.32,15.63-17.08,34.89-27.63,92.31-34.15,95.94-34.52c2-.19,31.28,34.51,57.78,31.91,22.4-2.19,42.25-41.25,47.24-46.08,0,0,51.25,24.93,77.77,46.08s64.69,67.66,86.14,105.46S1211.65,1364.53,1210.2,1376.52Z"/><path class="cls-14" d="M879.86,1017.46s14.87,33.62,41.67,33.5c28.86-.13,46.57-42.54,46.57-42.54s3.24-11.63,13.78,6.54,28.71,82.13,24.71,84-52.87-34.19-73.94-34.19-63.79,30.19-70.34,48.73S857.23,1064,864.5,1036,879.86,1017.46,879.86,1017.46Z"/><path class="cls-13" d="M944.64,960c-55.22,8.6-95.16-1.42-120.14-22.73C808.8,923.9,799,906.05,795,885.58c-10.32-53.06,5.16-127.5,52.32-151.82s108.34-21.37,108.34-21.37c1.66.55,36,10.32,57.52,49.81,7,12.9,12.72,29,15.44,48.95.24,1.74.48,3.47.69,5.19a381.82,381.82,0,0,1,3.48,42.09C1033.81,913,1015.69,949,944.64,960Z"/><path class="cls-11" d="M1013.21,762.2h0s-33.1-38-59-36.93-24.92,29.58-55,35.62-71.37,5-61.81,45.62,25.28,65.57,13,61.47-19.81-16.19-31.07.44,13.94,47.7,11.24,58a28.66,28.66,0,0,1-6.07,10.91C808.8,923.9,799,906.05,795,885.58c-10.32-53.06,5.16-127.5,52.32-151.82s108.34-21.37,108.34-21.37C957.35,712.94,991.67,722.71,1013.21,762.2Z"/><path class="cls-14" d="M893.93,1517.64c-93.2,35.59-209.26,86.2-209.26,86.2-10.43-80.42,5.21-204,5.21-204,.67-6.61,9.55-12.28,24.2-17.18-40.23-.68-68.19-1.5-74.91-2.32,10.83-27.11,23.18-48.46,36.73-58.09,32.17-22.87,118.7-105.06,118.7-105.06s-.55,72.56,16.51,148.42q2.05,9.12,4.47,18.27C829.82,1437.92,853.75,1490.87,893.93,1517.64Z"/><path class="cls-5" d="M873.42,1007.61s20.25,32.39,45.32,41.84,42.92-50.88,42.92-50.88,3.24-11.63,13.78,6.54,28.71,82.13,24.71,83.95-55.24-38.23-76.32-38.23-61.42,34.23-68,52.77-5.09-49.43,2.18-77.41S873.42,1007.61,873.42,1007.61Z"/><path d="M1013.2,762.2c-1.34-2,3.76-10.69,4.47-12.82,1.49-4.45,2-9.34,2.53-14,1.34-10.84,1.95-21.9-.14-32.7-3-15.35-12.48-30.4-27.25-35.57-13.83-4.84-29.14-.3-43.69-2.12-10.5-1.32-20.15-5.89-29.94-9.63-10.38-4-19.25-5.19-30.2-5.15-27.69.09-49.24,14-65.06,35.88-14.63,20.26-30.31,39.68-54.08,49.11-10.68,4.23-23.52,8.69-29.55,19.28-6.71,11.81-.39,26,4.18,37.39,5.23,13,9.77,26.65,7.39,40.85-3.5,20.88-11.51,47.93,8.53,63.23,28,21.37,45.23,55,60.94,38.53s-14.51-18.64-11.56-51.06S827.62,849.6,840,858.31c23.28,16.4,4.83,3.21-6.22-30.69s.39-63,32.08-65.21,41.21-11.7,54.47-28.65,39.69-18.45,58.51-6.91C992.58,735.28,1004.36,748.81,1013.2,762.2Z"/><path class="cls-14" d="M601.89,1353.6a159.89,159.89,0,0,1-17.46-22.29l0,0c-.37-.68-7.17-13.77,4.22-25.41,11.71-12,33.88-32.38,71.48-26.41C660.11,1279.46,579.27,1297,601.89,1353.6Z"/><path d="M974.47,1228.23a298.61,298.61,0,0,0,34.24-9.44l16-5.27c5.21-1.73,11.72-3.28,15.61-7.31,2.94-3,.52-7.12-3.15-7.61-5.4-.72-11.49,2.22-16.49,4l-16.76,6a298.84,298.84,0,0,0-32,13.48c-3.54,1.78-1,6.8,2.56,6.09Z"/><path class="cls-13" d="M973.71,1258c-11.46,16.68-66.51,20.67-71.24,20.18s-11.21-10.22-16.94-20.43c-5.46-9.74,1.76-21.06,2.44-22.09a.34.34,0,0,1,0-.08c-12.7-8-29.88-31.13-29.88-31.13s-87.68,101.87-132.27,139c-26.69,22.22-55.62,33.64-76.24,37.51l-2.8.5h-.06c-12.35,2-21.3,1.08-24.26-1.89-8-8-20.62-26-20.62-26-7.23-9.88-14-33,5.17-53.22s53.05-20.92,53.05-20.92,113.33-89.17,149.21-111.09,60.52-27.15,78.95-22.17,98.64,46.83,104.86,57a10,10,0,0,1,1.25,3.41C996.66,1218.71,984.07,1243,973.71,1258Z"/><g class="cls-18"><path class="cls-19" d="M646.77,1381.48c-12.35,2-21.3,1.08-24.26-1.89-8-8-20.62-26-20.62-26-7.23-9.88-14-33,5.17-53.22s53.05-20.92,53.05-20.92-57.64,32.7-44.47,70.71C625.83,1379.59,640.61,1381.93,646.77,1381.48Z"/></g><path class="cls-19" d="M888,1235.62s9.75,7.67,16,7.92,2.5,12.5-2.25,11.5-17.31-11.59-17.31-11.59S885.27,1237.7,888,1235.62Z"/><g class="cls-18"><path class="cls-19" d="M973.71,1258c-11.46,16.68-66.51,20.67-71.24,20.18s-11.21-10.22-16.94-20.43c-5.46-9.74,1.76-21.06,2.44-22.09a.34.34,0,0,1,0-.08s11,7.58,17.85,8.51c0,0,32.39-5.84,61.14-19.33,13.47-6.33,22-12.93,27.37-18.15C996.66,1218.71,984.07,1243,973.71,1258Z"/></g><path class="cls-19" d="M858.14,1204.49s-2.92-11.8-15.69,2.16-54.32,75.67-54.32,75.67Z"/><path class="cls-14" d="M1109.93,1217.7s-15.37-4.06-23.21,9.58-8.41,155.26-8.41,155.26l15.81,1.8s-4.78-125.84,1.89-141.89,11.6-16,13.92-18.66S1109.93,1217.7,1109.93,1217.7Z"/><path class="cls-11" d="M838.67,879.59a8.59,8.59,0,0,0-7.65-5.94,7.65,7.65,0,0,0-1.66.13,3.65,3.65,0,0,0-1.94.61,9.22,9.22,0,0,0-4.23,4,8.9,8.9,0,0,0,.56,9.38c2.22,3.14,6.2,5.12,9.85,3.21a3.27,3.27,0,0,0,1.83-2.72A7.58,7.58,0,0,0,838.67,879.59Z"/><path d="M894,826.88c-5,5-2.4,16.88,1.69,21.77,5.73,6.85,18.41,4.61,18.07-5.57-.13-3.94-2.28-7.46-4.21-10.78s-4-7.75-7.54-9.28c-10.21-4.41-14.84,12.83-6.22,16.8a5.28,5.28,0,0,0,6.07-.78c2.73-2.28,2.13-4.84,2.86-7.85L903,834.13l.48-.45L897,835.4l.67.17-2.95-1.72a34.15,34.15,0,0,1,3.38,5.84c.56,1,1.06,2.84,1.87,3.68,1.3,1.34,6.64-1.54,5.82-3.74-.72-1.93-1.94-3.52-2.52-5.6-.71-2.58-1-5.34-3.16-7.15-1.79-1.47-4.34-1.8-6.1,0Z"/><path d="M996.21,798.86c-2.31,5.07-1.67,10.4.9,15.26s8.3,9.14,13.82,6,5.19-9.41,2.94-14.4c-1.88-4.17-5.25-7.74-8.34-11.07-2.45-2.64-8.07-2.36-9.64,1.25-3.53,8.11.68,17,7.65,21.77,5.41,3.73,11.83-3.49,8.74-8.74-2.08-3.52-4.85-5.63-4.95-9.94l-10.48,4.34a27.74,27.74,0,0,1,3.82,4.15,10.94,10.94,0,0,1,1.16,2.19,8.73,8.73,0,0,0,.28,1q.38,2.79,1-1.86l3.06-1.78-.69.17h3.76c-1.07-.26-.93-.05.41.62-.1.38-.28.15-.56-.69-.23-.59-.7-1.18-1-1.75-1-2.11-1.68-4.36-2.59-6.51-1.53-3.6-7.73-3.46-9.32,0Z"/><path d="M876.27,811.41c2.64-5.39,7-11.57,12.52-14.22,5.82-2.78,12.12-1.05,18-2.91a2.55,2.55,0,0,0,0-4.88c-6.29-2.15-15.6-.28-21.3,2.91-7.07,4-8.88,10.6-11.89,17.54-.78,1.78,1.78,3.38,2.67,1.56Z"/><path d="M979.31,771.84c2.52-3.71,6.4-6.87,10.91-7.7,4.14-.77,7.48,1.16,11.47,1.25a2.13,2.13,0,0,0,1.83-3.17c-3-4.94-10.55-5.07-15.5-3.42-5.81,1.93-9.54,6.19-11.79,11.74-.76,1.87,2.08,2.79,3.08,1.3Z"/><path class="cls-11" d="M972.86,826.86c4,6.69,8.2,12.09,9.92,19.95.61,2.79,2.33,8.89.06,11.2-1.29,1.3-3.82.67-5.38,1a7.32,7.32,0,0,0-4.07,2.1,3.37,3.37,0,0,0,0,4.71c3.7,3.72,10.39,2.4,14.37-.47,4.58-3.3,4.93-8.2,4.34-13.41-1.17-10.29-6.52-22.93-15.58-28.7-2.28-1.44-5,1.41-3.66,3.66Z"/><path class="cls-16" d="M936.07,893.38c11.48,8.17,25.64,14.08,40,12.65,10.22-1,26.4-6.5,29.94-17.47.61-1.88-1.76-3.8-3.44-2.65-4.46,3-7.58,7.33-12.45,10a39.13,39.13,0,0,1-16.27,4.58c-12.88.79-25-3.83-35.6-10.8-2.34-1.54-4.4,2.14-2.17,3.72Z"/><g class="cls-20"><path class="cls-21" d="M918.37,878.14c-2.57-8.78-11-14.53-19.58-16.51-10.55-2.43-21.1,2.68-23.4,13.78a24.92,24.92,0,0,0,10.45,25.26c8.33,5.66,20.36,4.72,27.41-2.58a22.25,22.25,0,0,0,5.12-20Z"/></g><g class="cls-20"><path class="cls-21" d="M1032.82,858.43a21.1,21.1,0,0,1-6.6-3,24.92,24.92,0,0,1-10.44-25.26,17.49,17.49,0,0,1,13.56-13.86A381.82,381.82,0,0,1,1032.82,858.43Z"/></g><path d="M734.88,798.73c11.13,18-1.85,38.6-5.31,56.9-3.17,16.73-.18,39.39,17.26,47.33,2.86,1.31,7.18-1.66,4.87-4.87-5-6.91-10.34-13.74-12.3-22.18-2.33-10,.43-20.55,2.75-30.34,3.77-15.87,6.5-34.77-3.79-48.88-1.49-2.05-4.87-.22-3.48,2Z"/><path d="M1004.2,664.24c12.68,7.48,20.52,21.51,23.23,35.72,1.6,8.37,1.47,17.08.67,25.54a107.86,107.86,0,0,1-2.19,13.5c-.85,3.79-2.42,7.57-2.36,11.48,0,2.74,3.35,3.26,4.8,1.3,2.62-3.54,3.52-8.53,4.64-12.74a120.74,120.74,0,0,0,3-14.84,72.69,72.69,0,0,0-1.49-27.75c-4-15.56-13.47-28.93-27.75-36.58-2.86-1.53-5.37,2.71-2.55,4.37Z"/><path class="cls-14" d="M745,1086.64a94.3,94.3,0,0,1,24,28.24,77.89,77.89,0,0,1,6.93,17.47,80.38,80.38,0,0,1,1.73,8.41c.47,3.08.34,6.3,2.1,8.94,1.45,2.18,5.23,2.73,6.56,0,2.73-5.65-.06-14-1.76-19.73a87.64,87.64,0,0,0-8-18.64,75.8,75.8,0,0,0-28.48-28.74c-2.45-1.37-5.48,2.15-3.12,4.05Z"/><path class="cls-14" d="M1104.63,1132.15c2.74,10.15,1.74,21.93,0,32.2-.69,4.06-6.88,21.33,2.07,20.35,4.13-.45,4.84-5.4,5.48-8.65,1-5,1.84-10,2.43-15a66.61,66.61,0,0,0-3.22-30.74c-1.46-4.24-8-2.55-6.78,1.87Z"/><path class="cls-19" d="M920.36,1276.82A157,157,0,0,0,932,1255.17c2.76-6.14,7.91-14.46,7.36-21.33a3,3,0,0,0-5-2.09c-5,5-6.66,14.06-9.26,20.49-3.08,7.59-6.25,15-9.06,22.74-1,2.65,3,4,4.37,1.84Z"/><path class="cls-19" d="M944.61,1273.51c6.34-6.53,10.6-15,14.35-23.18,1.85-4.06,3.48-8.22,5-12.42,1.41-4,3.51-8.51,3.05-12.81a2.42,2.42,0,0,0-4.46-1.2c-2.6,3.43-3.33,8.29-4.77,12.31-1.52,4.23-3.23,8.4-5,12.52-3.4,7.83-7.85,15.16-11,23.09-.66,1.67,1.76,2.86,2.89,1.69Z"/><path d="M839.68,1273.75a301.35,301.35,0,0,0,34.25-9.43l15.94-5.27c5.22-1.73,11.72-3.28,15.61-7.32,2.94-3,.52-7.11-3.15-7.6-5.4-.72-11.48,2.21-16.49,4-5.59,2-11.17,4-16.76,6a298.52,298.52,0,0,0-32,13.48c-3.54,1.77-1,6.8,2.56,6.08Z"/><path class="cls-5" d="M976.22,1213.75a21.57,21.57,0,0,0,6.34-2.09c2-.84,4.68-1.67,5.07-4.1a2.86,2.86,0,0,0-1.28-3.12c-2.46-1.13-4.31.17-6.47,1.36-1.89,1-4,1.84-5.62,3.23s-.38,4.93,2,4.72Z"/><path d="M1274.11,1635.23c4.35,7.55,6,15.9,7.63,24.35q2.48,12.93,4.66,25.89c2.88,17.37,6.19,34.67,9.08,52,5.84,35,11.17,70.11,15.12,105.41q1.64,14.64,3,29.33c.44,4.83.87,9.66,1.26,14.5s.35,9.89,1.79,14.56c1.1,3.56,7.29,4.28,8,0,1.27-8.22-.47-17.18-1.21-25.43q-1.19-13.26-2.62-26.52-2.91-27.09-6.73-54.06c-5-35.92-10.63-72.14-19.39-107.37q-3.5-14.06-7.1-28.09c-2.38-9.22-5-18.43-10.45-26.36-1.25-1.81-4.12-.21-3,1.75Z"/><path d="M1223,1628c16.22,1.42,32.66-1.61,48.19-6.29a198.67,198.67,0,0,0,22.91-8.63c6.7-3,15.19-6,18.08-13.19.76-1.91-.86-4.84-2.92-5.13-7.19-1-13.58,3.76-19.87,6.78a194.57,194.57,0,0,1-22.21,8.92c-14.71,5-29.94,7.8-45,11.28-3.71.86-2.55,6,.85,6.26Z"/><path d="M1165.72,2149.81s57,1.6,85.09,0c0,0,7.25-3.21,19.17,28.11s137.76,57.84,152.66,77.12,0,24.9,0,24.9H1152.32S1156,2130.53,1165.72,2149.81Z"/><path class="cls-5" d="M1169.91,2268c16.64.79,33.18,1.73,49.84,1.73h97.69q12,0,23.93-.27c8.14-.19,16.5.22,24.48-1.54a2.13,2.13,0,0,0,0-4.07c-7.67-1.69-15.66-1.33-23.49-1.51q-12.46-.3-24.92-.3h-97.69c-16.66,0-33.2.94-49.84,1.74a2.11,2.11,0,0,0,0,4.22Z"/><path class="cls-5" d="M1383.87,2267.72a108.55,108.55,0,0,0,11.65,1.12c4.58.14,4.59-7.26,0-7.12a108.55,108.55,0,0,0-11.65,1.12c-2.41.34-2.42,4.55,0,4.88Z"/><path d="M1378.17,1918.22s57.87-11.3,75.74-32.15c0,0,8.68,2.23,23,29s131.93,91.6,131.93,91.6,10,78-24.78,77.74-212-90.4-212-90.4S1368,1905.7,1378.17,1918.22Z"/><path class="cls-5" d="M1385.09,1983.53c17.51,12.37,37.38,21.92,56.58,31.34q14.1,6.92,28.41,13.4c8.91,4,19.23,9.63,29,10.76,1.92.22,3.13-2.72,1.63-3.92-7.49-6-18.06-9.47-26.79-13.38q-14.78-6.62-29.34-13.7c-19.1-9.29-37.65-20-57.07-28.63a2.39,2.39,0,0,0-2.41,4.13Z"/><path class="cls-5" d="M1509,2043.22c5.79,2.8,11.55,5.67,17.38,8.41,5.26,2.46,11,5.83,16.66,7,2.67.54,3.79-2.64,1.77-4.2-4.66-3.59-11.07-5.74-16.44-8.11-5.61-2.48-11.27-4.87-16.91-7.3-2.81-1.22-5.32,2.82-2.46,4.21Z"/><path class="cls-5" d="M931.3,884.42a30.21,30.21,0,1,1,30.2-30.21A30.24,30.24,0,0,1,931.3,884.42Zm0-57.41a27.21,27.21,0,1,0,27.2,27.2A27.23,27.23,0,0,0,931.3,827Z"/><path class="cls-5" d="M1024.06,859.14a30.21,30.21,0,1,1,30.21-30.21A30.24,30.24,0,0,1,1024.06,859.14Zm0-57.41a27.21,27.21,0,1,0,27.21,27.2A27.23,27.23,0,0,0,1024.06,801.73Z"/><g class="cls-22"><circle class="cls-5" cx="931.3" cy="854.21" r="28.7"/><circle class="cls-5" cx="1024.06" cy="828.93" r="28.7"/></g><path class="cls-5" d="M958.41,842.76c4.29-4.75,7.18-10.67,12.3-14.67,5.48-4.28,15.3-5.84,21.72-2.72,3.25,1.58,5.93-2.88,2.85-4.86-6.6-4.24-17.93-2.87-24.51.88-7.31,4.16-12.5,12.06-14.6,20.06a1.35,1.35,0,0,0,2.24,1.31Z"/><path class="cls-5" d="M844.84,864.24c18.3,1.4,36.77-.71,55-2.48,4.37-.43,4.43-7.3,0-6.89-18.52,1.71-37.3,2.48-55.49,6.1-1.95.38-1.33,3.14.44,3.27Z"/><path class="cls-14" d="M405.48,1409.65c2.73.29-187.11,869.27-187.11,869.27h34.15l214.42-875.81Z"/><path class="cls-14" d="M1680.22,1409.65c-2.74.29,187.1,869.27,187.1,869.27h-34.14l-214.42-875.81Z"/><rect class="cls-11" x="252.52" y="1372.2" width="1577.43" height="44.56" rx="20.72"/><path class="cls-13" d="M1663.59,2086l-44.83,107.61,94.9,39.6s51.56-90.42,49.32-118.07S1663.59,2086,1663.59,2086Z"/><path class="cls-17" d="M1636.53,2151s59.22,36.32,97,45.09c0,0,7.11,5,0,20s-24.64,76.22-42.58,74.73-231.63-86.38-255.47-143.92c-17.66-42.6,27.15-25.71,49.57-19.73S1625,2144.19,1636.53,2151Z"/><path class="cls-13" d="M2073.47,2099.74l7.16,116.36,102.65-6.27s6.44-103.88-7.75-127.72S2073.47,2099.74,2073.47,2099.74Z"/><path class="cls-17" d="M2077.79,2178.8s69.17,6.52,106.9-2.23c0,0,8.6,1.39,8.8,17.94s11.47,79.28-5.29,85.84-246,24.52-292.75-16.62c-34.62-30.47,13-35.05,35.8-39.56S2064.44,2177.79,2077.79,2178.8Z"/><path class="cls-13" d="M1717.1,1337.25a33.06,33.06,0,0,1-2.14,8.29c-7.65,19.74-33.21,44.24-55.38,52.8-25.41,9.81-25.85-3.56-25.85-3.56s32.1-23.64,18.27-24.52-92.29,4.9-97.19,0,16-8,45.92-18.29c19.32-6.63,39-17.48,50.55-24.32,6.29-3.72,10.13-6.25,10.13-6.25C1669.8,1308.28,1719.33,1316.75,1717.1,1337.25Z"/><path class="cls-11" d="M1733.1,1316.25c-.29,2.63-10,16.41-11.14,19.29-10.52-3.26-21.13-6-31.75-8.91-6.14-1.68-12.32-4.18-18.5-5.73-4.7-1.18-9.38-1-13.43-3.25,6.29-3.72,19.13-17.25,19.13-17.25C1685.8,1287.28,1735.33,1295.75,1733.1,1316.25Z"/><path d="M1829.22,772.43s32.15-17.15,46.07,8.63,33.51,39.7,63.94,31.45,38.67-30.42,87.65-5.15,79.68,6.68,79.68,6.68,30.67.54,35.83-28.85-19.6-102.62-19.6-120.66-24.23-60.33-59.81-71.16-230,24.23-246,68.06-35.58,73.22-26.3,85.6S1803.44,768.83,1829.22,772.43Z"/><path class="cls-13" d="M1921.18,947.61c-19.08-9.8-4.65-107.26-4.65-107.26s23.21-8.76,29.4-19.53c3.22-5.61,3.65-27.33,3.31-46.86-.3-18-1.25-34.15-1.25-34.15l75.8-8.25s-.18,13.61,0,29.8c.24,22.27,1.15,49.42,4.13,52.7,5.16,5.67,19.08,7.74,21.15,9.8S1940.26,957.41,1921.18,947.61Z"/><path class="cls-11" d="M2023.78,761.36c-12.59,7.13-28.07,13.14-43.58,14-14.87.86-24.63-.07-31-1.43-.3-18-1.25-34.15-1.25-34.15l75.8-8.25S2023.61,745.17,2023.78,761.36Z"/><path class="cls-11" d="M2236.39,2155.56c.79,17.44-210.8,9.52-221.1,8.23s-14.27-71.63-15.06-91.43,14.26-12.68,19-21.4-40.42-329.67-40.42-329.67l0,0c-1.64,4.82-107,313.1-112.5,328.83s0,22.17,5.51,24.56h0c5.55,2.37-37.25,82.41-47.55,88.76s-244.87-91.93-247.25-95.9,19-84,23.78-96.68,11.88-3.17,11.88-3.17S1718.11,1623,1777.55,1459s114.75-241.71,114.75-241.71,89.77-12.34,157.46-20.25h0c38-4.44,69-7.49,73.29-6.16,11.89,3.68,37.24,12.16,65,111.21s21.4,261.52,29.33,336.8,4,413.67,19,415.25c2,.2,3.41,1.79,4.44,4.45C2247.58,2076.18,2235.7,2140.41,2236.39,2155.56Z"/><g class="cls-18"><path class="cls-16" d="M2240.83,2058.58c-20.46,6.73-70.78,4.31-70.78,4.31s4-411.67-38.17-614.5-96.08-221.11-103.79-221.5c0,0,2.38-12.34,21.67-29.86h0c38-4.44,69-7.49,73.29-6.16,11.89,3.68,37.24,12.16,65,111.21s21.4,261.52,29.33,336.8,4,413.67,19,415.25C2238.35,2054.33,2239.8,2055.92,2240.83,2058.58Z"/></g><path class="cls-13" d="M2108.87,656.27c-3.09,39.2-35.07,34.55-35.07,34.55s-.51,13.93-21.13,38.67-105.2,54.14-169.13,0a101.25,101.25,0,0,1-22-26.33,116.22,116.22,0,0,1-8.38-17.65,133.64,133.64,0,0,1-5.11-16.79c-7.28-30.89-4.3-63.65,2.1-87.14,4.57-16.72,10.86-28.74,16.4-32,6.16-3.67,16.88-6,28.58-7.44,24.55-3.06,53.41-2.35,53.41-2.35,4.12.86,13.31.34,24.79-.48,22.91-1.6,55-4.36,74.21.4C2076.38,546.82,2112,617.09,2108.87,656.27Z"/><g class="cls-20"><path class="cls-21" d="M1887.23,691.56a19.33,19.33,0,0,1-4,6.31c-5.56,5.76-14.22,7.56-21.73,5.29a116.22,116.22,0,0,1-8.38-17.65,133.64,133.64,0,0,1-5.11-16.79c4.32-6.52,12.55-9.2,20.75-7.31,8.6,2,17,7.73,19.59,16.51A18.92,18.92,0,0,1,1887.23,691.56Z"/></g><path class="cls-11" d="M2080.06,641.63s-10.42-3.06-17.73,5.54-9.26,18-13.24,14.48c-5-4.38-2.8-13.53-19-18.41s-23.34-30.67-29.46-48.67-36.93.54-57.22,7.85S1912.5,587.81,1891.8,587s-24.77,48.32-24,66.18c.59,12.92-9.23,26.06-14.71,32.33-13.38-35.31-10.58-76.12-3-103.93,13.67-15.74,30.57-27.66,40.87-36.4a42.72,42.72,0,0,1,4.11-3.08c18.28-12.08,47.22-11.74,78.2-2.83a244.85,244.85,0,0,1,50.49,21.33C2073.36,588.21,2080.06,641.63,2080.06,641.63Z"/><path class="cls-16" d="M1889.91,579a23.12,23.12,0,0,1,4.31-1.33c8-1.58,13.78,2.68,19.49,7.44a46.76,46.76,0,0,0,21.18,10c10.23,1.93,20.51-.55,29.61-5.36,6.22-3.29,12.15-7.22,18.78-9.6,16.63-6,29,5,31.61,21.27,1,6.31,1.19,12.8,3.08,18.91,3.4,11,11.72,18.34,22.07,22.67a25.54,25.54,0,0,1,4.25,2,12.85,12.85,0,0,1,4.68,5.8,2.33,2.33,0,0,0,4.33-.08,1.8,1.8,0,0,1,.08-.21c5.4-13.59,25.95-10.94,36.38-5.48,15.13,7.9,15.24,24.11,8.23,38-17.48,34.59,37.18,61.4,30.47,94.92-4.11,20.57-13.86,29.68-20.78,33.65a2.32,2.32,0,0,0,1,4.32c13.13,1.16,38.95-.31,59.54-24.57,28.87-34-41.25-71.15-25.27-96.94s48.47-55.17,8.77-83.53-46.55-26.3-42.61-55.17-9.47-59.3-40.41-49.5-46.41,10.83-63.94-6.19-66.52-35.06-81-8.25-12.38,35.58-41.25,35.06-76.32-8.25-69.1,40.74,2.58,60.33-20.62,73.22-60.85,70.64-21.66,106.73c26.3,24.23,45.87,27.55,55.89,27.11a2.32,2.32,0,0,0,1-4.37c-10.64-5.59-29.47-18.7-19.22-37.69,8.32-15.4,22.3-26.76,32.51-40.81,4.9-6.74,9-14.33,13.22-21.42,4.78-8,5-17.79,5.88-26.84,1-10.66,2.16-21.37,5.29-31.65a68.16,68.16,0,0,1,13.07-24.45A31,31,0,0,1,1889.91,579Z"/><path class="cls-13" d="M2170,1325.42a29.56,29.56,0,0,1-.56,4.23c-1.07,5.77-3.58,13.16-6.65,20.85-8.25,20.68-20.59,43.61-20.59,43.61-33.8-20.17-48.52-69.79-48.52-69.79,3.7-9.08,10.19-17.67,14.59-22.92,2.74-3.25,4.69-5.22,4.69-5.22a9.11,9.11,0,0,1,4.26-2.77C2132.61,1288.24,2171,1308.28,2170,1325.42Z"/><path class="cls-11" d="M2169.47,1329.65c-1.07,5.77-3.58,13.16-6.65,20.85-3.74-3-6.91-7.46-9.78-10.35q-7.2-7.23-15.05-13.76c-5.36-4.45-10.7-9-16.28-13.16-4.84-3.61-9.77-7-13.41-11.83,2.74-3.25,4.69-5.22,4.69-5.22a9.11,9.11,0,0,1,4.26-2.77c5.08,1.26,9.82,3.89,14.38,6.52a155.2,155.2,0,0,1,18.77,12.74,220.53,220.53,0,0,1,17.39,15.35C2168.32,1328.56,2168.89,1329.1,2169.47,1329.65Z"/><path class="cls-12" d="M2248.09,1245.13c-2.58,12.9-80.44,96.94-80.44,96.94s-13.41-29.9-54.66-45.89l23.21-64.46s-200.58-7.73-243.9-14.44c0,0-.16-3.62-.6-9.29-1.32-17-5.19-52.57-14.87-63.4-12.89-14.44-21.13-39.72-23.2-49.51,0,0-55.68,119.14-83.53,164.52s-42.94,69.18-42.94,69.18-35.93-14-68.88-19.14c0,0,67-146.5,93.25-222s70.65-156,74.77-168.36,64.84-68.22,77.34-72.19c2.29-.73,4.57,1.1,6.77,4.56,9.81,15.45,18,63.5,18,63.5l8.75-5.38,72.94-45,51.34-31.64s6.75,4.78,17,12.36c27.47,20.28,80.12,60.52,96.76,83,22.84,30.94,44,139.22,58.94,212.44S2250.67,1232.24,2248.09,1245.13Z"/><g class="cls-23"><path class="cls-24" d="M1938.84,925.57a2.68,2.68,0,0,0-.3-.12c-20.63-9.23-53.84,38.79-53.84,38.79s2.76-13.37,6.32-30.84c5.93-29.06,14-69.45,15.34-78.47,0,0,1.58-1.34,4.05-3.31a160.55,160.55,0,0,1,17.19-12.24c-1.19,18-2.86,54.31.8,75.74,0,0,3.27-2.69,8.65-7.18,0,.61.07,1.21.1,1.8A150,150,0,0,0,1938.84,925.57Z"/></g><g class="cls-23"><path class="cls-24" d="M2078.47,845.5c-21.28,20.39-107.14,105-114.35,149.68,0,0-4.66-59.79-25.28-69.61,0,0,41.05-33.88,71.25-60.79l51.34-31.64S2068.18,837.92,2078.47,845.5Z"/></g><path class="cls-19" d="M1855.13,1093.31c-2.18-13.3-2.1-27.09-.89-40.5,1.15-12.92,3.42-25.68,8.82-37.49a4.18,4.18,0,0,0-7.2-4.22c-3.9,5.25-5.25,12.38-6.44,18.68a172.15,172.15,0,0,0-2.61,21.11c-.93,14.8.6,29.3,3,43.89.58,3.51,5.91,2,5.34-1.47Z"/><path class="cls-24" d="M2136.2,1231.72s-200.58-7.73-243.9-14.44c0,0-.16-3.62-.6-9.29,39,3.8,144.4,1.06,162.72-1.66,21.41-3.17,44.31-5,50.39-40.7s-.76-93.36-8.69-112-6.34-41.58.79-35.24,49.14,167.21,49.92,178.3S2136.2,1231.72,2136.2,1231.72Z"/><path class="cls-16" d="M1978.83,1721.29l0,0c-1.64,4.82-107,313.1-112.5,328.83s0,22.17,5.51,24.56c-3-1.16-198.56-75.6-218.58-85.34-20.17-9.82-10.9-13.08,22.9,0s110.12,24,151.55-19.62c22.3-23.49,34-60.07,45.19-89.66a1291.25,1291.25,0,0,0,43.48-139.85c12.32-48.71,21.07-98.6,20.59-149-.49-51.48-9.91-102.59-12.37-154-.42-8.58-.9-17.29-.32-25.87.33-4.73,4-15.5,6.35-7.47a28.11,28.11,0,0,1,.64,3c9.56,57.1,19.07,114.21,28.1,171.39,7.12,45.12,16.14,90.82,19.23,136.46C1978.72,1716.94,1978.89,1719.12,1978.83,1721.29Z"/><path class="cls-16" d="M2085.43,1310c6.12,21.22,14.91,41.85,28.22,59.62a116.82,116.82,0,0,0,20.46,21.28c6.59,5.27,16.84,13.3,25.78,12.74a3.42,3.42,0,0,0,2.39-5.76c-2.79-3.2-7.1-5-10.69-7.25a110.74,110.74,0,0,1-11.42-8,124.22,124.22,0,0,1-19.71-20.25c-12.9-16.29-21.66-35.58-30.66-54.17-1.19-2.46-5.11-.72-4.37,1.84Z"/><path class="cls-16" d="M2028.09,2062.14a877.05,877.05,0,0,0,97.19,5.92c32.24,0,65.08-.1,97.17-3.58,6.1-.66,6.36-10.13,0-9.75-32.44,1.95-64.63,4.73-97.17,4.92s-64.82-.12-97.19-1.63c-2.7-.13-2.57,3.83,0,4.12Z"/><path class="cls-16" d="M2096.91,1018.38c5.14,14.57,10,29.23,14.81,43.9s9.37,29.44,13.85,44.22,8.78,29.63,12.76,44.58c2,7.47,3.87,15,5.65,22.51s3.43,15.11,4.75,22.77l-1.12-1.43a2.15,2.15,0,0,1,1,.93,2.37,2.37,0,0,1,.24.64,3,3,0,0,1,.08.7,5.65,5.65,0,0,1-.05.88c-.06.51-.15,1-.24,1.39-.19.87-.42,1.68-.65,2.5-.47,1.62-1,3.19-1.54,4.76-1.08,3.12-2.25,6.2-3.46,9.26-2.42,6.11-5,12.14-7.65,18.14l-.55,1.24-1.36-.06c-20.14-1-40.26-2.07-60.4-3.15s-40.25-2.31-60.36-3.67-40.23-2.77-60.33-4.32q-15.07-1.25-30.13-2.68c-5-.49-10-1-15-1.59-2.5-.31-5-.63-7.5-1-1.24-.19-2.49-.39-3.73-.62-.62-.11-1.24-.24-1.85-.39a6.65,6.65,0,0,1-1.79-.61,7.05,7.05,0,0,0,1.8.54c.62.11,1.24.22,1.86.31,1.25.18,2.5.32,3.75.46,2.51.26,5,.48,7.53.68,5,.43,10,.79,15.07,1.12,10,.67,20.11,1.22,30.17,1.76q30.18,1.75,60.38,3.18l120.77,6-1.9,1.17c2.65-6,5.23-11.94,7.64-18,1.2-3,2.37-6,3.44-9.1.53-1.52,1-3,1.49-4.56.22-.76.43-1.52.59-2.25a9.2,9.2,0,0,0,.18-1,3.32,3.32,0,0,0,0-.34s0,0,0,.09a1.24,1.24,0,0,0,.14.36,1.69,1.69,0,0,0,.79.71l-1.11-1.44c-2.57-15.11-6.17-30.12-9.93-45.06s-7.77-29.85-12-44.71-8.55-29.65-12.85-44.48S2101.38,1033.16,2096.91,1018.38Z"/><path class="cls-5" d="M1928.4,915.12c-11.14-5.3-26,6.4-37.38,18.28a189.63,189.63,0,0,0-16.77,20.39s19.6-94.87,21.66-109.31c0,0,33.39-28.3,32.49-16,0,0-.36,4.19-.8,10.88C1926.41,857.43,1924.74,893.69,1928.4,915.12Z"/><path class="cls-5" d="M2072.77,830.56s-110.86,103.13-119.1,154.17c0,0-3.06-39.15-15.13-59.28-2.85-4.76-6.2-8.45-10.14-10.33,0,0,3.27-2.69,8.65-7.18,14.4-12,43.94-36.84,66.11-56.75,30.43-27.33,30.13-33.41,30.13-33.41s.35-7.11,15.8,0S2072.77,830.56,2072.77,830.56Z"/><path class="cls-24" d="M2105.71,980.63a80.1,80.1,0,0,1,18.4-34.23,79.42,79.42,0,0,1,22.25-17.18c2.84-1.48,6.1-2.47,8.33-4.82a3.55,3.55,0,0,0-2.48-6c-6.35-.1-13.62,5.73-18.51,9.4a88.86,88.86,0,0,0-33.42,51.34c-.78,3.52,4.52,5,5.43,1.49Z"/><path class="cls-16" d="M2127,564.51c14.16,25.35,48.45,30.42,61.37,56.46s-17,45.81-21.77,69.62a47,47,0,0,0,.52,20.8c1.33,5.24,4.56,14.38,10.79,15a2.15,2.15,0,0,0,2.08-1.58c.61-2.5-.27-4.17-1.31-6.44a56.25,56.25,0,0,1-3.48-10,37.51,37.51,0,0,1,.72-20.66c3.8-11.76,12.33-21.21,18-32.06s7.75-23,2.93-34.76c-5.11-12.45-15.65-21.29-26.64-28.47-13.76-9-29.22-16.5-38.71-30.49-1.84-2.73-6.08-.33-4.45,2.6Z"/><path class="cls-16" d="M2179.92,761.35a22.37,22.37,0,0,1,1.51,9.44c-.17,3.05-1.43,5.74-1.31,8.81a2,2,0,0,0,2.9,1.66c6.89-4.58,4.84-15.69,1.27-21.75-1.32-2.25-5.39-.76-4.37,1.84Z"/><path class="cls-16" d="M1799.26,599.12c1,4.92,2.34,10.91-.46,15.51-2.3,3.78-6.84,5.67-10.71,7.4-8.35,3.73-16.49,7.66-23.91,13.08a57.77,57.77,0,0,0-17,18.72c-3.62,6.67-6.56,15.55-3.6,22.92.88,2.17,4,2.53,4.79,0,1.21-4.09,1.71-8.23,3.19-12.26a43.08,43.08,0,0,1,7.46-12.89c6.1-7.27,14.14-12.71,22.32-17.37,6.77-3.87,15.37-7.43,20.46-13.55,5.52-6.63,3.93-15.15,1.84-22.78-.8-2.87-5-1.65-4.43,1.22Z"/><path class="cls-16" d="M1742.86,709.2c-.31,3-.4,8.09,2.2,10.18a1,1,0,0,0,1.76-.73c.14-1.54-.53-2.9-.85-4.39a18.27,18.27,0,0,1-.3-5.06c.12-1.83-2.63-1.78-2.81,0Z"/><path class="cls-5" d="M1939.63,533.26c9-3.67,18.31-3.43,27.78-2.63a135.32,135.32,0,0,1,27.22,5A69.08,69.08,0,0,1,2018,547.46c6.43,5.13,10.47,11.7,15.78,17.78,1.36,1.56,3.39-.17,3.13-1.83-1.28-8.15-8.18-15.53-14.34-20.53a75.42,75.42,0,0,0-25.4-13.12c-18.62-5.72-40.68-7.65-58.82.5-1.68.75-.46,3.7,1.26,3Z"/><path class="cls-5" d="M2043.12,580.86c1.41,2.29,2.43,4.75,3.68,7.12a3.34,3.34,0,0,0,3.72,1.51,3.66,3.66,0,0,0,.79-.33,3.34,3.34,0,0,0,1.51-3.72,28.3,28.3,0,0,0-4.91-8.27c-2.16-2.74-6.57.79-4.79,3.69Z"/><path d="M1886.23,634.6a15.81,15.81,0,0,0-3.55,10.62c.11,4.5,2.28,9.56,7.16,10.68a9.19,9.19,0,0,0,11.39-8.71,13,13,0,0,0-1.5-6c.57,1.29-.51-1.36-.74-1.73a8.77,8.77,0,0,0-1.8-2c-3.29-2.72-7.38-1.55-8.93,2.35a6.94,6.94,0,0,0-.43,1.15c-.2,1.12.28-.06,0,.53a11.07,11.07,0,0,1-1.28,2.31l2.8-2.8-.43.28,4-1.08q6.38,7.82,5.36,4.11c-.12-.54-.11-.33,0,.61-.14-.68-.14-1.46-.23-2.15a20.34,20.34,0,0,0-1.2-5.28c-.88-2.14-2.11-3.82-4.46-4.47-2-.55-4.87-.09-6.23,1.64Z"/><path d="M1995.23,640.1c-7,6.53-4.46,22.44,6.65,22.41,6.39,0,10.28-6.16,8.91-12.06a17.62,17.62,0,0,0-6.47-10c-1.63-1.24-4.38-.75-5.83.41a5.42,5.42,0,0,0-1.89,5.52c.14.75.31,1.46.47,2.2,0,0,.22,1.12.15.6a10.37,10.37,0,0,1,.06,1.12c0,1.17.32.57,1.1-1.79l8.07,1.07c-.36-.62-.44-.7-.25-.27.08.94-.4-1.33-.13-.18-.24-1-.29-2.11-.5-3.14a16.28,16.28,0,0,0-1.5-4.71c-1.71-3.35-6.33-3.49-8.84-1.14Z"/><path class="cls-11" d="M1927.37,655.72c-5,7.25-6.81,17.58-.49,24.7,4.52,5.1,16,7.84,20.94,1.89a2.22,2.22,0,0,0-1.55-3.73c-5.22-.28-10.27,2.58-14.71-1.88-4.79-4.82-3-13.38-.14-18.61,1.46-2.68-2.35-4.83-4.05-2.37Z"/><path class="cls-16" d="M1919.15,706.56c12.13,7.22,26.19,6.44,39.38,2.76,6-1.66,12.46-3.51,17.58-7.11,4-2.8,8.61-7.7,8.35-12.87-.14-2.78-3.34-3.33-4.89-1.32-3.17,4.11-4.79,7.31-9.59,10-4.61,2.55-9.89,4.13-15,5.53-11,3.07-23,4.17-33.8-.51-2.37-1-4.43,2.16-2.08,3.56Z"/><g class="cls-20"><path class="cls-21" d="M2047.51,681.47c-2.58-8.79-11-14.54-19.58-16.51-10.55-2.43-21.1,2.68-23.4,13.78A24.93,24.93,0,0,0,2015,704c8.34,5.66,20.37,4.72,27.42-2.58a19.11,19.11,0,0,0,4-6.31A18.92,18.92,0,0,0,2047.51,681.47Z"/></g><path class="cls-11" d="M2083.1,660.09a11.14,11.14,0,0,0-1.9-.85c-.24-.08-1.37-.49-.17,0a5,5,0,0,0-5.85,1,7.64,7.64,0,0,0-1,9,8.06,8.06,0,0,0,8.9,3.58c3.74-1,5.54-4.41,5.84-8a8.93,8.93,0,0,0-4.07-8.27c-3.26-2-7.06-1.17-9.84,1.18-2.2,1.86-4.07,4.72-4,7.7a7.1,7.1,0,0,0,2.21,5.25,6.66,6.66,0,0,0,4,1.64c-1.38-.17-1.22-.15.47.07a3.32,3.32,0,0,0,1.6-.27,5.17,5.17,0,0,0,3.48-6.11,7,7,0,0,0-.7-1.76l.54,4.13a7.74,7.74,0,0,0,0-3.18,2.32,2.32,0,0,0-.19-.63c.6.37-.34,1.79-.32,2.15,0-.17.81-1.14.27-.49s.3-.32.32-.3c-.63.43-.77.54-.41.32s.2-.13-.19.07a3.6,3.6,0,0,1-3.76-.71,1.94,1.94,0,0,1-.5-.88c-.15-.45-.15-.42,0,.1l-.11-.65c0,.54,0,.57,0,.1s0-.43-.07.09l.22-.58a3.17,3.17,0,0,1,5-.76c.76.72.37.46.08-.07-.39-.7.1.28.13.61a1,1,0,0,1,0,.57c-.12.66-.08.34.11-.94a7.2,7.2,0,0,0-.14-1.53l-1,3.87-.27.2-1.84.5c.91,0-.3-.16.6.05,3.68.86,6.12-4.3,2.64-6.26Z"/><path class="cls-16" d="M1873.67,616.42c3.09-3.74,6.51-7.85,11.28-9.44,5-1.64,10.45,1.12,15-.78a2.29,2.29,0,0,0,1-3.76c-3.81-4-13.16-2.63-17.83-.75-5.68,2.27-9.22,7.49-12.54,12.34-1.25,1.83,1.66,4.12,3.09,2.39Z"/><path class="cls-16" d="M1986.58,607.26c5-1.35,9.53-1.61,14.28.65,3.19,1.51,5.81,4,9.46,3.94a3,3,0,0,0,2.59-4.51c-2.05-4.29-8.46-6.44-12.87-7.33-5.56-1.12-10.23.77-15.19,3.14-2.34,1.12-.68,4.77,1.73,4.11Z"/><path class="cls-16" d="M2148.81,1200.26c5.4-2.44,13-2.38,18.85-1.92a53.2,53.2,0,0,1,8.67,1.45c3,.76,5.69,2.15,8.83,1.94a3.6,3.6,0,0,0,2.52-6.07c-4.78-5.11-15.21-5.5-21.82-5.31-7.14.2-14.32,1.49-19.32,7a1.89,1.89,0,0,0,2.27,3Z"/><path class="cls-16" d="M1893,1231.3a545.44,545.44,0,0,0,55,10.12q13.9,1.77,27.87,3c8.74.75,19.09,2.83,27.66.65,2.51-.64,2.2-4,0-4.79-7.79-2.77-17.56-2-25.74-2.67q-14-1.11-27.87-2.78c-18.59-2.24-37.17-4.9-55.59-8.22-3-.55-4.39,4-1.3,4.7Z"/><path class="cls-16" d="M2021.3,1246.16c9.7,1.11,19.42,2,29.16,2.67,4.54.29,9.09.47,13.64.62s9.92,1,14.34-.51a2.65,2.65,0,0,0,0-5.06c-4.38-1.65-9.7-.94-14.34-1.09s-9.09-.37-13.64-.59q-14.6-.67-29.16-1.94c-3.81-.35-3.71,5.48,0,5.9Z"/><path class="cls-1" d="M77.79,2279.93H2663.55s151.21-13,139.9,83.15-163.61-8.48-377.31,42.42-751.34-87.59-1029.7,0-698.83-84.86-870.35-25.48-454.3,104.63-510.86,2.83S77.79,2279.93,77.79,2279.93Z"/><path class="cls-1" d="M1090.28,2470.25c-4.42-9.29-13.84-10.94-23-11.71-9.36-.79-18.75-1.25-28.12-2-37.64-3-77.54-7.49-113.58-12.32-19.34-2.6-42.06-6.73-62.72-9.82-21.79-3.27-43.46-7-65.05-11.44-16.2-3.3-22.84,19.9-6.86,24.9,36.93,11.55,74,21.82,111.86,29.64a1133.55,1133.55,0,0,0,117.63,18.08q14,1.38,28.09,2.5c11.25.9,26.62,4.36,36.14-3C1092.54,2489,1094.52,2479.15,1090.28,2470.25Z"/><path class="cls-1" d="M1174.73,2468c-15.86.85-31.58,3.56-47.31,5.74-6.26.87-10.09,8.54-9.25,14.16a13,13,0,0,0,12.68,11.19c14.63.46,29.27,1.35,43.88.57,8.54-.46,15.83-7,15.83-15.83C1190.56,2475.64,1183.31,2467.56,1174.73,2468Z"/><path class="cls-5" d="M2060.21,297.08l-75.43-3.79c-54.66-2.75-114.25-4.09-158.22,28.49-9.24,6.84-17.73,15.42-21.58,26.25s-2.06,24.24,6.61,31.78c4.74,4.12,10.92,6.12,17,7.87,55.35,16,113.5,19.27,171.09,20.94q33.13.94,66.3,1.25c22.32.2,44.75.16,66.8-3.27,15.42-2.41,31.08-6.72,43.23-16.5s20.08-26.08,16.28-41.21c-4.89-19.47-25.9-29.38-44.13-32.22-19.62-3.05-39.53-3.29-59.33-3.84-7.9-.22-15.61-.66-23.42.09-4.88.47-13.59,2-17.49-1.89S2085.63,298.35,2060.21,297.08Z"/><path class="cls-5" d="M1846.85,371.43c-6,10.72-3.09,25.75,1.33,36.46a46.89,46.89,0,0,0,10.67,16.47c3.71,3.55,9.86,8.12,15.22,6.47a3.61,3.61,0,0,0,2.55-2.56c.71-4.73-1.92-8.52-4.07-12.6-2.49-4.7-5.29-9.22-7.57-14A85.5,85.5,0,0,1,1860.4,388c-1.39-5-1.52-10.32-3.19-15.19-1.52-4.44-7.86-5.83-10.36-1.36Z"/><path class="cls-11" d="M1904.12,350.45c-1-9.19-10.93-15.61-19.91-13.09-9.66,2.72-13.32,14.76-8.4,23,6,10.18,21.36,8.79,26.74-1.29A13.86,13.86,0,0,0,1904.12,350.45Z"/><path class="cls-11" d="M1966.18,350.45c-1-9.19-10.92-15.61-19.91-13.09-9.66,2.72-13.31,14.76-8.39,23,6,10.18,21.36,8.79,26.74-1.29A13.86,13.86,0,0,0,1966.18,350.45Z"/><g class="cls-25"><path class="cls-11" d="M2019.22,350.45c-1-9.19-10.93-15.61-19.91-13.09-9.66,2.72-13.32,14.76-8.4,23,6,10.18,21.36,8.79,26.75-1.29A13.92,13.92,0,0,0,2019.22,350.45Z"/></g><g class="cls-26"><path class="cls-11" d="M2078.29,350.45c-1-9.19-10.93-15.61-19.91-13.09-9.66,2.72-13.32,14.76-8.4,23,6.05,10.18,21.37,8.79,26.75-1.29A13.92,13.92,0,0,0,2078.29,350.45Z"/></g></g></g></svg>