<svg xmlns="http://www.w3.org/2000/svg" xmlns:xlink="http://www.w3.org/1999/xlink" viewBox="0 0 3271.44 2402"><defs><style>.cls-1{fill:none;}.cls-2{fill:#56cbb8;}.cls-3{fill:#fff;}.cls-4{opacity:0.59;}.cls-5{opacity:0.85;}.cls-6{opacity:0.42;}.cls-7{fill:#035958;}.cls-8{fill:#13a497;}.cls-9{fill:#ffe3c2;}.cls-10{opacity:0.5;}.cls-11{fill:#ffc68d;}.cls-12{fill:#003347;}.cls-13{fill:#ffb957;}.cls-14{fill:#d04719;}.cls-15{fill:#f17c5b;}.cls-16{fill:#78c1d0;}.cls-17{fill:#376f92;}.cls-18{fill:#5e1212;}.cls-19{opacity:0.34;}.cls-20{fill:#ce1b1b;}.cls-21{fill:#3e566b;}.cls-22{clip-path:url(#clip-path);}.cls-23{opacity:0.61;}.cls-24{fill:#253d4c;}.cls-25{fill:#74413e;}.cls-26{clip-path:url(#clip-path-2);}.cls-27{fill:#4c2524;}.cls-28{fill:#f29979;}.cls-29{clip-path:url(#clip-path-3);}.cls-30{fill:#d86d4c;}.cls-31{fill:#db633e;}.cls-32{fill:#632727;}.cls-33{fill:#243847;}</style><clipPath id="clip-path"><path id="SVGID" class="cls-1" d="M994.75,565.59s86.87,3.73,151.64,82.21,129.54,294,129.54,294l-77.22,99.65L1082,864.54s-68.92,95.91-67.68,133.28-6.6,91.51-12.45,114.28c-11.21,43.59-323.87,14-353.76,9s-24.91-49.83-24.91-49.83-13.71-3.73-23.67-83.45S651.28,508.29,994.75,565.59Z"/></clipPath><clipPath id="clip-path-2"><path id="SVGID-2" data-name="SVGID" class="cls-1" d="M923.42,260.09c4.88,1.41-5.75-33.31,54.84-44.11s70.56,30.73,93,31.56,44,.19,53.14,12.55.83,33.26-7.47,34.85,23.25,21.09-6.64,36.25-54,10.18-54,10.18L901.83,416.11l-23.25-31.58s-18-44.82-17.44-75.54C861.61,281.28,877.75,246.89,923.42,260.09Z"/></clipPath><clipPath id="clip-path-3"><path id="SVGID-3" data-name="SVGID" class="cls-1" d="M1105.28,331.19s-10,109.83-9.13,139.73S1073,546.39,1041.34,549a147.9,147.9,0,0,1-27.4,0s5.81,30.72,3.32,49-31.56,47.34-37.37,60.62a212.13,212.13,0,0,0-8.3,21.6s-14.12-26.58-34.05-38.2-61.45-47.34-61.45-74.74,10-10.8,13.28-52.32l3.33-41.52s-30.73-18.27-39-39,5.81-49.85,24.91-49.85c22.86,0,27.4,24.94,27.4,24.94s24.09-19.1,22.42-55.64,5.82-39.57,5.82-39.57,14.11,12.75,19.93,0,12.45-22,29.06-18.62S1048,339.28,1105.28,331.19Z"/></clipPath></defs><g id="Layer_2" data-name="Layer 2"><g id="_05" data-name="05"><path class="cls-2" d="M2393.59,1852.59l-1.49.75c-47.5,24.16-83.34,67.15-89.63,121-5.78,49.5,11.31,101.6,43.13,139.17,31.44,37.13,87.51,56.28,134,64.87,33.52,6.19,68,5.25,101.52-.22,24.12-3.94,49-7.05,71.19-17.88,21.69-10.57,33.43-36.17,41-58.23C2750.45,1935.9,2545,1777.22,2393.59,1852.59Z"/><path class="cls-3" d="M2631,1891.31c-32.39-28.4-72.61-48.45-113.27-56.45-44.12-8.69-87.42-3.33-125.24,15.5l-1.49.75c-24.43,12.42-45.56,29.74-61.12,50.07-16.72,21.84-26.77,46.34-29.86,72.82-5.75,49.23,10.58,102,43.7,141.07,35.55,42,100.15,59.2,135.49,65.72a267.8,267.8,0,0,0,48.67,4.3,333,333,0,0,0,53.71-4.52l7.52-1.2c21.69-3.45,44.12-7,64.37-16.89,23.45-11.44,35.36-39.53,42.28-59.67a179.16,179.16,0,0,0,.16-116.66C2684,1950.89,2661.51,1918.09,2631,1891.31Zm60,209.88c-6.63,19.29-18,46.17-39.74,56.79-19.58,9.55-41.64,13.06-63,16.45l-7.53,1.21c-35.91,5.86-69.78,5.94-100.67.24-34.69-6.41-98-23.24-132.58-64-32.24-38.07-48.15-89.38-42.56-137.26,5.85-50.08,38-93.46,88.29-119l1.46-.74a183.46,183.46,0,0,1,82.2-19,206.15,206.15,0,0,1,39.84,4c39.8,7.84,79.2,27.48,110.93,55.31,29.88,26.2,51.83,58.25,63.48,92.68A174.22,174.22,0,0,1,2691,2101.19Z"/><path class="cls-2" d="M2428.59,1839.45l127.84,341.82s4-58.07-29-164.06S2428.59,1839.45,2428.59,1839.45Z"/><path class="cls-3" d="M2430.44,1837.76l-3.69,3.38c.66.72,65.89,72.61,98.31,176.81s28.92,162.57,28.88,163.15l5,.34c0-.59,3.64-59.75-29.1-165S2431.1,1838.48,2430.44,1837.76Z"/><g class="cls-4"><path class="cls-2" d="M2501.7,1952.09c-62.3-47.24-170.54-48.51-170.54-48.51Z"/><path class="cls-3" d="M2331.19,1901.08l-.06,5a421.75,421.75,0,0,1,61.58,6.52c31.5,5.63,75.71,17.39,107.48,41.48l3-4c-32.58-24.7-77.64-36.71-109.7-42.43A427.13,427.13,0,0,0,2331.19,1901.08Z"/></g><g class="cls-5"><path class="cls-2" d="M2517.59,1988.88,2607,1875.75C2557.89,1898.19,2517.59,1988.88,2517.59,1988.88Z"/><path class="cls-3" d="M2541.77,1939.39a417.59,417.59,0,0,0-26.46,48.48l4.57,2c.4-.9,40.48-90.09,88.14-111.87l-2.08-4.55C2585.13,1883,2563.54,1905.16,2541.77,1939.39Z"/></g><g class="cls-6"><path class="cls-2" d="M2474.48,1902.41l49.17-63.73C2485.51,1853.08,2474.48,1902.41,2474.48,1902.41Z"/><path class="cls-3" d="M2482.56,1874.77a118.05,118.05,0,0,0-10.51,27.1l4.87,1.09c.11-.48,11.2-48.2,47.61-62l-1.76-4.67C2506.6,1842.44,2492.69,1855.73,2482.56,1874.77Z"/></g><path class="cls-2" d="M2303.84,2022.92l234.82,33.71S2405.7,2003.05,2303.84,2022.92Z"/><path class="cls-3" d="M2303.36,2020.47l1,4.91c99.95-19.51,232.08,33,233.4,33.57l1.87-4.64a623,623,0,0,0-79.57-24.42C2383.59,2011.75,2332.64,2014.76,2303.36,2020.47Z"/><g class="cls-4"><path class="cls-2" d="M2551.1,2115.65l144.41-122.44C2615.45,2008.7,2551.1,2115.65,2551.1,2115.65Z"/><path class="cls-3" d="M2591.43,2058.55a400.9,400.9,0,0,0-42.47,55.81l4.28,2.58c.64-1.06,64.68-106.17,142.75-121.28l-.95-4.9C2653,1998.89,2615.5,2032.11,2591.43,2058.55Z"/></g><path class="cls-7" d="M2536.5,1651.42l-2.39,1.2c-76.18,38.75-133.68,107.71-143.76,194-9.28,79.39,18.14,162.95,69.18,223.22,50.43,59.55,140.36,90.28,215,104.06,53.78,9.93,109,8.42,162.85-.37,38.69-6.31,78.56-11.3,114.19-28.67,34.78-17,53.63-58,65.79-93.4C3108.91,1785,2779.36,1530.53,2536.5,1651.42Z"/><path class="cls-3" d="M2916.6,1714.29c-51.82-45.45-116.18-77.52-181.22-90.32-70.54-13.89-139.78-5.32-200.23,24.77l-2.4,1.21c-39,19.86-72.82,47.53-97.69,80-26.71,34.89-42.75,74-47.69,116.32-9.2,78.69,16.92,163,69.87,225.51,56.82,67.09,160.18,94.63,216.74,105.07a428.62,428.62,0,0,0,77.88,6.88,533.88,533.88,0,0,0,86-7.24l12.06-1.93c34.72-5.53,70.63-11.24,103-27,37.28-18.17,56.27-63,67.31-95.11,20.89-60.77,21-125.25.26-186.48C3001.35,1809.58,2965.45,1757.13,2916.6,1714.29Zm97.91,336.22c-10.7,31.11-29,74.47-64.27,91.67-31.53,15.37-67,21-101.27,26.47l-12.08,1.94c-57.72,9.42-112.17,9.55-161.82.38-55.77-10.3-157.63-37.38-213.25-103-51.89-61.28-77.5-143.87-68.5-220.94,4.82-41.2,20.46-79.34,46.5-113.36,24.33-31.79,57.4-58.87,95.64-78.32l2.38-1.19c59.24-29.5,127.15-37.88,196.39-24.26,64,12.6,127.38,44.19,178.41,89,48.06,42.15,83.37,93.7,102.11,149.1C3035,1927.86,3035,1991,3014.51,2050.51Z"/><path class="cls-3" d="M2654.18,1707.77c-32.76-49.62-59.42-78.82-59.69-79.11l-3.68,3.38c.26.29,26.71,29.27,59.26,78.59,30,45.49,71.53,118.08,98.75,205.58,52.11,167.5,46.45,261.31,46.39,262.24l5,.34c.06-.93,5.82-95.55-46.61-264.06C2726.18,1826.62,2684.4,1753.56,2654.18,1707.77Z"/><g class="cls-4"><path class="cls-3" d="M2436.39,1730.72l0,5c.43,0,43.9.62,99,10.46,50.7,9.06,121.88,28,173.08,66.83l3-4c-52-39.44-124.05-58.63-175.32-67.78C2480.65,1731.34,2436.83,1730.72,2436.39,1730.72Z"/></g><g class="cls-5"><path class="cls-3" d="M2775.46,1791.46a669.8,669.8,0,0,0-42.34,77.56l4.57,2c.64-1.45,65.16-145,142.13-180.2l-2.08-4.55C2844.64,1701.43,2810.22,1736.81,2775.46,1791.46Z"/></g><g class="cls-6"><path class="cls-3" d="M2680.54,1687.71a188.48,188.48,0,0,0-16.72,43.08l4.88,1.09c.17-.78,18.12-78.09,77.31-100.44l-1.77-4.68C2711.9,1639,2691.75,1666.64,2680.54,1687.71Z"/></g><path class="cls-3" d="M2392.06,1922.19l1,4.9c83.94-16.38,181.44-.86,248.46,15,72.73,17.26,126.24,38.68,126.78,38.9l1.86-4.64c-.53-.22-54.33-21.76-127.41-39.1C2575.19,1921.26,2476.9,1905.63,2392.06,1922.19Z"/><g class="cls-4"><path class="cls-3" d="M2929,1916.1c-24.69,17.43-49.59,39.87-74,66.71a641.63,641.63,0,0,0-67.95,89.27l4.28,2.58a636,636,0,0,1,67.37-88.49c37.93-41.68,96.94-94,162.61-106.74l-.95-4.91C2990.67,1880.26,2959.94,1894.25,2929,1916.1Z"/></g><path class="cls-8" d="M3148.08,1748.41l-1.95-1c-198.24-94.67-461.71,115.77-384,330.29,10.31,28.49,26.11,61.48,54.5,74.75,29.08,13.59,61.43,17.11,92.84,21.71,43.69,6.4,88.44,6.89,131.86-1.86,60.24-12.15,132.65-38.22,172.7-87.1,40.53-49.48,61.62-117.49,53.06-181.66C3257.74,1833.84,3210.28,1778.77,3148.08,1748.41Z"/><path class="cls-3" d="M3229.36,1809.68c-20.57-26-48.3-48-80.19-63.52l-2-1c-49.36-23.57-105.54-29.59-162.49-17.41-52.51,11.22-104.2,38-145.57,75.54-39,35.35-67.38,78.3-82.09,124.23a232.07,232.07,0,0,0,2.68,151c9.37,25.88,25.34,61.93,55.79,76.16,26.4,12.35,55.55,16.5,83.74,20.51,3.28.47,6.54.93,9.79,1.41a438.34,438.34,0,0,0,63.36,4.78,350.58,350.58,0,0,0,69.36-6.66c45.66-9.21,129-32.87,174.14-88l-1.93-1.58,1.93,1.58c42.06-51.33,62.1-120,53.61-183.57C3265,1869.07,3251.45,1837.59,3229.36,1809.68Zm-17.31,274c-44.15,53.9-126.25,77.16-171.26,86.24-40.07,8.08-84.15,8.69-131,1.83l-9.81-1.41c-27.83-4-56.61-8.06-82.33-20.09-28.76-13.44-44.14-48.29-53.21-73.33a227.06,227.06,0,0,1-2.61-147.81c14.44-45.09,42.34-87.29,80.68-122,40.72-36.91,91.6-63.32,143.25-74.36a267.27,267.27,0,0,1,56-6,238.67,238.67,0,0,1,103.31,23l1.94.94c31.22,15.24,58.35,36.73,78.46,62.13,21.53,27.2,34.69,57.86,39.13,91.14C3272.88,1966.19,3253.25,2033.38,3212.05,2083.66Z"/><path class="cls-2" d="M2941.61,2177.79l158.78-446.64s-84,94.59-124.61,232.95S2941.61,2177.79,2941.61,2177.79Z"/><path class="cls-3" d="M3051.19,1794.4c-23.88,37.49-56.77,97.24-77.81,169-40.24,137.22-34.33,213.84-34.26,214.6l5-.42c-.06-.75-5.87-76.57,34.08-212.78s123.24-231,124.08-232l-3.74-3.32C3098.31,1729.72,3077.08,1753.75,3051.19,1794.4Z"/><g class="cls-4"><path class="cls-2" d="M3228.29,1812.37s-140.55,3.94-220.45,66.61Z"/><path class="cls-3" d="M3147.55,1819.72c-41.44,8.1-99.59,24.61-141.26,57.29l3.09,3.94c40.86-32,98.17-48.31,139-56.31a547,547,0,0,1,79.94-9.77l-.14-5A552.35,552.35,0,0,0,3147.55,1819.72Z"/></g><g class="cls-5"><path class="cls-2" d="M2869.48,1782.08l118.49,145S2933.72,1810.17,2869.48,1782.08Z"/><path class="cls-3" d="M2870.48,1779.79l-2,4.58c62.62,27.39,116.68,142.63,117.22,143.79l4.54-2.11a544.3,544.3,0,0,0-35.34-62.3C2926,1819.88,2897.57,1791.63,2870.48,1779.79Z"/></g><g class="cls-6"><path class="cls-2" d="M2976.91,1732.15l65.21,81.74S3026.76,1750.05,2976.91,1732.15Z"/><path class="cls-3" d="M2977.76,1729.8l-1.69,4.71c48,17.22,63.47,79.34,63.62,80l4.86-1.17a153.2,153.2,0,0,0-14.15-34.78C3016.92,1754.17,2998.72,1737.33,2977.76,1729.8Z"/></g><path class="cls-2" d="M2962.05,2015.54l304.26-48.76C3133.6,1943.13,2962.05,2015.54,2962.05,2015.54Z"/><path class="cls-3" d="M3063.8,1979.87c-59,15-102.29,33.19-102.72,33.37l2,4.61c.42-.18,43.45-18.23,102.08-33.16,97.84-24.9,163.17-22.15,200.76-15.45l.87-4.92C3228.66,1957.53,3162.54,1954.72,3063.8,1979.87Z"/><g class="cls-4"><path class="cls-2" d="M2757,1936.5l190.16,155.95S2861.3,1954.92,2757,1936.5Z"/><path class="cls-3" d="M2757.42,1934l-.87,4.92c53.19,9.39,101.55,50.9,132.75,84.07a515.17,515.17,0,0,1,55.72,70.74l4.25-2.64a520.34,520.34,0,0,0-56.26-71.46C2861.27,1985.92,2812,1943.67,2757.42,1934Z"/></g><path class="cls-9" d="M3087.39,2132.14,89.67,2156.63s-138.08,2.45-71.55,119.93,393.94,62.36,592.22-8.11,687.38,125.52,1009.25,21.3,946.5,51.24,1193.76-9.79,424.82,58.82,437-52.75S3087.39,2132.14,3087.39,2132.14Z"/><path class="cls-9" d="M1238.49,2354.31c-10.86-.82-21.76-1.27-32.62-2.06-43.67-3.16-90-7.95-131.8-13.21-22.45-2.82-48.83-7.4-72.81-10.79-25.28-3.58-50.44-7.74-75.51-12.64-18.81-3.68-26.29,23.28-7.72,28.93,42.92,13,86,24.6,130,33.31a1314.63,1314.63,0,0,0,136.53,19.84q16.28,1.47,32.59,2.64c13.05.93,30.9,4.8,41.87-3.81,9.08-7.14,11.28-18.57,6.29-28.85C1260.06,2356.94,1249.12,2355.12,1238.49,2354.31Z"/><path class="cls-9" d="M1363.16,2364.29c-18.38,1.14-36.59,4.43-54.8,7.11-7.25,1.07-11.61,10-10.58,16.51a15,15,0,0,0,14.8,12.85c17,.39,33.94,1.29,50.88.24,9.89-.61,18.29-8.2,18.2-18.5C1381.58,2373,1373.1,2363.68,1363.16,2364.29Z"/><path class="cls-9" d="M2040.64,230.71c-289.78-176.43-616.47-167.2-934.1-83-112.23,29.74-224.15,64.25-326.4,119.24-192.37,103.42-344.29,279.86-418,485.44s-68.58,438.35,14.19,640.45c.27.66.54,1.33.83,2,43.15,104.63,106.77,201.33,189.4,278.66,117.17,109.66,268.93,177.26,425.12,214.09,159.64,37.64,321.29,40.64,484,46.61,145.42,5.34,295.32-4.91,437.5-37.48q21-4.8,41.58-10.68c238.26-68.06,429.71-241.61,516.45-475.5q5.49-14.74,10.39-29.83C2620.48,954.32,2418.86,461,2040.64,230.71Z"/><g class="cls-10"><path class="cls-11" d="M496.1,1089.53l-119,305.27c43.15,104.63,106.77,201.33,189.4,278.66,117.17,109.66,268.93,177.26,425.12,214.09,159.64,37.64,321.29,40.64,484,46.61,145.42,5.34,295.32-4.91,437.5-37.48q21-4.8,41.58-10.68c238.26-68.06,429.71-241.61,516.45-475.5l-122.12-364.16Z"/></g><polygon class="cls-12" points="819.67 1640.74 868.93 1640.34 1055 997.29 1012.79 997.64 819.67 1640.74"/><polygon class="cls-12" points="2017.2 1630.96 2066.46 1630.56 2252.53 987.51 2210.32 987.86 2017.2 1630.96"/><polygon class="cls-12" points="851.91 2152.31 885.97 2152.03 898.01 1703.18 840.88 1703.65 851.91 2152.31"/><polygon class="cls-12" points="1816.22 2144.43 1850.27 2144.15 1862.32 1695.3 1805.19 1695.77 1816.22 2144.43"/><polygon class="cls-12" points="1029.58 2150.85 1063.63 2150.58 1075.67 1701.73 1018.54 1702.2 1029.58 2150.85"/><polygon class="cls-12" points="1993.88 2142.98 2027.94 2142.7 2039.98 1693.85 1982.85 1694.32 1993.88 2142.98"/><rect class="cls-13" x="655.4" y="1682.09" width="1554.13" height="39.28" transform="translate(-13.85 11.75) rotate(-0.47)"/><polygon class="cls-14" points="911.14 1200.31 2289.03 1189.05 2349.05 1046.34 971.16 1057.6 911.14 1200.31"/><polygon class="cls-13" points="875.22 1200.6 2253.1 1189.35 2313.12 1046.63 935.24 1057.89 875.22 1200.6"/><polygon class="cls-14" points="834.9 1416.9 2212.79 1405.64 2272.81 1262.93 894.92 1274.19 834.9 1416.9"/><polygon class="cls-13" points="798.97 1417.19 2176.86 1405.94 2236.88 1263.23 858.99 1274.48 798.97 1417.19"/><polygon class="cls-14" points="741.34 1636.24 655.26 1688.44 2209.34 1675.75 2153.23 1624.7 741.34 1636.24"/><path d="M1944.52,673.64l1.54,1.24c-.27-.72-.54-1.44-.8-2.16Z"/><path d="M2023.86,737.17l-77.8-62.29a245.76,245.76,0,0,0,103.82,125.45c2.69,1.61,6.17,3.16,8.77,1.42,1.88-1.25,2.45-3.72,2.66-6,1.14-12-3.81-24-11.12-33.71S2033.32,744.74,2023.86,737.17Z"/><path d="M1722.69,711.71c-14.55,6.59-28.5,15.75-37.22,29.14-2.27,3.48-4.2,7.37-4.35,11.53s1.84,8.61,5.63,10.32c4.48,2,9.65-.22,14-2.44,10.76-5.46,21.49-11,32-17,26.7-15.31,52.37-34.4,68-60.94l6.46-8.12c-13,7.28-26,14.57-39.74,20.34C1752.69,700.72,1737.24,705.11,1722.69,711.71Z"/><path class="cls-15" d="M1917.35,677.16c4.57-28.47-83.46,12.94-83.46,12.94s1.89,11.45,3.17,26.6c1.79,21.43,2.34,50.25-5.49,64.4,0,0,39.89,62.24,60.37,53.76s30.6-57.56,30.6-57.56-4.06-29.77-5.72-58.56C1915.9,702.85,1915.71,687.28,1917.35,677.16Z"/><path class="cls-14" d="M1833.89,690.1s1.89,11.45,3.17,26.6c19.4,4.95,56.29,12.06,79.76,2-.92-15.89-1.11-31.46.53-41.58C1921.92,648.69,1833.89,690.1,1833.89,690.1Z"/><path class="cls-15" d="M1625.6,2007l-84.16,13.63s1,6.07,2.25,15.9c2.75,21.59,6.77,61.34,4.41,95.11-3.43,49.17,84.57-39,84.57-39l-4.14-50.14Z"/><path class="cls-14" d="M1631.62,2079.91c-56.73,47.08-81.11,21.06-81.11,21.06-12.79-6.28-74.08,86.14-94.91,115s-23,72.95.57,70.21,195.73-106.28,195.73-106.28-9.37-52.9-10.87-80.34S1631.62,2079.91,1631.62,2079.91Z"/><path class="cls-15" d="M1496,1985.62l-84.14,13.64s1.12,6.85,2.49,17.8c2.73,22,6.45,60.39,4.17,93.2-3.43,49.18,84.57-39,84.57-39l-3.42-41.24Z"/><path class="cls-14" d="M1502,2058.54c-56.73,47.08-81.11,21.07-81.11,21.07-12.79-6.28-74.08,86.13-94.91,115s-23,73,.58,70.21,195.72-106.28,195.72-106.28-9.37-52.9-10.87-80.33S1502,2058.54,1502,2058.54Z"/><path class="cls-14" d="M1411.85,1999.26s1.12,6.85,2.49,17.8c20.28,3.71,51.15,8.9,85.32,13l-3.67-44.42Z"/><path class="cls-14" d="M1541.44,2020.62s1,6.07,2.25,15.9c31.23,5.12,62.66,10.13,84.84,6L1625.6,2007Z"/><path class="cls-16" d="M1858,1342.18c-43.45,2.77-183.31,49.61-183.31,49.61s-4.75,1.42-13.07,4c-53.19,16.42-252.7,80.19-296.72,124.93-50.9,51.75-46.83,328.28-44.48,394.68s5,90.54,5,90.54,71.29,4.85,130.42-1.06l.1,12.07s138.81,25.44,223.92,4.21c0,0,23.07-150.55,27.89-225.46s8.11-116.61,8.11-116.61,263.05-27.52,317.5-88.95c11.24-12.68,19.2-28.22,24.79-44.94v0c.53-1.6,1-3.2,1.52-4.82,6.67-22,9.42-45.62,10.19-67.12a400.34,400.34,0,0,0-4.25-73.58S1901.47,1339.41,1858,1342.18Z"/><path class="cls-17" d="M1858,1342.18c-33.52,2.14-67.51,13.94-99.51,23.35-32.25,9.47-64.09,20.21-96.29,29.83,43.52,5.5,87.48,3,131.2,4.51,60.79,2.12,120.65,14,178.48,32.7,20.36,6.57,40.14,14.4,60,22.27,5.82,2.3,38.2,11.1,37.94,18.4a400.34,400.34,0,0,0-4.25-73.58S1901.47,1339.41,1858,1342.18Z"/><path class="cls-17" d="M1648.52,1446.39c-50.75,16.95-214.19,98.43-211.14,160.74s-40,400.63-40,400.63,39.31,3.34,58.42-2.88c0,0,7.33-358.52,13.4-394.19s134.21-118.14,193-147.88S1699.27,1429.43,1648.52,1446.39Z"/><path class="cls-17" d="M1933.4,1592.9c-133.32,30.35-216.19,9.4-218,34.86a377.47,377.47,0,0,0,.42,51.33s263.05-27.52,317.5-88.95c11.24-12.68,19.2-28.22,24.79-44.94C2052.71,1553.34,2029.62,1571,1933.4,1592.9Z"/><path class="cls-15" d="M2032.86,577.59a23.16,23.16,0,0,0-2-2.27,20.73,20.73,0,0,0-19-6.11c-16.6,3.19-15.36-59.81-61.18-99.69s-122.39-54.77-138.64-48.3c0,0-51.09,11.36-72,76.28-6,18.75-9.06,40.59-8.47,62.88v.12a194.83,194.83,0,0,0,8.11,51.1v0A154.26,154.26,0,0,0,1753.56,644c9.12,15.73,21.25,29.4,36.72,39.52,2.27,1.49,4.61,2.91,7,4.23a108.75,108.75,0,0,0,13,6.07,182.06,182.06,0,0,0,25.18,7.73,210.78,210.78,0,0,0,80.72,2.37,184.85,184.85,0,0,0,37.65-10.22q5.25-2.05,10.14-4.42c19.38-9.31,34.37-22,42-36.87,0,0,30.23,5.45,34.73-32.21,2.42-20.21-1.28-34.31-7.81-42.56Z"/><path class="cls-14" d="M2011.83,569.21c-16.6,3.19-15.36-59.81-61.18-99.69s-122.39-54.77-138.64-48.3c0,0-51.09,11.36-72,76.28-6,18.79-9.07,40.67-8.47,63,1-5.08,22.19-104.75,84.26-114.35,63.7-9.85,146,70.2,156.5,112.59s19.06,49.32,32.87,25.1c6.87-12.07,17.13-11.82,25.69-8.52A20.73,20.73,0,0,0,2011.83,569.21Z"/><path class="cls-18" d="M2094.15,1006c7.79-9.69-26.41-72.84-49.46-110.27S1956.4,798.9,1945,792.42s-17.73-28.28-18.26-39.55-7.67-6.15-7.67-6.15c-46.44,14.39-81,.66-81,.66-12.54-9.08-11.37,28.51-18.24,45.2S1667,929,1658.33,942.2s-.28,18.81-.28,18.81-48.63,97.52-68.72,155.87c-13.44,39-20,80.2-22.88,103.14-1.42,11.34-1.94,18.24-1.94,18.24,19.24-1.47,42,4.9,42,4.9l20.08,31.83,45.52,72.2,2.55,44.6S1775.22,1380,1920,1380.6s155.23,45.11,155.23,45.11c24.64-36.52-6.79-135.13-6.79-135.13h.12c24.08,2,61.09-5.33,61.08-6.64s8.33,3.43,2.74-91.89S2086.35,1015.7,2094.15,1006Z"/><rect class="cls-3" x="1787.06" y="990.9" width="102.65" height="185.38" transform="translate(-8.79 15.05) rotate(-0.47)"/><path d="M1669.85,1173.53c-11.64,37-82.8,45-103.4,46.49-1.42,11.34-1.94,18.24-1.94,18.24,19.24-1.47,42,4.9,42,4.9l20.08,31.83c15,.46,27.22-2.93,31.71-11.68,10.33-20.21,30.93-68.94,30.93-68.94s13.06-114.29,3.79-124.28S1683.49,1130.11,1669.85,1173.53Z"/><path d="M2006.27,1173.4c-5.42-20.51-12-81.7-12-81.7s-10.1-5.6-6.34,26.3,29.37,168.62,29.37,168.62l51.22,4h.12c24.08,2,61.09-5.33,61.08-6.64,0,0-47.44-23.67-69-42.75S2011.69,1193.92,2006.27,1173.4Z"/><path class="cls-15" d="M2010,1206.62c-43.4-37.74-87.8-90.61-109.68-117.8-8.77-10.91-13.92-17.68-13.92-17.68L1835,1094.31s10.76,19.09,25.57,47c10,18.85,21.87,41.7,33.53,65.41,28.91,58.82,67.23,144.25,131.54,144.59s62.44-67.87,62.44-67.87S2070.85,1259.5,2010,1206.62Z"/><path d="M1865.56,379.61c-75.63,5.2-70.23,34.39-70.23,34.39-15.46,3-57.6,37.16-67.51,87.69s3.69,59,3.69,59c4-40.17,12.34-99.66,81.2-123.35s159.47,82.4,171.19,113.26-.16,50.45,16.3,30.82,32.73-3.77,32.73-3.77,38.24-11.14,17.11-71.16S1941.18,374.4,1865.56,379.61Z"/><path class="cls-17" d="M1570.71,1608.09c-6,3.31-9.54,11.25-14,16.24a89,89,0,0,1-17.61,15.08c-12.89,8.38-27.15,13.42-42.27,15.95-3.24.55-2.29,5.41.75,5.53,16.54.62,33.19-4.52,47.14-13.35a99.77,99.77,0,0,0,18.81-15.34c5-5.29,12.86-13.16,12.65-21A3.65,3.65,0,0,0,1570.71,1608.09Z"/><path class="cls-14" d="M1835,1094.31s10.76,19.09,25.57,47c10.84-11.41,28.56-31.64,39.78-52.47-8.77-10.91-13.92-17.68-13.92-17.68Z"/><path class="cls-15" d="M1889.57,1079s10.32-21.52-6.32-24c0,0-7.57-15.24-23.69-8.55s-46.69,15-69.34,28.21l-3.34-13.18s-20.71,13.29-28.39,37.84-103.55,121-119.1,148.41c0,0-35-10-42.46-6.76a162.84,162.84,0,0,0-.46,33.59c1.36,15.55,5.29,33.91,15.11,49.07,21.71,33.52,64.56,30.11,94.42-9.51s76.29-140.17,76.29-140.17,44.91-18.31,70.89-50c0,0,36.62-16,41.78-28.33S1889.57,1079,1889.57,1079Z"/><path class="cls-14" d="M1881.6,1053.77c-2.44,0-5.09,1-7.41,1.71s-4.67,1.39-7,2.1c-4.74,1.44-9.45,3-14.15,4.55s-9.39,3.19-14,4.88l-6.86,2.53c-1.22.46-2.44.91-3.64,1.41a9.74,9.74,0,0,0-3.22,1.65,1.29,1.29,0,0,0,.9,2.18,10.75,10.75,0,0,0,3.62-.93c1.23-.43,2.45-.88,3.67-1.32,2.29-.83,4.59-1.64,6.89-2.45q6.9-2.41,13.81-4.79c4.62-1.57,9.26-3.08,13.89-4.61l7-2.26c2.3-.73,5.11-1.3,7.13-2.66A1.08,1.08,0,0,0,1881.6,1053.77Z"/><path class="cls-14" d="M1889.15,1078.49c-4.73.88-9.35,2.88-13.83,4.59s-9.19,3.64-13.73,5.61-8.91,3.93-13.27,6.09c-2.18,1.09-4.35,2.18-6.5,3.31-1.11.59-2.2,1.22-3.28,1.85a12.06,12.06,0,0,0-2.93,2,1.06,1.06,0,0,0,1,1.76,12.73,12.73,0,0,0,3.39-1.26c1.15-.52,2.3-1,3.44-1.57,2.13-1,4.25-2,6.39-3,4.42-2.05,8.84-4.11,13.31-6s9-3.8,13.51-5.6,9.19-3.22,13.44-5.46C1891.45,1080.08,1890.48,1078.25,1889.15,1078.49Z"/><path class="cls-14" d="M1761.11,1193.38c-11.14,23.7-41.48,100.47-41.48,100.47s45.61-77.21,62.65-119.93C1782.28,1173.92,1772.25,1169.68,1761.11,1193.38Z"/><path class="cls-14" d="M1596.93,1241a162.84,162.84,0,0,0-.46,33.59c16.73-25.09,42.92-26.83,42.92-26.83S1604.36,1237.71,1596.93,1241Z"/><path d="M1672.64,972.58c-2.61-2.58-6.12.66-4.78,3.69,3.07,6.93,7,13.45,10.16,20.36,2.82,6.23,3.93,14.42,8.3,19.72,1.29,1.57,4.12.69,4.54-1.2,1.57-7.09-2.74-15.83-5.43-22.23C1682.29,985.47,1678.45,978.29,1672.64,972.58Z"/><path d="M2084.26,1002.81c-12.4,1-24.15,9.45-32.05,18.58-2.62,3,1.55,7.34,4.44,4.44a52.54,52.54,0,0,1,13.24-9.83c5-2.55,10.21-3.74,15.4-5.6C2089.12,1009,2088.89,1002.46,2084.26,1002.81Z"/><path class="cls-12" d="M1556.72,1519.09c-38.67,28-74.59,56.58-89.07,98.49-4.83,14-5,28.82-5.14,43.19-.07,6.5-.14,13.23-.65,19.72-2.79,35.41-4.82,72.06-6.2,112.06-2.44,71.19-2.46,141.2-1.74,224.42l4,0c-.72-83.16-.7-153.12,1.74-224.24,1.38-39.94,3.4-76.54,6.19-111.88.52-6.63.59-13.43.66-20,.15-14,.31-28.57,4.92-41.92,14.1-40.81,49.5-69,87.63-96.56,43.56-31.52,92.56-56.1,134.74-76l-1.71-3.62C1649.74,1462.69,1600.54,1487.38,1556.72,1519.09Z"/><path class="cls-14" d="M2021.62,604.38a5,5,0,0,0-6.89,0c-3.6,3.2-3.35,9.3-2.9,13.73.53,5.19.7,10.95,5.56,13.91,2.63,1.6,6.78.72,8.21-2.15,2.34-4.7.19-8.52-.54-13.34C2024.43,612.34,2024.67,607.62,2021.62,604.38Z"/><path d="M1785.52,574.2c-3.9-6.75-13.33-2-12,5.07,1,5.27,2.1,10.39,2.29,15.77.35,10.07,16.43,9.85,15.52,0C1790.64,587.76,1789.23,580.61,1785.52,574.2Z"/><path d="M1926.69,580.89a5.61,5.61,0,0,0-9.57,0c-3.53,5.49-3.13,14.4-3.18,20.74-.1,10.51,16.63,10.5,16.31,0-.1-3.5-.51-7-.85-10.47S1928.77,584,1926.69,580.89Z"/><path d="M1797.7,528.52c-7.27-2.17-16.72,1.51-23.23,4.7-6.34,3.1-12.74,7.56-12.89,15.27,0,2.36,3.87,3,4.23.57,1-6.65,9.12-10.13,14.76-12.14s11.66-1.72,17.13-3.61A2.51,2.51,0,0,0,1797.7,528.52Z"/><path d="M1930.7,537.28a24.94,24.94,0,0,0-16.23.54c-3.83,1.46-2.24,7.64,1.72,6.24a18.81,18.81,0,0,1,12.69-.2c3.57,1.25,6.08,4.73,9.85,4.94a2.55,2.55,0,0,0,2.53-2.53C1941.13,541.27,1934.89,538.57,1930.7,537.28Z"/><path class="cls-14" d="M1859.17,622.11c-7,.68-15.42,3.58-19.42-4.71-1.77-3.66-.9-8.37-.66-12.29q.39-6.45.77-12.9c.2-3.22-4.65-3.13-5,0-1,9.69-5.15,23.6,2.43,31.58,5.73,6,16.83,7.6,23.53,2.4C1862.46,625,1861.14,621.92,1859.17,622.11Z"/><path class="cls-14" d="M1884.58,650.4c-5.38,3-9.77,6.82-15.68,9a54.63,54.63,0,0,1-18.54,3.42c-11.64.12-29.94-3.49-34.93-15.61-.56-1.37-3-1.41-2.85.38,1,13.88,22.21,19.32,33.42,20.15a59.08,59.08,0,0,0,22.22-2.62c6.58-2.09,14.83-5.5,19.26-11C1889.11,652.13,1887.1,649,1884.58,650.4Z"/><g class="cls-19"><path class="cls-20" d="M1950.58,601.17c-12.25-2.71-24.43,3.31-27,16.19a28.92,28.92,0,0,0,12.35,29.19c9.72,6.49,23.66,5.29,31.76-3.25a25.76,25.76,0,0,0,5.75-23.17C1970.37,610,1960.57,603.38,1950.58,601.17Z"/></g><g class="cls-19"><path class="cls-20" d="M1766.17,597.37c-11.61-2.58-23.16,2.71-26.52,14.23v0A154.26,154.26,0,0,0,1753.56,644c9.55,5.08,22.17,3.5,29.73-4.46a22.31,22.31,0,0,0,4.56-7.36,21.91,21.91,0,0,0,1.18-15.81C1786,606.16,1776.16,599.58,1766.17,597.37Z"/></g><path class="cls-3" d="M1996.43,518.33c-3.12-5.21-6.29-10.38-9.59-15.48A247.12,247.12,0,0,0,1966,474.74c-13.93-16-30.64-29.22-50.47-37.13-1.61-.64-2.77,2.09-1.19,2.83,18.94,8.84,34.8,23.09,47.94,39.18a273.24,273.24,0,0,1,19.78,28.11c2.89,4.64,5.69,9.33,8.44,14,2.85,4.9,5.28,10.26,9.5,14.14a2.41,2.41,0,0,0,4-2.32C2002.79,528,1999.34,523.19,1996.43,518.33Z"/><path class="cls-3" d="M2005.35,545.9a3,3,0,0,0-1.41,4.19c.93,1.89,2.26,6.1,5.12,4.84s.92-5,.28-7.11A3,3,0,0,0,2005.35,545.9Z"/><rect class="cls-3" x="491.75" y="24.56" width="892.66" height="1061.35" transform="translate(-4.5 7.68) rotate(-0.47)"/><path class="cls-13" d="M1382.05,18.91,487.41,26.22l-2,0,8.69,1063.31,0,2,894.63-7.31,2,0L1382.06,20.91Zm-884,1068.61L489.44,30.2l888.64-7.26,8.64,1057.32Z"/><polygon class="cls-9" points="570.01 108.03 575.74 1002.8 1308.06 995.17 1302.33 100.4 570.01 108.03"/><path class="cls-21" d="M994.75,565.59C651.28,508.29,588,919.36,599.56,998.86l414.79-1c-1.24-37.37,67.68-133.28,67.68-133.28l87.29,132.33h63.91l58.83-1.7s-80.9-268.9-145.67-347.37S994.75,565.59,994.75,565.59Z"/><g class="cls-22"><g class="cls-23"><path class="cls-24" d="M1035.83,566.75c-3-5.34-6.93-10.35-12.22-13.45-4.11-2.42-8.83-3.55-13.5-4.52-64.77-13.49-134.66-.45-190.21,35.48l-8.72-.7C823.7,604.9,846.64,618,861.5,637.82c15.3,20.4,20.92,46.26,26.14,71.22a209.54,209.54,0,0,1,51.22-46.51c3.29-2.12,7-4.23,10.9-3.54,7.87,1.41,9.18,12,8.52,20-3.12,37.59-7.69,75-12.26,112.47q15.51-55.85,31-111.71c1.24-4.45,2.76-9.3,6.66-11.77,5.78-3.67,13.28-.24,19.21,3.19L1052.85,700C1033.88,658.86,1058.09,606.25,1035.83,566.75Z"/><path class="cls-24" d="M820.39,952.46c-15.72-9.87-29.07-24.66-33.72-42.62-5.28-20.43,1.09-41.79,3.41-62.75a164.77,164.77,0,0,0-33-117.5c5.48,46.23,23.64,113.2,10.13,157.76-6.38,21-15.94,42.83-34.64,54.39-6,3.67-12.66,6.18-18.13,10.55-13.17,10.54-16.18,28-18.25,44.79,17.58-7.32,34-16.33,48.63-28.57-1.47,10.61-2.95,17.23-4.43,27.84,12.59,3.75,21.7-7.54,32.69-14.73,11.23-7.35,26.19-6.1,38.78-1.44s22.84,17,36.25,16.5c38-1.46,53.49.26,80.78-1.2,30.18-1.62,54.16,1.18,85.24.38-49.32-6.57-93.78-11.18-142-23.47C854.14,967.8,836.11,962.32,820.39,952.46Z"/><path class="cls-24" d="M1265.32,986.74c-5-4.08-11.92-4.56-18.36-5-18.7-1.25-40.42-5.71-48.52-22.61-7.33-15.29-1.82-37.86-16.36-46.59-7.23-4.35-16.4-2.83-24.74-4.15-25.52-4-38.57-33.42-40.49-59.19s2.43-52.91-7.89-76.6l-30.78,102.68-2.49.11c-2.76,13.6,3.2,27.58,11.41,38.77s18.67,20.56,26.91,31.71c11.26,15.25,17.85,33,23.45,51.22h133.59A16,16,0,0,0,1265.32,986.74Z"/></g></g><path class="cls-25" d="M1116.91,294.94c8.3-1.6,16.61-22.49,7.47-34.85s-30.72-11.72-53.14-12.55-32.39-42.35-93-31.56-50,45.52-54.84,44.11c-45.67-13.2-61.81,21.19-62.28,48.9-.52,30.72,17.44,75.54,17.44,75.54l23.25,31.58,154.46-74.74s24.08,5,54-10.18S1108.61,296.53,1116.91,294.94Z"/><g class="cls-26"><path class="cls-27" d="M1103.92,311.79c-7.09-1.58-15.18-6.42-14.43-13.65.51-5,5.12-8.43,8.47-12.22s5.28-10.43,1.16-13.35a8.18,8.18,0,0,0-3.57-1.26c-11.6-1.63-22.33,9.64-33.85,7.45-7.89-1.5-13.11-8.72-18.67-14.52-23.31-24.27-65.79-26.58-91.6-5-4.07,3.41-7.8,7.4-9.9,12.27L935,288.28c-12.67-8.32-29.51-8.72-43.67-3.31s-25.84,16-34.94,28.15c-5.33,7.11-10,15.1-11,23.92-1.09,9.08,1.73,18.15,4.82,26.75a378.07,378.07,0,0,0,28.06,60.66c4.26,7.42,9.23,15.11,17,18.65,11.77,5.35,25.34-.49,36.91-6.25L1104.66,351c6.19-3.08,12.57-6.32,16.9-11.71s6-13.58,1.94-19.19C1119.26,314.16,1111,313.37,1103.92,311.79Z"/></g><path class="cls-28" d="M983.21,295.64c-16.61-3.38-23.25,5.87-29.06,18.62s-19.93,0-19.93,0-7.48,3-5.82,39.57S906,409.47,906,409.47s-4.54-24.94-27.4-24.94c-19.1,0-33.22,29.09-24.91,49.85s39,39,39,39l-3.33,41.52c-3.32,41.52-13.28,24.91-13.28,52.32s41.52,63.11,61.45,74.74,34.05,38.2,34.05,38.2a212.13,212.13,0,0,1,8.3-21.6c5.81-13.28,34.88-42.35,37.37-60.62s-3.32-49-3.32-49a147.9,147.9,0,0,0,27.4,0c31.63-2.59,55.64-48.16,54.81-78.06s9.13-139.73,9.13-139.73C1048,339.28,999.82,299,983.21,295.64Z"/><g class="cls-29"><path class="cls-30" d="M1112.46,291.89q-24.75-13.11-50.19-24.85c-16.17-7.46-32.8-14.57-50.45-16.85a97.38,97.38,0,0,0-70.63,18.89c-11.37,8.66-21.16,20.76-22.72,35l-19,53.89a87,87,0,0,1,6.62,48.48c4.72,1,9.46-1.41,13.44-4.12,21.9-14.92,34.66-42.27,32-68.64a13.21,13.21,0,0,0,14.95-4.16c2.58-3.4,3.4-8,6.36-11,4-4.15,10.79-4.26,16.09-2s9.55,6.32,14,10c30.73,25.31,76.44,30.77,112.27,13.41,9.39-4.56,19.08-12.2,19.22-22.65C1134.6,305.39,1122.87,297.41,1112.46,291.89Z"/><path class="cls-30" d="M995.24,546.16a244.19,244.19,0,0,1-54-34.82c-.08,33.71,20.94,66.57,51.59,80.63,6.86,3.15,15.53,5.21,21.51.6,3-2.29,4.68-5.86,5.82-9.43a44.32,44.32,0,0,0-3-33.84S1000.66,548.72,995.24,546.16Z"/><path class="cls-30" d="M879.23,412.84c-6.31,3.65-7.82,12.85-3.37,20.56s13.18,11,19.49,7.36,7.81-12.84,3.36-20.55S885.54,409.2,879.23,412.84Z"/><circle class="cls-31" cx="950.3" cy="439.67" r="25.08"/><path class="cls-3" d="M957.29,422.07q-10.9,9.33-21.27,19.28c-2.8,2.68,1.45,6.92,4.24,4.24q10.37-9.94,21.28-19.28C964.47,423.8,960.21,419.57,957.29,422.07Z"/><path class="cls-3" d="M963.74,433.91l-18.67,16.48c-2.9,2.56,1.35,6.79,4.24,4.24L968,438.15C970.89,435.59,966.63,431.36,963.74,433.91Z"/></g><path class="cls-32" d="M969.09,349.26h28.65S983.42,341,969.09,349.26Z"/><path class="cls-32" d="M1057,356.39h28.65S1071.35,348.09,1057,356.39Z"/><path class="cls-32" d="M1040.93,440.12a2,2,0,0,1-.83-3.82c.22-.13,3.85-2.35,10.57-14.77-24.68-13.66-13-44.45-12.85-44.76a2,2,0,0,1,3.72,1.46,47.05,47.05,0,0,0-2.66,16.26c.29,11.39,5.46,19.59,15.37,24.39l1.86.9-1,1.83c-8.18,15.64-12.67,18.05-13.49,18.37A2.1,2.1,0,0,1,1040.93,440.12Z"/><path class="cls-32" d="M1017.67,476c-9.06,0-22.72-3.81-24.9-18.89a2,2,0,1,1,4-.57c2.5,17.35,22.77,15.41,23.64,15.32a2,2,0,0,1,.43,4A30.14,30.14,0,0,1,1017.67,476Z"/><path class="cls-32" d="M1067.5,387.46a8.72,8.72,0,1,0,8.72,8.72A8.72,8.72,0,0,0,1067.5,387.46Z"/><path class="cls-32" d="M986,387.46a8.72,8.72,0,1,0,8.72,8.72A8.73,8.73,0,0,0,986,387.46Z"/><path d="M1111.17,443H1052.9a5.68,5.68,0,0,1-5.67-5.67V401.51a5.68,5.68,0,0,1,5.67-5.67h58.27a5.68,5.68,0,0,1,5.66,5.67v35.85A5.68,5.68,0,0,1,1111.17,443Zm-58.27-43.19a1.67,1.67,0,0,0-1.67,1.67v35.85a1.67,1.67,0,0,0,1.67,1.67h58.27a1.66,1.66,0,0,0,1.66-1.67V401.51a1.66,1.66,0,0,0-1.66-1.67Z"/><path d="M1016.91,443H958.64a5.68,5.68,0,0,1-5.66-5.67V401.51a5.68,5.68,0,0,1,5.66-5.67h58.27a5.68,5.68,0,0,1,5.67,5.67v35.85A5.68,5.68,0,0,1,1016.91,443Zm-58.27-43.19a1.67,1.67,0,0,0-1.66,1.67v35.85a1.67,1.67,0,0,0,1.66,1.67h58.27a1.67,1.67,0,0,0,1.67-1.67V401.51a1.67,1.67,0,0,0-1.67-1.67Z"/><path d="M1022.09,423.65l-3-2.62c12.15-13.95,31-3.44,31.15-3.33l-2,3.47,1-1.74-1,1.74a31.09,31.09,0,0,0-9.55-3.15C1031.82,417,1026.24,418.89,1022.09,423.65Z"/><path d="M952.9,421.44a1.88,1.88,0,0,1-.57-.09l-43.6-13.09a2,2,0,1,1,1.15-3.83l43.6,13.09a2,2,0,0,1-.58,3.92Z"/><path class="cls-33" d="M777.75,741.1A596.07,596.07,0,0,1,754,950.19c-1.11,3.71,4.68,5.29,5.79,1.59A601,601,0,0,0,783.75,741.1C783.5,737.27,777.5,737.24,777.75,741.1Z"/><path class="cls-33" d="M773.68,973.25c-29.64-6.33-59.08,3.87-84.9,18-3.39,1.86-.36,7,3,5.18,24.31-13.34,52.3-23.4,80.28-17.42C775.85,979.84,777.46,974.06,773.68,973.25Z"/><path class="cls-33" d="M688.44,932.59c-3.81.57-2.19,6.35,1.59,5.79A78,78,0,0,1,757,961.25c2.7,2.77,6.94-1.47,4.25-4.25A84.32,84.32,0,0,0,688.44,932.59Z"/><path class="cls-33" d="M992.35,996.87l-2.9-3.8c-.49,1.26-1,2.52-1.42,3.78C989.47,996.82,990.91,996.82,992.35,996.87Z"/><path class="cls-33" d="M989.54,1069.85q-1.93.17-3.87.42c.31,1.12.63,2.25,1,3.37Z"/><path class="cls-28" d="M987.59,1065.9l-.11-.21C986.89,1065.86,987.59,1065.9,987.59,1065.9Z"/><path class="cls-33" d="M1145,810.52c-11.24,19.36-24.46,41.17-48.42,45.3-3.8.66-2.19,6.44,1.6,5.79,25.49-4.4,40-27.41,52-48.06C1152.09,810.2,1146.91,807.18,1145,810.52Z"/><path class="cls-33" d="M1104.82,811.4a161.69,161.69,0,0,1-20.07,38.81c-2.22,3.17,3,6.17,5.18,3A167.11,167.11,0,0,0,1110.6,813C1111.9,809.35,1106.1,807.78,1104.82,811.4Z"/><path class="cls-33" d="M1037.13,688.48c-2.11-2.83-4.29-5.7-6.56-8.5q.38,5,1,10Z"/><path class="cls-33" d="M1036.33,610.87a222.16,222.16,0,0,0-5.76,69.11c2.27,2.8,4.45,5.67,6.56,8.5l-5.59,1.51q-.6-5-1-10c-8.68-10.71-18.84-20.47-32.76-23.29-3.77-.77-5.38,5-1.59,5.78,16,3.25,26.48,16.66,35.73,29,1.53,2,6,1.81,5.59-1.52a217.12,217.12,0,0,1,4.58-77.53C1043,608.71,1037.25,607.11,1036.33,610.87Z"/><path class="cls-33" d="M877.68,688.63l5,1.32c-.53-1.56-1.08-3.12-1.62-4.68Q879.33,686.88,877.68,688.63Z"/><path class="cls-33" d="M941.56,658.45c-21.45,5.41-43.94,11.54-60.49,26.82.54,1.56,1.09,3.12,1.62,4.68l-5-1.32q1.65-1.75,3.39-3.36C876,670.63,870.84,656,866,641.31c-5.45-16.6-8-32.83-2.72-49.85,1.15-3.69-4.64-5.27-5.79-1.59-5.16,16.61-3.53,33,1.57,49.45,5.46,17.55,11.86,34.84,17.84,52.22.7,2.05,3.38,3.06,5,1.33,16.06-17,39.29-23.1,61.23-28.63C946.89,663.3,945.31,657.51,941.56,658.45Z"/><path class="cls-9" d="M452.18,1686.35a1.71,1.71,0,0,1,.11.14l1.3,1.68.38.48C450.31,1683.73,451.17,1685,452.18,1686.35Z"/><path class="cls-9" d="M493.34,1734.82q-17.49-18.69-33.49-38.72l-1.77-2.23-.54-.67-3.57-4.55.06.08c-.14-.19-.29-.37-.44-.56l-.79-1c-.19-.23-.41-.52-.62-.8-1.31-1.7-2.62-3.4-3.91-5.11q-7.71-10.17-15-20.63a665.21,665.21,0,0,1-51.06-86.28c-3.78-7.65-7.4-15.37-11-23.11q-2.4-5.16-4.69-10.35c-.33-.75-.66-1.53-1-2.3-.55-1.28-1.09-2.57-1.63-3.85q-9.61-23.16-17.44-47c-5.3-16.18-9.92-32.59-14.23-49.07-5.38-20.59-8.59-53.75-32.78-60.21a28.4,28.4,0,0,0-21.56,2.9c-10.31,6.09-14.87,17-15.17,28.54-.28,10.8,1.37,21.27,3.51,31.83,3.32,16.42,7.35,32.61,12.26,48.63a658.37,658.37,0,0,0,91,186.28c40.28,57.2,89.3,111.62,149.08,148.75a148.34,148.34,0,0,0,21.92,10.84c8.55,3.56,18,3.1,23.9-5,5.78-7.88,4.48-17.09-1.65-24.35C541.17,1781.37,516.15,1759.19,493.34,1734.82Z"/><path class="cls-9" d="M293.43,1272.27q-.72-9.45-1.46-18.89c-.24-3.15-.48-6.29-.73-9.44a46,46,0,0,0-4.12-16.16c-3.25-7.28-13.25-10.58-20.38-9.56-7.52,1.07-15.26,6.86-16.82,14.73-1.69,8.5.14,16.63,1.4,25.08l3,19.86q2.86,19.29,5.75,38.57c1.35,9.08,12.37,14.28,20.46,13.12,8.56-1.22,16.66-9.12,15.94-18.35Q294.94,1291.74,293.43,1272.27Z"/><path class="cls-9" d="M2633.42,1131.06c-1.83-4.83-3.07-9.84-4.56-14.78-1.39-4.62-2.82-9.25-4.44-13.79-3.15-8.84-7.24-15-14.62-20.67-7.8-6-18-11-27.56-4.73-5.52,3.62-8.37,8.69-10.94,14.52-3.72,8.41-4.19,15.38-3.31,24.13q.78,7.63,1.24,15.3c.3,4.87-.39,9.55-.34,14.38.07,5.45,1.19,11,1.63,16.49q1.2,15,1.31,30c.14,20.42,0,40.73-2.13,61.07-.11,1-.22,2.06-.34,3.08,0,.1,0,.16,0,.25.08-.6.17-1.23.27-1.83-.11.66-.19,1.32-.28,2-.39,3.39-.3,2.24,0,.27-.28,2-.54,4-.84,6q-1.23,8.22-2.8,16.4c-2.15,11.24-4,22.5-6.66,33.64s-5.08,22.18-7.7,33.26c-.85,3.57-1.14,7.2-1.7,10.8.17-1.51-1.28,4.08-1.63,5.32q-2.53,8.83-5.47,17.53c-3.25,9.69,3.2,20.44,12.07,24.1,10,4.11,19.58-.13,25.54-8.6,2.78-4,5.52-8,8.17-12q2-3,3.9-6.09c.18-.3.78-1.14,1.22-1.78q2.28-2.77,4.37-5.7c2.6-4,4.87-8.27,7.18-12.45,1.15-2.08,2.35-4.16,3.42-6.28s1.9-4.24,2.76-6.39c.66-1.6,1.79-4.34,2.61-6.35a325.5,325.5,0,0,0,18-58.49c8.46-42.2,11.28-84.86,5.81-127.59C2636.62,1144.9,2636,1137.83,2633.42,1131.06Z"/><path class="cls-9" d="M2569.32,1256.5s0-.1,0-.15c0,.14,0,.29,0,.42A2.51,2.51,0,0,1,2569.32,1256.5Z"/><path class="cls-3" d="M2500.18,585.17,2274.78,587a25.51,25.51,0,0,0-25.31,25.73l1,125.41a25.53,25.53,0,0,0,25.73,25.31l18.62-.15,18.54,72.17L2332.74,763l168.88-1.38a25.53,25.53,0,0,0,25.32-25.73l-1-125.41A25.51,25.51,0,0,0,2500.18,585.17Z"/><path class="cls-13" d="M2519.69,591.07a27.28,27.28,0,0,0-19.52-7.9v0L2274.76,585a27.52,27.52,0,0,0-27.29,27.74l1,125.42A27.56,27.56,0,0,0,2276,765.46h.23l17.05-.14,20.05,78L2334.28,765l167.36-1.36a27.54,27.54,0,0,0,27.3-27.75l-1-125.41A27.33,27.33,0,0,0,2519.69,591.07Zm-1.51,161.52a23.34,23.34,0,0,1-16.57,7L2331.2,761l-17.78,66.58-17-66.3-20.18.17h-.2a23.55,23.55,0,0,1-23.52-23.33l-1-125.41A23.51,23.51,0,0,1,2274.8,589l225.4-1.84a23.51,23.51,0,0,1,23.71,23.32l1,125.42A23.33,23.33,0,0,1,2518.18,752.59Z"/><path class="cls-3" d="M2077.09,2,1777.34,4.45a33.94,33.94,0,0,0-33.66,34.21L1745,205.44a33.94,33.94,0,0,0,34.22,33.66l24.75-.2,24.66,96,25.74-96.39L2079,236.65a33.94,33.94,0,0,0,33.66-34.21L2111.3,35.66A33.94,33.94,0,0,0,2077.09,2Z"/><path class="cls-13" d="M2077.37,0h-.3l0,2,0-2L1777.32,2.45a35.94,35.94,0,0,0-35.64,36.23L1743,205.46a35.94,35.94,0,0,0,36.23,35.64l23.19-.19,26.17,101.86L1856,240.47,2079,238.65a35.94,35.94,0,0,0,35.64-36.23L2113.3,35.64A36,36,0,0,0,2077.37,0Zm24.12,225.11a31.72,31.72,0,0,1-22.5,9.54l-226.12,1.85L1828.71,327l-23.15-90.1-26.32.21a31.94,31.94,0,0,1-32.2-31.67l-1.36-166.78a31.94,31.94,0,0,1,31.67-32.2L2077.1,4h.27a32,32,0,0,1,31.93,31.68l1.36,166.78A31.72,31.72,0,0,1,2101.49,225.11Z"/></g></g></svg>