<svg xmlns="http://www.w3.org/2000/svg" viewBox="0 0 802.58 804.79"><defs><style>.cls-1{fill:#fafbfd;}.cls-2{fill:#ffe3c2;}.cls-3{opacity:0.5;}.cls-4{fill:#ffc68d;}.cls-5{fill:#035958;}.cls-6{fill:#fff;}.cls-7{opacity:0.55;}.cls-8{opacity:0.79;}.cls-9{fill:#13a497;}.cls-10{fill:#ffa840;}.cls-11{fill:#d04719;}.cls-12{fill:#ffb957;}</style></defs><g id="Layer_2" data-name="Layer 2"><g id="_01" data-name="01"><rect class="cls-1" width="802.58" height="802.58"/><path class="cls-2" d="M663.19,644.86c-80.81,66.32-185.56,98.49-289.28,92.52a422.49,422.49,0,0,1-44.22-4.88C267.9,722.34,211.92,700,161.52,662.61,136.43,644,112.67,622.68,96.39,596c-9.56-15.67-16.31-32.82-21.51-50.47-2.18-7.39-4.08-14.87-5.8-22.37-11.35-49.49-14.95-101.7-4.64-151.7,10.35-50.23,37.78-93.49,70-132.7,49.76-60.58,119.47-93.61,197.44-99.63,64.4-5,124.5,9.35,187.09,21.36,54,10.35,109.7,19.81,157,49.75,46.71,29.57,79.17,79.18,92.11,132.55a240.59,240.59,0,0,1,4.82,26.1C785.71,469.18,741.35,580.71,663.19,644.86Z"/><g class="cls-3"><path class="cls-4" d="M373.91,737.38a422.49,422.49,0,0,1-44.22-4.88C267.9,722.34,211.92,700,161.52,662.61,136.43,644,112.67,622.68,96.39,596c-9.56-15.67-16.31-32.82-21.51-50.47L238,362.36s12.39,6.71,28.87,15.48,7.11,100.84,8,151.28,30,62.64,86.25,85.69,12.46,96.58,11,100.42C371.8,716.18,373.17,725,373.91,737.38Z"/></g><path class="cls-2" d="M74.94,602.43c-1-2.69-2-5.4-3.13-8-.23-.53-.45-1-.67-1.58h0c-.11-.24-.21-.49-.32-.74-.5-1.21-1-2.42-1.47-3.64-.61-1.54-1.25-3.06-1.91-4.58-.23-.52-.45-1-.68-1.57l-.12-.28-.13-.32c-1-2.34-1.92-4.7-2.83-7.07-3.62-9.44-6.54-19.07-9.29-28.79A277.31,277.31,0,0,1,47.69,516q-.61-3.65-1.12-7.29c0-.26-.06-.53-.1-.8s-.1-.74-.14-1.11c-.17-1.31-.32-2.62-.46-3.93q-.84-7.61-1.24-15.24-.45-8.49-.37-17c0-2.83-.41-5.67-.65-8.49-.12-1.42-.22-2.83-.33-4.25-.21-2.82-.84-5.36-3.07-7.26-2-1.74-5.17-2.59-7.59-1A9.18,9.18,0,0,0,28.39,455c-.32,1.24-.44,2.56-.64,3.83-.49,3.06-.93,6.14-1.31,9.22a55.22,55.22,0,0,0,0,7.93c.06,2.55.16,5.09.3,7.64a294.43,294.43,0,0,0,3.6,32.44A277,277,0,0,0,37,545.93,246.68,246.68,0,0,0,48,576.31c4.58,10.71,9.71,21.06,16.71,30.41,1.68,2.25,4.21,3.44,7,2.28C74.05,608,75.94,605,74.94,602.43Z"/><path class="cls-2" d="M43.9,387.69A6.71,6.71,0,0,0,36,389c-1.72,1.65-2.55,4.33-2.86,6.66-.78,5.81-1.05,11.68-1.41,17.53-.19,3.07-.39,6.14-.58,9.21a29.29,29.29,0,0,0,.26,4.77c.11,1.13.17,2.29.39,3.41a7.72,7.72,0,0,0,1.78,3.32c1.76,2.26,5.26,1.58,7.12,0,1.44-1.23,2-3.07,2.5-4.82a36.71,36.71,0,0,0,1.15-3.93c.52-2.8.78-5.68,1.17-8.5.83-6,1.7-12,2.31-18.08C48.21,394.64,47.82,389.74,43.9,387.69Z"/><path class="cls-5" d="M389,692.26s-85.13-141-41.75-329.91S542.25,74,581.11,193.28,526.24,647.81,466.5,705.34,389,692.26,389,692.26Z"/><path class="cls-6" d="M424.59,731.26a31.16,31.16,0,0,1-8.63-1.19c-21-6-29-32.44-30.1-36.51-2.47-4.23-22.38-39.34-37.26-94.54C334,545,321.4,459.86,344,361.6c14-61,40.69-117.66,75.15-159.65,32.11-39.12,68.48-62.36,99.78-63.75,30.39-1.35,53.62,17.83,65.41,54,17.43,53.5,9.85,158.56-20.26,281-27.52,111.91-65.78,206.14-95.21,234.48C452.59,723.39,437.75,731.26,424.59,731.26Zm-32.35-39.82c.11.42,7.08,26.9,25.59,32.18,12.72,3.62,28.31-3.34,46.34-20.7,28.15-27.11,66.53-122.2,93.35-231.25,29.82-121.31,37.45-225,20.39-277.35-10.93-33.55-31.24-50.64-58.72-49.41-29.4,1.31-64,23.65-94.89,61.3-33.81,41.2-60,96.92-73.79,156.89C328.28,459.91,340.7,543.75,355,597c15.54,57.8,36.63,93.14,36.84,93.49l.26.43Z"/><path class="cls-6" d="M418.08,736.24H418a2.8,2.8,0,0,1-2.72-2.88c0-.84,2.58-85.47,19.08-199.84,15.24-105.6,45.81-258.9,105-389.58a2.8,2.8,0,0,1,5.1,2.31C485.55,276.3,455.1,429,439.91,534.24c-16.46,114.07-19,198.44-19,199.28A2.79,2.79,0,0,1,418.08,736.24Z"/><g class="cls-7"><path class="cls-6" d="M454.69,421.21a2.76,2.76,0,0,1-2.2-1.07c-56.55-72-64.52-163.49-64.59-164.41a2.8,2.8,0,0,1,5.58-.45c.07.9,7.93,90.81,63.41,161.41a2.8,2.8,0,0,1-2.2,4.52Z"/></g><path class="cls-6" d="M474.85,344.27a2.8,2.8,0,0,1-1.07-5.38c.81-.33,80.91-33.82,114-84.65a2.8,2.8,0,0,1,4.69,3.06c-9.84,15.12-30.19,38.37-71.26,63.28a371.69,371.69,0,0,1-45.28,23.48A2.69,2.69,0,0,1,474.85,344.27Z"/><g class="cls-8"><path class="cls-6" d="M438.37,528.26a2.79,2.79,0,0,1-1.5-5.15c.87-.56,88-56.64,137.69-127.57a2.8,2.8,0,0,1,4.58,3.21c-50.36,71.86-138.38,128.51-139.26,129.07A2.79,2.79,0,0,1,438.37,528.26Z"/></g><path class="cls-6" d="M428,608.3a2.71,2.71,0,0,1-1.23-.29c-25.43-12.41-49-42.53-70.12-89.52a485.05,485.05,0,0,1-24.06-66.68,2.8,2.8,0,1,1,5.42-1.42c.32,1.24,33.21,124.27,91.22,152.59A2.8,2.8,0,0,1,428,608.3Z"/><path class="cls-9" d="M327.34,712.71S220.93,634.84,194,481.43,247.59,207.1,313.25,283.32s101.1,353.68,75.1,414.9S327.34,712.71,327.34,712.71Z"/><path class="cls-6" d="M356,732.57c-16,0-28.61-15.3-30.61-17.85-3.19-2.41-28.72-22.21-56.79-58.41a398,398,0,0,1-77.29-174.4c-8.7-49.59-6.72-100,5.59-141.85,11.47-39,31-67.59,53.67-78.31,21.91-10.38,44.93-3.37,64.84,19.74C344.83,315.68,372,395.86,387.94,496c14.6,91.47,15.8,173.19,3,203.37-8.67,20.42-19.44,31.55-32,33.07A24.91,24.91,0,0,1,356,732.57ZM329.57,711c.22.28,13.54,17.66,28.71,15.8,10.42-1.27,19.67-11.26,27.5-29.7,12.24-28.83,10.85-111.2-3.37-200.29-15.82-99.12-42.47-178.26-71.28-211.7-18.38-21.33-38.5-27.67-58.2-18.33-21.2,10-39.68,37.31-50.7,74.83-12.07,41.07-14,90.54-5.45,139.3a392.76,392.76,0,0,0,76.07,171.78c29.39,37.94,55.87,57.53,56.14,57.73l.33.24Z"/><path class="cls-6" d="M361.52,736.93a2.8,2.8,0,0,1-2.61-1.79c-.24-.63-24.7-64.12-48.17-154-21.67-83-46.91-206.08-44.11-321.35a2.8,2.8,0,1,1,5.6.14c-2.79,114.59,22.34,237.11,43.9,319.72,23.39,89.58,47.76,152.84,48,153.46a2.79,2.79,0,0,1-1.6,3.62A2.74,2.74,0,0,1,361.52,736.93Z"/><g class="cls-7"><path class="cls-6" d="M290.41,492.24a2.78,2.78,0,0,1-1.36-.35C225,456.15,190.56,390.7,190.22,390.05a2.8,2.8,0,0,1,5-2.58c.33.65,34,64.63,96.58,99.53a2.8,2.8,0,0,1-1.36,5.24Z"/></g><path class="cls-6" d="M281.29,429a2.84,2.84,0,0,1-2-.8,2.81,2.81,0,0,1,0-4,291.32,291.32,0,0,0,25.52-31c12.05-16.8,27.34-42.06,31.74-66.94a2.8,2.8,0,0,1,5.51,1c-4.59,25.94-20.35,52-32.76,69.3a296,296,0,0,1-26,31.57A2.78,2.78,0,0,1,281.29,429Z"/><g class="cls-8"><path class="cls-6" d="M311.72,576.6a2.8,2.8,0,0,1-2.3-4.38c.46-.68,47-69.28,61.39-137.2a2.8,2.8,0,0,1,5.48,1.17c-14.67,69-61.78,138.49-62.25,139.19A2.8,2.8,0,0,1,311.72,576.6Z"/></g><path class="cls-6" d="M329,639.09h-.16c-22.68-1.27-49.5-16.27-79.73-44.58a390,390,0,0,1-38.48-41.94,2.8,2.8,0,0,1,4.45-3.4c.62.81,62.91,81.46,114.07,84.33a2.8,2.8,0,0,1-.15,5.6Z"/><path class="cls-10" d="M556.21,691.29l-2.15,35.25-4.78,78.25h-326s-2.45-53.37-4-84.9c-.64-12.56-1.13-21.66-1.28-22.52Z"/><path class="cls-11" d="M556.21,691.29l-2.15,35.25-334.84-6.65c-.64-12.56-1.13-21.66-1.28-22.52Z"/><path class="cls-12" d="M559.64,712.54H217.17c-3.7,0-6.69-5.69-6.69-12.7V682.75c0-7,3-12.71,6.69-12.71H559.64c3.69,0,6.69,5.69,6.69,12.71v17.09C566.33,706.85,563.33,712.54,559.64,712.54Z"/></g></g></svg>