<svg id="fi-rr-calendar" xmlns="http://www.w3.org/2000/svg" width="15.354" height="15.354" viewBox="0 0 15.354 15.354">
  <path id="Path_325" data-name="Path 325" d="M12.155,1.279h-.64V.64a.64.64,0,0,0-1.279,0v.64H5.118V.64a.64.64,0,1,0-1.279,0v.64H3.2A3.2,3.2,0,0,0,0,4.478v7.677a3.2,3.2,0,0,0,3.2,3.2h8.956a3.2,3.2,0,0,0,3.2-3.2V4.478A3.2,3.2,0,0,0,12.155,1.279ZM1.279,4.478A1.919,1.919,0,0,1,3.2,2.559h8.956a1.919,1.919,0,0,1,1.919,1.919v.64H1.279Zm10.875,9.6H3.2a1.919,1.919,0,0,1-1.919-1.919V6.4H14.074v5.758A1.919,1.919,0,0,1,12.155,14.074Z" fill="#989898"/>
  <circle id="Ellipse_14" data-name="Ellipse 14" cx="0.96" cy="0.96" r="0.96" transform="translate(6.717 8.636)" fill="#989898"/>
  <circle id="Ellipse_15" data-name="Ellipse 15" cx="0.96" cy="0.96" r="0.96" transform="translate(3.519 8.636)" fill="#989898"/>
  <circle id="Ellipse_16" data-name="Ellipse 16" cx="0.96" cy="0.96" r="0.96" transform="translate(9.916 8.636)" fill="#989898"/>
</svg>
