<svg xmlns="http://www.w3.org/2000/svg" xmlns:xlink="http://www.w3.org/1999/xlink" viewBox="0 0 483.33 483.33"><defs><style>.cls-1{fill:none;}.cls-2{fill:#f9f3ee;}.cls-3{fill:#74413e;}.cls-4{clip-path:url(#clip-path);}.cls-5{fill:#4c2524;}.cls-6{fill:#f29979;}.cls-7{clip-path:url(#clip-path-2);}.cls-8{fill:#d86d4c;}.cls-9{fill:#db633e;}.cls-10{fill:#fff;}.cls-11{fill:#632727;}</style><clipPath id="clip-path"><path class="cls-1" d="M171.34,108.91c4.87,1.41-5.76-33.31,54.83-44.11s70.56,30.73,93,31.56,44,.19,53.15,12.55.83,33.26-7.48,34.85,23.26,21.09-6.64,36.26-54,10.18-54,10.18L149.75,264.93l-23.26-31.58s-17.95-44.81-17.43-75.54C109.52,130.1,125.66,95.72,171.34,108.91Z"/></clipPath><clipPath id="clip-path-2"><path class="cls-1" d="M353.2,180s-10,109.83-9.14,139.72-23.18,75.47-54.8,78.06a146.9,146.9,0,0,1-27.41,0L231.33,389l-90.72-66.77s-30.72-18.27-39-39,5.81-49.85,24.91-49.85c22.86,0,27.41,24.94,27.41,24.94s24.08-19.1,22.42-55.64,5.81-39.56,5.81-39.56,14.12,12.75,19.93,0,12.46-22,29.07-18.63S295.9,188.11,353.2,180Z"/></clipPath></defs><g id="Layer_2" data-name="Layer 2"><g id="_08" data-name="08"><rect class="cls-2" width="483.33" height="483.33"/><path class="cls-3" d="M364.82,143.76c8.31-1.59,16.61-22.49,7.48-34.85s-30.73-11.72-53.15-12.55S286.76,54,226.17,64.8s-50,45.52-54.83,44.11c-45.68-13.19-61.82,21.19-62.28,48.9-.52,30.73,17.43,75.54,17.43,75.54l23.26,31.58L304.2,190.2s24.09,5,54-10.18S356.52,145.35,364.82,143.76Z"/><g class="cls-4"><path class="cls-5" d="M351.84,160.61c-7.1-1.58-15.18-6.42-14.44-13.64.52-5,5.12-8.44,8.47-12.22s5.29-10.43,1.16-13.36a8,8,0,0,0-3.56-1.25c-11.61-1.64-22.33,9.63-33.85,7.44-7.89-1.5-13.11-8.72-18.68-14.51-23.31-24.28-65.79-26.59-91.59-5-4.07,3.41-7.8,7.4-9.91,12.27L183,137.1c-12.67-8.32-29.5-8.72-43.66-3.31s-25.85,16-34.94,28.15c-5.33,7.11-10,15.1-11,23.92C92.21,195,95,204,98.12,212.62a379.19,379.19,0,0,0,28.05,60.65c4.27,7.42,9.23,15.11,17,18.65,11.76,5.35,25.33-.49,36.91-6.25l172.47-85.89c6.18-3.08,12.57-6.32,16.89-11.71s6-13.58,1.94-19.19C367.17,163,358.93,162.19,351.84,160.61Z"/></g><path class="cls-6" d="M289.26,397.8c31.47-4.06,55.63-48.16,54.8-78.06S353.2,180,353.2,180c-57.3,8.09-105.46-32.17-122.07-35.56s-23.25,5.88-29.07,18.63-19.93,0-19.93,0-7.47,3-5.81,39.56-22.42,55.64-22.42,55.64-4.55-24.94-27.41-24.94c-19.1,0-33.21,29.09-24.91,49.85s39,39,39,39,48.63,40.48,64.28,50.22C218.21,380.75,264.84,401,289.26,397.8Z"/><g class="cls-7"><path class="cls-8" d="M360.37,140.71q-24.75-13.11-50.19-24.85C294,108.41,277.39,101.3,259.73,99a97.34,97.34,0,0,0-70.62,18.89c-11.37,8.66-21.16,20.77-22.73,35l-19,53.88A86.88,86.88,0,0,1,154,255.24c4.72,1,9.46-1.4,13.45-4.12,21.9-14.92,34.66-42.27,32-68.64a13.2,13.2,0,0,0,14.94-4.16c2.58-3.39,3.4-8,6.36-11,4-4.14,10.8-4.26,16.1-2s9.55,6.33,14,10c30.72,25.32,76.44,30.78,112.26,13.41,9.4-4.55,19.08-12.2,19.22-22.64C382.52,154.21,370.79,146.23,360.37,140.71Z"/><path class="cls-8" d="M243.16,395a243.89,243.89,0,0,1-54-34.82c-.08,33.71,20.95,66.58,51.59,80.63,6.87,3.15,15.53,5.21,21.51.6,3-2.29,4.69-5.85,5.83-9.43a44.34,44.34,0,0,0-3-33.83S248.58,397.54,243.16,395Z"/><path class="cls-8" d="M127.14,261.67c-6.31,3.64-7.81,12.84-3.36,20.55s13.17,11,19.48,7.37,7.82-12.85,3.36-20.56S133.45,258,127.14,261.67Z"/><circle class="cls-9" cx="198.22" cy="288.49" r="25.08"/><path class="cls-10" d="M205.21,270.89q-10.92,9.35-21.28,19.28c-2.79,2.68,1.46,6.92,4.24,4.24q10.37-9.93,21.28-19.27C212.39,272.62,208.13,268.39,205.21,270.89Z"/><path class="cls-10" d="M211.66,282.73,193,299.21c-2.9,2.56,1.36,6.79,4.25,4.24L215.9,287C218.8,284.41,214.54,280.18,211.66,282.73Z"/></g><path class="cls-11" d="M217,198.09h28.65S231.33,189.78,217,198.09Z"/><path class="cls-11" d="M304.94,205.21h28.64S319.26,196.91,304.94,205.21Z"/><path class="cls-11" d="M288.84,288.94a2,2,0,0,1-.82-3.82c.21-.13,3.84-2.35,10.56-14.77-24.68-13.66-13-44.44-12.85-44.76a2,2,0,0,1,3.73,1.46,46.78,46.78,0,0,0-2.66,16.26c.29,11.39,5.46,19.6,15.37,24.39l1.86.9-1,1.83c-8.19,15.64-12.68,18.05-13.49,18.37A1.91,1.91,0,0,1,288.84,288.94Z"/><path class="cls-11" d="M265.58,324.8c-9.06,0-22.72-3.81-24.89-18.89a2,2,0,0,1,3.95-.57c2.51,17.35,22.78,15.41,23.64,15.32a2,2,0,0,1,.43,4A30,30,0,0,1,265.58,324.8Z"/><path class="cls-11" d="M315.41,236.29a8.72,8.72,0,1,0,8.72,8.71A8.71,8.71,0,0,0,315.41,236.29Z"/><path class="cls-11" d="M234,236.29a8.72,8.72,0,1,0,8.71,8.71A8.71,8.71,0,0,0,234,236.29Z"/><path d="M359.08,291.85H300.81a5.67,5.67,0,0,1-5.66-5.67V250.33a5.68,5.68,0,0,1,5.66-5.67h58.27a5.68,5.68,0,0,1,5.67,5.67v35.85A5.67,5.67,0,0,1,359.08,291.85Zm-58.27-43.19a1.66,1.66,0,0,0-1.66,1.67v35.85a1.66,1.66,0,0,0,1.66,1.67h58.27a1.67,1.67,0,0,0,1.67-1.67V250.33a1.67,1.67,0,0,0-1.67-1.67Z"/><path d="M264.83,291.85H206.56a5.67,5.67,0,0,1-5.67-5.67V250.33a5.68,5.68,0,0,1,5.67-5.67h58.27a5.68,5.68,0,0,1,5.67,5.67v35.85A5.68,5.68,0,0,1,264.83,291.85Zm-58.27-43.19a1.67,1.67,0,0,0-1.67,1.67v35.85a1.67,1.67,0,0,0,1.67,1.67h58.27a1.67,1.67,0,0,0,1.67-1.67V250.33a1.67,1.67,0,0,0-1.67-1.67Z"/><path d="M270,272.48l-3-2.63c12.14-14,31-3.44,31.15-3.33l-2,3.47,1-1.73-1,1.73a31.22,31.22,0,0,0-9.55-3.15C279.74,265.82,274.15,267.72,270,272.48Z"/><path d="M200.82,270.26a2,2,0,0,1-.58-.09l-43.6-13.09a2,2,0,1,1,1.15-3.83l43.6,13.09a2,2,0,0,1-.57,3.92Z"/></g></g></svg>